<svg xmlns="http://www.w3.org/2000/svg" width="121" height="28" viewBox="0 0 121 28" fill="none">
  <g clip-path="url(#clip0_4201_4564)">
    <path fill-rule="evenodd" clip-rule="evenodd" d="M10.3057 19.2373C9.3946 19.2373 8.52084 18.8754 7.87661 18.2312C7.23238 17.5869 6.87045 16.7132 6.87045 15.8021V0H0V15.8021C0 21.4936 4.6142 26.1078 10.3057 26.1078H17.8632V19.2373H10.3057ZM30.917 6.87048C30.105 6.87048 29.301 7.03042 28.5508 7.34116C27.8005 7.65191 27.1189 8.10738 26.5447 8.68156C25.9705 9.25575 25.5151 9.9374 25.2043 10.6876C24.8936 11.4378 24.7336 12.2419 24.7336 13.0539C24.7336 13.8659 24.8936 14.67 25.2043 15.4202C25.5151 16.1704 25.9705 16.8521 26.5447 17.4263C27.1189 18.0004 27.8005 18.4559 28.5508 18.7667C29.301 19.0774 30.105 19.2373 30.917 19.2373C32.557 19.2373 34.1298 18.5859 35.2894 17.4263C36.449 16.2666 37.1005 14.6939 37.1005 13.0539C37.1005 11.414 36.449 9.84118 35.2894 8.68156C34.1298 7.52194 32.557 6.87048 30.917 6.87048ZM17.8632 13.0539C17.8632 5.84472 23.7079 0 30.917 0C38.1262 0 43.9709 5.84472 43.9709 13.0539C43.9709 20.2631 38.1262 26.1078 30.917 26.1078C23.7079 26.1078 17.8632 20.2631 17.8632 13.0539ZM105.118 6.87048C103.478 6.87048 101.905 7.52194 100.746 8.68156C99.586 9.84118 98.9345 11.414 98.9345 13.0539C98.9345 14.6939 99.586 16.2666 100.746 17.4263C101.905 18.5859 103.478 19.2373 105.118 19.2373C106.758 19.2373 108.331 18.5859 109.49 17.4263C110.65 16.2666 111.301 14.6939 111.301 13.0539C111.301 11.414 110.65 9.84118 109.49 8.68156C108.331 7.52194 106.758 6.87048 105.118 6.87048ZM92.0641 13.0539C92.0641 5.84472 97.9088 0 105.118 0C112.327 0 118.172 5.84472 118.172 13.0539C118.172 20.2631 112.327 26.1078 105.118 26.1078C97.9088 26.1078 92.0641 20.2631 92.0641 13.0539ZM58.3989 0C51.1897 0 45.345 5.84472 45.345 13.0539C45.345 20.2631 51.1897 26.1078 58.3989 26.1078H77.6361C78.9889 26.1078 80.2936 25.9017 81.5207 25.5197L85.1936 27.4819L89.1565 20.059C90.1632 18.1694 90.6898 16.0613 90.69 13.9203V13.0539C90.69 5.84472 84.8453 0 77.6361 0H58.3989ZM83.8195 13.0539C83.8195 11.414 83.1681 9.84118 82.0085 8.68156C80.8488 7.52194 79.2761 6.87048 77.6361 6.87048H58.3989C57.5868 6.87048 56.7828 7.03042 56.0326 7.34116C55.2824 7.65191 54.6007 8.10738 54.0265 8.68156C53.4523 9.25575 52.9969 9.9374 52.6861 10.6876C52.3754 11.4378 52.2155 12.2419 52.2155 13.0539C52.2155 13.8659 52.3754 14.67 52.6861 15.4202C52.9969 16.1704 53.4523 16.8521 54.0265 17.4263C54.6007 18.0004 55.2824 18.4559 56.0326 18.7667C56.7828 19.0774 57.5868 19.2373 58.3989 19.2373H77.6361C79.2678 19.2374 80.8333 18.5925 81.9915 17.4433C83.1498 16.2941 83.8068 14.7336 83.8195 13.102V13.0539Z" fill="#838E9E"/>
    <path d="M120.92 1.71762C120.92 2.17316 120.739 2.61004 120.417 2.93216C120.094 3.25428 119.658 3.43524 119.202 3.43524C118.746 3.43524 118.31 3.25428 117.987 2.93216C117.665 2.61004 117.484 2.17316 117.484 1.71762C117.484 1.26208 117.665 0.825195 117.987 0.503079C118.31 0.180963 118.746 0 119.202 0C119.658 0 120.094 0.180963 120.417 0.503079C120.739 0.825195 120.92 1.26208 120.92 1.71762Z" fill="#838E9E"/>
  </g>
  <defs>
    <clipPath id="clip0_4201_4564">
      <rect width="120.92" height="27.4819" fill="white"/>
    </clipPath>
  </defs>
</svg>