<svg xmlns="http://www.w3.org/2000/svg" width="90" height="33" viewBox="0 0 90 33" fill="none">
  <path d="M8.96756 14.0105C8.94229 14.6037 8.92969 15.3547 8.92969 16.2634C8.92969 17.1721 8.94229 17.9294 8.96756 18.5352C8.99276 19.1284 9.04323 19.6017 9.11896 19.9551C9.2073 20.3085 9.32721 20.5546 9.47869 20.6935C9.64276 20.8323 9.85731 20.9017 10.1224 20.9017C10.3874 20.9017 10.5957 20.8323 10.7471 20.6935C10.9112 20.5546 11.0311 20.3085 11.1069 19.9551C11.1952 19.6017 11.252 19.1284 11.2772 18.5352C11.3025 17.9294 11.3151 17.1721 11.3151 16.2634C11.3151 15.3547 11.3025 14.6037 11.2772 14.0105C11.252 13.4046 11.1952 12.925 11.1069 12.5717C11.0311 12.2182 10.9112 11.9721 10.7471 11.8333C10.5957 11.6944 10.3874 11.625 10.1224 11.625C9.85731 11.625 9.64276 11.6944 9.47869 11.8333C9.32721 11.9721 9.2073 12.2182 9.11896 12.5717C9.04323 12.925 8.99276 13.4046 8.96756 14.0105Z" fill="#838E9E"/>
  <path fill-rule="evenodd" clip-rule="evenodd" d="M9.63693 2.19615C5.07199 2.29383 1.44347 6.06082 1.51671 10.6262L1.60671 16.2355L1.51671 21.8449C1.44347 26.4103 5.07199 30.1773 9.63693 30.2749L15.2471 30.395L20.8573 30.2749C25.4222 30.1773 29.0508 26.4103 28.9776 21.8449L28.8876 16.2355L28.9776 10.6262C29.0508 6.06082 25.4222 2.29383 20.8573 2.19615L15.2471 2.07617L9.63693 2.19615ZM15.441 23.3783L13.3206 25.2148L11.3895 23.1322C11.238 23.1575 11.0866 23.1765 10.9351 23.1891C10.7963 23.2143 10.6385 23.2269 10.4618 23.2269H10.1211C9.22494 23.2269 8.46762 23.107 7.84918 22.8672C7.23075 22.6274 6.73222 22.2298 6.35359 21.6745C5.97497 21.1065 5.70358 20.3808 5.53951 19.4973C5.37543 18.6012 5.29339 17.522 5.29339 16.26C5.29339 14.9978 5.37543 13.925 5.53951 13.0415C5.70358 12.1454 5.97497 11.4197 6.35359 10.8643C6.73222 10.2964 7.23075 9.88617 7.84918 9.63375C8.46762 9.36867 9.22494 9.23616 10.1211 9.23616C11.0172 9.23616 11.7744 9.36867 12.3929 9.63375C13.0113 9.88617 13.5099 10.2964 13.8885 10.8643C14.2672 11.4197 14.5385 12.1454 14.7026 13.0415C14.8667 13.925 14.9487 14.9978 14.9487 16.26C14.9487 17.5599 14.8604 18.658 14.6836 19.5541C14.507 20.4502 14.2167 21.1823 13.8128 21.7502L15.441 23.3783ZM21.4171 14.3667V13.6095C21.4171 12.8396 21.3414 12.3158 21.1899 12.0381C21.0385 11.7605 20.7924 11.6216 20.4515 11.6216C20.1865 11.6216 19.972 11.691 19.8079 11.8299C19.6564 11.9687 19.5365 12.2148 19.4482 12.5682C19.3724 12.9216 19.322 13.4012 19.2967 14.0071C19.2714 14.6002 19.2588 15.3512 19.2588 16.26C19.2588 17.1687 19.2714 17.9259 19.2967 18.5318C19.322 19.125 19.3724 19.5983 19.4482 19.9517C19.5365 20.3051 19.6564 20.5512 19.8079 20.69C19.972 20.8289 20.1865 20.8983 20.4515 20.8983C20.6661 20.8983 20.8428 20.8478 20.9816 20.7468C21.1205 20.6332 21.2278 20.4502 21.3035 20.1978C21.3792 19.9454 21.4297 19.6109 21.455 19.1944C21.4928 18.7653 21.5117 18.2289 21.5117 17.5852H24.9195V18.5886C24.9195 19.5352 24.7933 20.3114 24.5409 20.9172C24.2884 21.523 23.954 22.0027 23.5375 22.356C23.1209 22.6968 22.6414 22.924 22.0986 23.0376C21.5686 23.1638 21.0195 23.2269 20.4515 23.2269C19.4671 23.2269 18.6594 23.107 18.0283 22.8672C17.3972 22.6274 16.905 22.2298 16.5516 21.6745C16.1981 21.1065 15.952 20.3808 15.8132 19.4973C15.687 18.6012 15.6239 17.522 15.6239 16.26C15.6239 14.9726 15.6996 13.8809 15.8511 12.9847C16.0152 12.0886 16.2865 11.3629 16.6652 10.8076C17.0438 10.2522 17.5423 9.8546 18.1608 9.61478C18.7792 9.36237 19.5428 9.23616 20.4515 9.23616C21.2467 9.23616 21.9219 9.33717 22.4773 9.53911C23.0326 9.74106 23.4807 10.0313 23.8215 10.41C24.1748 10.776 24.4273 11.2241 24.5787 11.7542C24.7428 12.2716 24.8249 12.8585 24.8249 13.5148V14.3667H21.4171Z" fill="#838E9E"/>
  <path fill-rule="evenodd" clip-rule="evenodd" d="M45.5243 11.7241L48.6107 14.9271L51.6972 11.7241H57.0596L51.2879 17.2149L57.0596 22.7057H51.6972L48.6107 19.4946L45.5243 22.7057H40.1537L45.9255 17.2149L40.1537 11.7241H45.5243ZM45.2267 17.2149L38.9492 11.243H45.7295L48.6107 14.233L51.492 11.243H58.0302V11.2349H69.1112C71.6451 11.209 73.7899 13.3278 73.7552 15.8702C73.7545 16.7847 73.5074 17.6276 73.0124 18.3779C72.6399 18.9458 72.1678 19.413 71.6022 19.7683L73.965 22.8021V20.8346C73.965 19.2931 75.117 18.3104 76.4421 17.6586C77.7803 17.0007 79.4689 16.5896 80.8749 16.257L80.877 16.2565L80.8929 16.2525C81.7597 16.0393 82.4977 15.8579 83.0232 15.6622C83.289 15.563 83.4635 15.4732 83.5632 15.3969C83.5756 15.3872 83.586 15.3786 83.595 15.3712C83.5645 15.3432 83.5022 15.3015 83.3797 15.2534C83.0938 15.1414 82.6057 15.0571 81.8663 15.0569C81.0764 15.065 80.4049 15.1293 79.9465 15.29C79.7208 15.3693 79.5845 15.4596 79.5076 15.5443C79.4425 15.6171 79.4038 15.7034 79.4072 15.8388L79.419 16.3315H74.1367V15.8504C74.1367 14.8628 74.3306 14.037 74.7182 13.3604C75.108 12.6807 75.6757 12.1845 76.368 11.8286C77.7263 11.1302 79.5976 10.957 81.6842 10.957C83.8207 10.957 85.5944 11.2036 86.8502 11.8383C87.4858 12.1599 88.0022 12.588 88.3574 13.1447C88.7132 13.7028 88.8877 14.3598 88.8877 15.1069C88.8877 16.4893 88.0535 17.3699 87.0309 17.9438C86.0382 18.501 84.7885 18.8175 83.7508 19.0707H88.7077V23.1705H74.2516L74.2579 23.1787H68.4674L66.396 20.4986H63.2841V23.1787H58.2552L58.2642 23.1869H51.4916L48.6107 20.1896L45.7298 23.1869H38.9492L45.2267 17.2149ZM58.0302 22.9641V11.4657L51.9865 17.2149L58.0302 22.9641ZM66.6335 20.0175L68.7049 22.6975H73.2727L70.8739 19.6171C71.0241 19.5475 71.1674 19.4706 71.3052 19.3864C71.8299 19.065 72.2661 18.638 72.6095 18.1137C73.0519 17.4437 73.2727 16.692 73.2727 15.8667C73.3059 13.5952 71.382 11.6914 69.114 11.7159H58.512V22.6975H62.8016V20.0175H66.6335ZM81.2259 19.5518C81.3762 19.3681 81.6482 19.2119 82.0096 19.0707C82.4354 18.904 82.9837 18.758 83.5998 18.6122C85.7121 18.0974 88.4058 17.3947 88.4058 15.1069C88.4058 12.4268 85.917 11.4381 81.6842 11.4381C77.7042 11.4381 74.8816 12.0865 74.6365 15.3692C74.6248 15.5238 74.6185 15.684 74.6185 15.8504H78.9254C78.9247 15.8323 78.9247 15.8144 78.9254 15.7968C78.9489 14.8207 80.2962 14.5918 81.8642 14.5757C83.3949 14.5757 84.099 14.9189 84.099 15.3847C84.099 15.9596 82.7407 16.2938 81.0348 16.7132L80.9885 16.7246C78.1555 17.3947 74.4469 18.3262 74.4469 20.8346V22.6894H88.2252V19.5518H81.2259ZM83.622 15.4081C83.622 15.4081 83.6192 15.405 83.6178 15.398C83.622 15.4043 83.622 15.4081 83.622 15.4081ZM68.493 15.8667C68.493 15.6095 68.2909 15.4082 68.0333 15.4082H63.2841V16.3171H68.0333C68.1718 16.3171 68.2687 16.2751 68.3552 16.1884C68.4542 16.0897 68.493 15.9909 68.493 15.8667ZM68.9749 15.8667C68.9749 15.3438 68.5574 14.9271 68.0333 14.9271H62.8016V16.7982H68.0333C68.295 16.7982 68.5166 16.7083 68.6966 16.5286C68.8849 16.3406 68.9749 16.1201 68.9749 15.8667Z" fill="#838E9E"/>
  <path d="M40.5508 30.629H42.6055V27.8157L44.664 30.629H45.6913L47.7499 27.8157V30.629H49.8046V25.3555H47.2363L45.1777 27.9923L43.1231 25.3555H40.5508V30.629Z" fill="#838E9E"/>
  <path d="M54.1307 25.2266C52.1468 25.2305 50.5235 25.8033 50.5313 27.8006V28.1851C50.5235 30.1784 52.1468 30.7552 54.1307 30.7591C56.1107 30.7552 57.7341 30.1784 57.7265 28.1851V27.8006C57.7265 25.8073 56.1148 25.2266 54.1307 25.2266ZM55.6717 28.0556C55.6835 28.9188 54.9697 29.0758 54.1307 29.0876C53.2878 29.0758 52.5741 28.9188 52.5859 28.0556V27.9261C52.5741 27.0668 53.2878 26.9098 54.1307 26.8981C54.9697 26.9098 55.6835 27.0668 55.6717 27.9261V28.0556Z" fill="#838E9E"/>
  <path d="M63.4841 28.0003C63.4841 28.53 63.1823 28.9655 62.6492 28.9655H60.3985V27.035H62.6492C63.1823 27.035 63.4841 27.4666 63.4841 28.0003ZM58.3438 25.3635V30.637H63.0334C64.4804 30.6567 65.5548 29.4325 65.5431 28.0003C65.5548 26.5602 64.4804 25.3439 63.0334 25.3635H58.3438Z" fill="#838E9E"/>
  <path d="M71.2654 28.059C71.2772 28.9261 70.5641 29.0752 69.7243 29.087C68.8818 29.0752 68.1722 28.9261 68.1798 28.059V25.3555H66.125V28.1885C66.1174 30.1818 67.7485 30.7546 69.7243 30.7585C71.7009 30.7546 73.3319 30.1818 73.3243 28.1885V25.3555H71.2654V28.059Z" fill="#838E9E"/>
  <path d="M74.2461 25.3555V30.629H80.4146V28.9575H76.3009V25.3555H74.2461Z" fill="#838E9E"/>
  <path d="M81.1172 30.6368H87.2857V29.2831H83.172V28.6082H87.2857V27.3879H83.172V26.713H87.2857V25.3633H81.1172V30.6368Z" fill="#838E9E"/>
  <path d="M41.7316 5.26483V4.15347H44.777C44.9246 4.15347 45.053 4.20685 45.1577 4.31845C45.2671 4.42527 45.3194 4.55625 45.3194 4.71154C45.3194 4.86205 45.2671 4.99303 45.1577 5.1047C45.053 5.21145 44.9246 5.26483 44.777 5.26483H41.7316ZM39.2383 2.24623V8.76873H41.7316V7.17691H45.4004C46.7185 7.19637 47.8367 6.05586 47.8176 4.71154C47.8367 3.36244 46.7185 2.23163 45.4004 2.24623H39.2383Z" fill="#838E9E"/>
  <path d="M52.7823 2.07812C50.3746 2.08297 48.4046 2.79155 48.4141 5.26177V5.73738C48.4046 8.20276 50.3746 8.91611 52.7823 8.92096C55.1851 8.91611 57.1554 8.20276 57.1457 5.73738V5.26177C57.1457 2.79639 55.1899 2.07812 52.7823 2.07812ZM54.652 5.57718C54.6665 6.64486 53.8005 6.83898 52.7823 6.85359C51.7593 6.83898 50.8932 6.64486 50.9075 5.57718V5.41705C50.8932 4.35422 51.7593 4.1601 52.7823 4.14556C53.8005 4.1601 54.6665 4.35422 54.652 5.41705V5.57718Z" fill="#838E9E"/>
  <path d="M66.8639 6.37605L65.3838 2.24609H62.5765L61.0922 6.37605L59.612 2.24609H56.8047L59.612 8.7686H62.5765L63.9805 5.50735L65.3838 8.7686H68.3482L71.1562 2.24609H68.3482L66.8639 6.37605Z" fill="#838E9E"/>
  <path d="M71.3477 8.7686H78.8322V7.09432H73.8407V6.25954H78.8322V4.75024H73.8407V3.91552H78.8322V2.24609H71.3477V8.7686Z" fill="#838E9E"/>
  <path d="M80.1602 2.24233V8.7649H82.6532V7.17308H84.8803L86.0842 8.7649H88.7392L87.3449 6.93527C87.7638 6.7363 88.1016 6.43542 88.3536 6.04233C88.6112 5.64439 88.7392 5.19793 88.7392 4.7077C88.7586 3.35853 87.6398 2.22779 86.3224 2.24233H80.1602ZM85.6938 4.14963C85.9984 4.14963 86.2414 4.39713 86.2414 4.7077C86.2414 4.85814 86.1888 4.98919 86.0794 5.10079C85.9748 5.20762 85.8461 5.26099 85.6938 5.26099H82.6532V4.14963H85.6938Z" fill="#838E9E"/>
</svg>