<svg width="70" height="28" viewBox="0 0 70 28" fill="none" xmlns="http://www.w3.org/2000/svg">
<g clip-path="url(#clip0_4201_4592)">
<path d="M3.33906 2.9645C3.52106 2.1007 4.38206 1.4 5.25916 1.4H10.0276L6.06206 20.1761H1.29366C0.415856 20.1761 -0.148344 19.4761 0.034356 18.6116L3.33906 2.9645ZM19.234 2.9645C19.4167 2.1007 20.277 1.4 21.1541 1.4H25.9225L21.957 20.1761H17.1886C16.3108 20.1761 15.7466 19.4761 15.9293 18.6116L19.234 2.9645ZM51.0245 2.9645C51.2065 2.1007 52.0661 1.4 52.9446 1.4H57.713L53.7475 20.1761H48.9784C48.1006 20.1761 47.5371 19.4761 47.7197 18.6116L51.0245 2.9645ZM27.5122 1.4H32.2806C33.1584 1.4 33.7226 2.1 33.5399 2.9645L30.2352 18.6116C30.0532 19.4761 29.1929 20.1761 28.3151 20.1761H23.5467L27.5122 1.4ZM59.3027 1.4H64.0711C64.9489 1.4 65.5131 2.1 65.3304 2.9645L62.025 18.6116C61.843 19.4761 60.9834 20.1761 60.1056 20.1761H55.3365L59.3027 1.4ZM35.1296 2.9645C35.3116 2.1007 36.1712 1.4 37.049 1.4H41.8181L37.8519 20.1761H33.0835C32.2057 20.1761 31.6415 19.4761 31.8249 18.6116L35.1289 2.9645H35.1296ZM43.4071 1.4H48.1762C49.054 1.4 49.6175 2.1 49.4348 2.9645L44.4781 26.4355C44.2947 27.2993 43.4351 28 42.5573 28H37.7882L43.4071 1.4ZM8.97336 13.9174H15.3315L14.3403 18.6116C14.1576 19.4761 13.2973 20.1761 12.4202 20.1761H7.65106L8.97266 13.9181L8.97336 13.9174ZM31.1641 21.7413H37.5215L36.1999 28H31.4315C30.553 28 29.9895 27.3 30.1722 26.4355L31.1641 21.7413ZM48.4219 23.1966L47.6169 27.0088C47.5819 27.1726 47.5273 27.2174 47.3606 27.2174H46.9946C46.828 27.2174 46.7915 27.1726 46.8265 27.0088L47.6315 23.1966C47.6665 23.0335 47.7212 22.988 47.8878 22.988H48.2539C48.4205 22.988 48.4569 23.0335 48.4219 23.1966ZM49.4803 25.7684H49.4054C49.3256 25.7684 49.2976 25.7908 49.2815 25.8699L49.0407 27.0088C49.0057 27.1726 48.9504 27.2174 48.7845 27.2174H48.4177C48.2518 27.2174 48.2154 27.1726 48.2497 27.0088L49.0547 23.1966C49.0897 23.0335 49.1457 22.988 49.3116 22.988H50.0676C50.9384 22.988 51.2681 23.2981 51.1071 24.059L50.9727 24.6967C50.8117 25.4583 50.3511 25.7684 49.4803 25.7684ZM49.7015 23.8791L49.4915 24.8773C49.474 24.9564 49.4922 24.9788 49.5727 24.9788H49.6931C49.973 24.9788 50.1236 24.8661 50.1845 24.5784L50.2685 24.178C50.3293 23.891 50.2271 23.7776 49.9464 23.7776H49.8261C49.7463 23.7776 49.7183 23.8 49.7015 23.8791ZM52.3181 24.4937L52.9131 25.1482C53.2253 25.4863 53.2687 25.6893 53.1889 26.0673L53.1679 26.1688C53.0174 26.8793 52.659 27.2741 51.8281 27.2741C50.9979 27.2741 50.7928 26.9416 50.9846 26.033L51.0084 25.921C51.0434 25.7572 51.0987 25.7117 51.2646 25.7117H51.6538C51.8204 25.7117 51.8568 25.7572 51.8218 25.9203L51.7693 26.1688C51.7217 26.3942 51.7945 26.4845 51.9947 26.4845C52.1956 26.4845 52.3048 26.4005 52.3482 26.1975L52.3706 26.0897C52.4042 25.9315 52.386 25.8531 52.2138 25.6669L51.6538 25.0635C51.3402 24.731 51.3003 24.5385 51.3801 24.1605L51.4059 24.0373C51.5564 23.3268 51.9149 22.9313 52.7451 22.9313C53.576 22.9313 53.7811 23.2645 53.5893 24.1724L53.5655 24.2851C53.5305 24.4489 53.4752 24.4937 53.3092 24.4937H52.9194C52.7535 24.4937 52.7171 24.4489 52.7514 24.2851L52.8039 24.0373C52.8515 23.8112 52.7794 23.7216 52.5785 23.7216C52.3783 23.7216 52.2684 23.8056 52.2257 24.0086L52.2054 24.1045C52.1704 24.2683 52.1886 24.3474 52.3181 24.4937ZM55.6725 23.1966C55.7075 23.0335 55.7621 22.988 55.9287 22.988H56.2948C56.4613 22.988 56.4978 23.0335 56.4628 23.1966L55.8636 26.0337C55.6718 26.9416 55.3267 27.2741 54.4958 27.2741C53.6656 27.2741 53.4605 26.9416 53.6523 26.033L54.2515 23.1966C54.2865 23.0335 54.3418 22.988 54.5076 22.988H54.8745C55.0404 22.988 55.0768 23.0335 55.0425 23.1966L54.4146 26.1688C54.367 26.3942 54.4454 26.4845 54.6631 26.4845C54.8745 26.4845 54.997 26.3942 55.0446 26.1688L55.6725 23.1966ZM58.0567 25.4919C58.0588 25.5374 58.0735 25.5479 58.1021 25.5479C58.1301 25.5479 58.1505 25.5374 58.1715 25.4919L59.1613 23.135C59.2096 23.016 59.267 22.988 59.4105 22.988H59.9663C60.1322 22.988 60.1686 23.0335 60.1343 23.1966L59.3293 27.0088C59.2943 27.1726 59.2383 27.2174 59.0724 27.2174H58.8092C58.6433 27.2174 58.6062 27.1726 58.6412 27.0088L59.0275 25.1818C59.0381 25.1314 59.029 25.1195 58.9947 25.1195C58.9716 25.1195 58.9457 25.1314 58.9317 25.1706L58.1323 27.0319C58.0749 27.167 58.0014 27.2174 57.8355 27.2174H57.6801C57.5079 27.2174 57.4561 27.167 57.4561 27.0319L57.4365 25.1699C57.433 25.1307 57.4239 25.1195 57.3951 25.1195C57.3609 25.1195 57.3469 25.1314 57.3363 25.1818L56.9507 27.0088C56.9157 27.1726 56.861 27.2174 56.6945 27.2174H56.4313C56.2647 27.2174 56.2283 27.1726 56.2633 27.0088L57.0683 23.1966C57.1033 23.0335 57.1586 22.988 57.3245 22.988H57.8005C58.0007 22.988 58.0651 23.0335 58.0637 23.2309L58.056 25.4919H58.0567ZM70.0001 1.4C70.0001 2.1735 69.3771 2.8 68.6092 2.8C68.4259 2.79945 68.2445 2.7628 68.0754 2.69213C67.9063 2.62147 67.7528 2.51818 67.6236 2.38817C67.4945 2.25816 67.3922 2.10397 67.3226 1.93442C67.2531 1.76486 67.2176 1.58327 67.2183 1.4C67.2183 0.6265 67.8413 0 68.6092 0C69.3771 0 70.0001 0.6265 70.0001 1.4Z" fill="#838E9E"/>
</g>
<defs>
<clipPath id="clip0_4201_4592">
<rect width="70" height="28" fill="white"/>
</clipPath>
</defs>
</svg>
