<svg xmlns="http://www.w3.org/2000/svg" width="151" height="28" viewBox="0 0 151 28" fill="none">
  <g clip-path="url(#clip0_4201_4567)">
    <path d="M13.7225 27.4545C21.3041 27.4545 27.4498 21.3088 27.4498 13.7273V4.11818C27.4498 3.02597 27.0159 1.9785 26.2436 1.20619C25.4713 0.433878 24.4238 0 23.3316 0L14.4089 0V6.02215C14.4089 7.39625 14.4926 8.81977 15.2133 9.98933C15.7292 10.8275 16.4194 11.5449 17.237 12.0929C18.0547 12.6409 18.9806 13.0065 19.952 13.1651L20.2148 13.2077C20.3232 13.2447 20.4173 13.3147 20.4839 13.4079C20.5505 13.5011 20.5863 13.6127 20.5863 13.7273C20.5863 13.8418 20.5505 13.9535 20.4839 14.0466C20.4173 14.1398 20.3232 14.2098 20.2148 14.2468L19.952 14.2894C18.5327 14.5212 17.2221 15.193 16.2052 16.2099C15.1883 17.2268 14.5165 18.5374 14.2847 19.9567L14.2421 20.2196C14.2051 20.328 14.1351 20.422 14.0419 20.4886C13.9487 20.5553 13.8371 20.5911 13.7225 20.5911C13.608 20.5911 13.4963 20.5553 13.4032 20.4886C13.31 20.422 13.24 20.328 13.2029 20.2196L13.1604 19.9567C13.0017 18.9853 12.636 18.0594 12.0881 17.2418C11.5401 16.4242 10.8227 15.734 9.98458 15.2181C8.81502 14.4974 7.3915 14.4136 6.0174 14.4136H0.0117188C0.370687 21.676 6.37157 27.4545 13.7225 27.4545Z" fill="#838E9E"/>
    <path d="M0 13.0409H6.02215C7.39625 13.0409 8.81977 12.9572 9.98934 12.2365C10.9036 11.6732 11.6732 10.9036 12.2365 9.98934C12.9572 8.81978 13.0409 7.39626 13.0409 6.02216V0H4.11818C3.02597 0 1.9785 0.433879 1.20619 1.20619C0.433879 1.9785 0 3.02597 0 4.11819L0 13.0409ZM31.885 1.37273C31.885 1.7368 31.7404 2.08596 31.483 2.34339C31.2255 2.60083 30.8764 2.74546 30.5123 2.74546C30.1482 2.74546 29.7991 2.60083 29.5416 2.34339C29.2842 2.08596 29.1396 1.7368 29.1396 1.37273C29.1396 1.00866 29.2842 0.659499 29.5416 0.402063C29.7991 0.144626 30.1482 0 30.5123 0C30.8764 0 31.2255 0.144626 31.483 0.402063C31.7404 0.659499 31.885 1.00866 31.885 1.37273ZM145.311 8.30775C149.148 8.30775 151 10.988 151 14.0924V19.9231H146.984V14.7843C146.984 13.3772 146.471 12.2159 144.998 12.2159C143.526 12.2159 143.035 13.3772 143.035 14.7843V19.9224H139.02V14.7843C139.02 13.3772 138.529 12.2159 137.056 12.2159C135.584 12.2159 135.07 13.3772 135.07 14.7843V19.9224H131.055V14.0917C131.055 10.9873 132.906 8.30707 136.744 8.30707C138.841 8.30707 140.358 9.13345 141.05 10.4959C141.786 9.13345 143.392 8.30638 145.311 8.30638V8.30775ZM123.839 16.3492C125.132 16.3492 125.69 15.1652 125.69 13.7575V8.75389H129.706V14.2489C129.706 17.5325 127.787 20.258 123.839 20.258C119.889 20.258 117.971 17.5332 117.971 14.2489V8.75389H121.987V13.7575C121.987 15.1645 122.544 16.3492 123.839 16.3492ZM112.066 20.28C109.545 20.28 107.916 19.409 106.957 17.7116L109.857 16.0808C110.259 16.7953 110.861 17.1529 111.865 17.1529C112.691 17.1529 113.069 16.8626 113.069 16.505C113.069 15.1426 107.18 16.5276 107.18 12.1946C107.18 10.0944 108.964 8.39698 111.999 8.39698C114.654 8.39698 116.104 9.69215 116.751 10.9434L113.851 12.5962C113.606 11.9263 112.846 11.5241 112.088 11.5241C111.508 11.5241 111.196 11.7698 111.196 12.1047C111.196 13.4898 117.085 12.2166 117.085 16.4158C117.085 18.7611 114.787 20.28 112.066 20.28ZM98.0354 25.0605H94.0195V14.3162C94.0195 10.8981 96.5851 8.41894 100.155 8.41894C103.635 8.41894 106.29 11.0772 106.29 14.3162C106.29 17.8901 103.925 20.258 100.378 20.258C99.5522 20.258 98.7272 20.0123 98.0354 19.6321V25.0605ZM100.155 16.483C101.427 16.483 102.274 15.5002 102.274 14.3381C102.274 13.1549 101.427 12.1939 100.155 12.1939C98.883 12.1939 98.0354 13.1549 98.0354 14.3388C98.0354 15.5002 98.883 16.483 100.155 16.483ZM89.9967 7.5706C88.6802 7.5706 87.5875 6.47585 87.5875 5.15803C87.5875 3.84021 88.6802 2.74546 89.9967 2.74546C91.3131 2.74546 92.4065 3.84021 92.4065 5.15803C92.4065 6.47585 91.3131 7.5706 89.9967 7.5706ZM87.9891 8.75389H92.005V19.9231H87.9891V8.75389ZM80.284 20.258C76.8034 20.258 74.1486 17.5778 74.1486 14.3162C74.1486 11.0772 76.8034 8.39698 80.284 8.39698C83.7645 8.39698 86.4194 11.0772 86.4194 14.3162C86.4194 17.5778 83.7645 20.258 80.284 20.258ZM80.284 16.483C81.5558 16.483 82.4034 15.5002 82.4034 14.3381C82.4034 13.1549 81.5558 12.172 80.284 12.172C79.0121 12.172 78.1645 13.1549 78.1645 14.3381C78.1645 15.5002 79.0121 16.483 80.284 16.483ZM66.5656 25.3955C63.7996 25.3955 61.7913 24.1669 60.7651 21.9774L64.0892 20.1908C64.4461 20.9506 65.1153 21.7323 66.4983 21.7323C67.9493 21.7323 68.9082 20.8161 69.02 19.2079C68.4847 19.6774 67.6363 20.0343 66.3652 20.0343C63.2635 20.0343 60.7645 17.6444 60.7645 14.2935C60.7645 11.0553 63.42 8.41894 66.9006 8.41894C70.4703 8.41894 73.036 10.8988 73.036 14.3162V18.7391C73.036 22.7598 70.2466 25.3955 66.5656 25.3955ZM66.8333 16.26C68.0379 16.26 68.9528 15.4329 68.9528 14.2043C68.9528 12.9984 68.0385 12.1939 66.8333 12.1939C65.6507 12.1939 64.7138 12.9984 64.7138 14.205C64.7138 15.4336 65.6507 16.2593 66.8333 16.2593V16.26ZM53.953 20.258C50.4724 20.258 47.8169 17.5778 47.8169 14.3162C47.8169 11.0772 50.4724 8.39698 53.953 8.39698C57.4328 8.39698 60.0884 11.0772 60.0884 14.3162C60.0884 17.5778 57.4335 20.258 53.953 20.258ZM53.953 16.483C55.2248 16.483 56.0725 15.5002 56.0725 14.3381C56.0725 13.1549 55.2248 12.172 53.953 12.172C52.6812 12.172 51.8335 13.1549 51.8335 14.3381C51.8335 15.5002 52.6812 16.483 53.953 16.483ZM40.5044 4.84573V16.1254H47.1532V19.9231H39.9464C37.4034 19.9231 36.3773 18.5826 36.3773 16.4604V4.84573H40.5044Z" fill="#838E9E"/>
  </g>
  <defs>
    <clipPath id="clip0_4201_4567">
      <rect width="151" height="27.4545" fill="white"/>
    </clipPath>
  </defs>
</svg>