<svg width="60" height="60" viewBox="0 0 60 60" fill="none" xmlns="http://www.w3.org/2000/svg">
<rect width="60" height="60" rx="16" fill="#2E4E4D"/>
<path d="M34.6828 20.2942C34.7869 20.1901 34.8577 20.0575 34.8865 19.9131C34.9152 19.7687 34.9005 19.6191 34.8442 19.4831C34.7878 19.3471 34.6925 19.2308 34.5701 19.149C34.4477 19.0671 34.3039 19.0234 34.1567 19.0233H32.2765C32.1309 19.0233 31.9885 18.9805 31.867 18.9004C31.7455 18.8202 31.6501 18.7061 31.5927 18.5723L30.6843 16.4512C30.6269 16.3173 30.5316 16.2032 30.41 16.123C30.2884 16.0428 30.1459 16 30.0003 16C29.8546 16 29.7122 16.0428 29.5906 16.123C29.469 16.2032 29.3737 16.3173 29.3163 16.4512L28.4076 18.5723C28.3503 18.7062 28.255 18.8203 28.1334 18.9004C28.0118 18.9806 27.8694 19.0233 27.7238 19.0233H25.8439C25.6967 19.0234 25.5528 19.0671 25.4304 19.1489C25.308 19.2307 25.2126 19.347 25.1563 19.483C25.0999 19.619 25.0852 19.7687 25.1139 19.9131C25.1426 20.0574 25.2135 20.1901 25.3176 20.2942L26.7258 21.7029C26.8167 21.7938 26.8825 21.9067 26.9168 22.0306C26.9512 22.1545 26.9528 22.2852 26.9216 22.4099L26.256 25.0727C26.2206 25.2143 26.2276 25.363 26.2761 25.5006C26.3245 25.6382 26.4123 25.7585 26.5286 25.8466C26.6449 25.9347 26.7844 25.9867 26.93 25.9961C27.0756 26.0056 27.2207 25.972 27.3473 25.8997L29.631 24.5941C29.7435 24.5299 29.8707 24.4961 30.0002 24.4961C30.1297 24.4961 30.2569 24.5299 30.3693 24.5941L32.6533 25.8997C32.7799 25.972 32.925 26.0055 33.0706 25.9961C33.2161 25.9867 33.3557 25.9347 33.4719 25.8466C33.5882 25.7585 33.6759 25.6382 33.7244 25.5006C33.7728 25.363 33.7797 25.2142 33.7443 25.0727L33.0788 22.4099C33.0476 22.2852 33.0493 22.1545 33.0836 22.0306C33.1179 21.9067 33.1837 21.7938 33.2746 21.7029L34.6828 20.2942Z" fill="#D2FD84"/>
<path d="M18.0372 26.1279L17.5049 28.2583C17.4766 28.3715 17.4821 28.4905 17.5209 28.6005C17.5596 28.7106 17.6299 28.8068 17.7228 28.8773C17.8158 28.9478 17.9275 28.9894 18.0439 28.9969C18.1604 29.0044 18.2765 28.9776 18.3777 28.9197L20.2046 27.8752C20.2946 27.8239 20.3965 27.7969 20.5001 27.7969C20.6037 27.7969 20.7055 27.8239 20.7955 27.8752L22.6226 28.9197C22.7239 28.9776 22.84 29.0044 22.9564 28.9969C23.0728 28.9894 23.1845 28.9478 23.2774 28.8773C23.3704 28.8068 23.4406 28.7106 23.4793 28.6005C23.5181 28.4905 23.5236 28.3714 23.4952 28.2583L22.9629 26.1279C22.938 26.0282 22.9393 25.9236 22.9667 25.8245C22.9942 25.7254 23.0468 25.6351 23.1194 25.5624L24.2461 24.4353C24.3294 24.352 24.3861 24.2459 24.4091 24.1304C24.4321 24.0149 24.4203 23.8952 24.3752 23.7864C24.3302 23.6776 24.2539 23.5846 24.156 23.5192C24.0581 23.4537 23.943 23.4187 23.8253 23.4187H22.3213C22.2048 23.4187 22.0908 23.3845 21.9935 23.3203C21.8962 23.2561 21.8199 23.1648 21.774 23.0577L21.0472 21.361C21.0013 21.2539 20.9251 21.1625 20.8278 21.0984C20.7305 21.0342 20.6166 21 20.5001 21C20.3835 21 20.2696 21.0342 20.1723 21.0984C20.0751 21.1625 19.9988 21.2539 19.9529 21.361L19.2261 23.0577C19.1802 23.1649 19.1039 23.2562 19.0066 23.3203C18.9093 23.3845 18.7953 23.4187 18.6788 23.4187H17.1749C17.0571 23.4188 16.942 23.4537 16.8441 23.5192C16.7462 23.5846 16.6699 23.6776 16.6249 23.7865C16.5798 23.8953 16.5681 24.015 16.591 24.1305C16.614 24.246 16.6707 24.352 16.754 24.4353L17.8807 25.5624C17.9533 25.6351 18.0059 25.7255 18.0334 25.8246C18.0608 25.9237 18.0621 26.0282 18.0372 26.1279Z" fill="#D2FD84"/>
<path d="M42.8941 23.4187H41.3902C41.2737 23.4187 41.1597 23.3845 41.0624 23.3203C40.9652 23.2561 40.8889 23.1648 40.8431 23.0577L40.116 21.361C40.0702 21.2539 39.9939 21.1625 39.8966 21.0984C39.7994 21.0342 39.6854 21 39.5689 21C39.4524 21 39.3384 21.0342 39.2412 21.0984C39.1439 21.1625 39.0676 21.2539 39.0218 21.361L38.2947 23.0578C38.2489 23.1649 38.1727 23.2562 38.0755 23.3203C37.9783 23.3845 37.8643 23.4187 37.7479 23.4188H36.2439C36.1262 23.4188 36.011 23.4537 35.9131 23.5191C35.8152 23.5846 35.7389 23.6776 35.6938 23.7864C35.6487 23.8952 35.6369 24.0149 35.6599 24.1304C35.6828 24.246 35.7395 24.3521 35.8228 24.4354L36.9495 25.5624C37.0222 25.6352 37.0749 25.7255 37.1023 25.8246C37.1297 25.9237 37.131 26.0282 37.106 26.128L36.5735 28.2584C36.5452 28.3716 36.5508 28.4906 36.5896 28.6006C36.6284 28.7107 36.6986 28.8069 36.7916 28.8774C36.8846 28.9478 36.9963 28.9894 37.1127 28.997C37.2292 29.0045 37.3453 28.9776 37.4466 28.9197L39.2735 27.8753C39.3635 27.8239 39.4653 27.7969 39.5689 27.7969C39.6725 27.7969 39.7743 27.8239 39.8643 27.8753L41.6912 28.9197C41.7925 28.9776 41.9086 29.0045 42.025 28.9969C42.1415 28.9894 42.2531 28.9478 42.3461 28.8774C42.4391 28.8069 42.5094 28.7107 42.5482 28.6006C42.5869 28.4906 42.5925 28.3716 42.5642 28.2584L42.0317 26.128C42.0068 26.0282 42.0081 25.9237 42.0355 25.8246C42.063 25.7255 42.1156 25.6352 42.1882 25.5624L43.315 24.4353C43.3983 24.352 43.455 24.2459 43.4779 24.1304C43.5009 24.0149 43.4891 23.8952 43.4441 23.7864C43.399 23.6776 43.3227 23.5846 43.2248 23.5191C43.127 23.4537 43.0119 23.4187 42.8941 23.4187Z" fill="#D2FD84"/>
<path d="M21.3435 33.8491H23.0018C23.2666 33.8491 23.5204 33.9543 23.7076 34.1415C23.8948 34.3287 24 34.5826 24 34.8473V42.6671C24 42.9319 23.8948 43.1858 23.7076 43.373C23.5204 43.5602 23.2665 43.6654 23.0017 43.6654H21.3435C21.0787 43.6654 20.8248 43.5602 20.6376 43.373C20.4504 43.1858 20.3452 42.9319 20.3452 42.6671V34.8474C20.3452 34.7163 20.371 34.5865 20.4212 34.4654C20.4714 34.3443 20.5449 34.2342 20.6376 34.1415C20.7303 34.0488 20.8404 33.9753 20.9615 33.9251C21.0826 33.8749 21.2124 33.8491 21.3435 33.8491Z" fill="#D2FD84"/>
<path d="M33.9102 34.9399H31.25L33.03 29.6099C33.0777 29.4613 33.1013 29.306 33.1001 29.1499C33.1026 28.8469 33.0118 28.5504 32.84 28.3007C32.6682 28.051 32.4238 27.8602 32.1398 27.7543C31.8558 27.6483 31.5461 27.6323 31.2528 27.7085C30.9594 27.7846 30.6966 27.9492 30.5 28.1799L25.2334 34.3354C25.0777 34.5155 24.9923 34.7459 24.9932 34.9841C24.9988 36.2563 24.9998 40.5082 25 42.106C25.0001 42.2912 25.0518 42.4726 25.1495 42.6299C25.2472 42.7872 25.3868 42.9141 25.5527 42.9963L25.74 43.09C26.5024 43.4714 27.3431 43.6699 28.1956 43.6698H32.8201C33.3073 43.6669 33.7798 43.5023 34.1635 43.2019C34.5471 42.9015 34.8202 42.4823 34.9399 42.0099L36.03 37.6499C36.1099 37.3281 36.1155 36.9923 36.0463 36.668C35.9771 36.3437 35.835 36.0394 35.6307 35.7782C35.4264 35.517 35.1653 35.3058 34.8672 35.1605C34.569 35.0153 34.2418 34.9398 33.9102 34.9399Z" fill="#D2FD84"/>
</svg>
