<svg width="60" height="60" viewBox="0 0 60 60" fill="none" xmlns="http://www.w3.org/2000/svg">
<rect width="60" height="60" rx="16" fill="#2E4E4D"/>
<g clip-path="url(#clip0_4192_16099)">
<path d="M43.4259 16.0034C37.9601 15.9054 31.7266 18.7626 27.7809 23.1948C24.0102 23.2659 20.3387 24.8118 17.6356 27.5149C17.4781 27.6701 17.4221 27.9023 17.4909 28.1123C17.5609 28.3234 17.7429 28.4763 17.9622 28.5078L22.4586 29.1518L21.9032 29.7736C21.6967 30.0046 21.7072 30.3558 21.9266 30.5751L29.4247 38.0733C29.5379 38.1864 29.6872 38.2436 29.8377 38.2436C29.9766 38.2436 30.1154 38.1946 30.2262 38.0954L30.8481 37.5401L31.4921 42.0364C31.5236 42.2558 31.6962 42.4168 31.9051 42.4868C31.9587 42.5043 32.0147 42.5124 32.0719 42.5124C32.2376 42.5124 32.4067 42.4401 32.5234 42.3246C35.1892 39.6588 36.7351 35.9873 36.8062 32.2166C41.2431 28.2628 44.1236 22.0316 43.9964 16.5728C43.9882 16.2624 43.7374 16.0116 43.4259 16.0034ZM38.0499 26.0741C37.4817 26.6423 36.7351 26.9269 35.9872 26.9269C35.2394 26.9269 34.4927 26.6423 33.9246 26.0741C32.7882 24.9366 32.7882 23.0863 33.9246 21.9488C35.0621 20.8113 36.9124 20.8113 38.0499 21.9488C39.1874 23.0863 39.1874 24.9378 38.0499 26.0741Z" fill="#D2FD84"/>
<path d="M19.1781 35.7224C17.9297 36.9707 16.2159 42.6104 16.0246 43.2486C15.9627 43.4539 16.0199 43.6767 16.1704 43.8284C16.2824 43.9404 16.4306 43.9999 16.5834 43.9999C16.6394 43.9999 16.6954 43.9917 16.7514 43.9754C17.3896 43.7841 23.0292 42.0702 24.2776 40.8219C25.6834 39.4161 25.6834 37.1282 24.2776 35.7224C22.8706 34.3166 20.5839 34.3177 19.1781 35.7224Z" fill="#D2FD84"/>
</g>
<defs>
<clipPath id="clip0_4192_16099">
<rect width="28" height="28" fill="white" transform="translate(16 16)"/>
</clipPath>
</defs>
</svg>
