<svg width="60" height="60" viewBox="0 0 60 60" fill="none" xmlns="http://www.w3.org/2000/svg">
<rect width="60" height="60" rx="16" fill="#2E4E4D"/>
<g clip-path="url(#clip0_4192_16110)">
<path d="M23.4397 34.5521C23.4397 32.6325 21.878 31.0708 19.9584 31.0708C15.34 31.2621 15.3413 37.8428 19.9584 38.0333C21.878 38.0333 23.4397 36.4716 23.4397 34.5521Z" fill="#D2FD84"/>
<path d="M43.5232 34.5521C43.5232 32.6325 41.9615 31.0708 40.0419 31.0708C35.4235 31.2621 35.4248 37.8428 40.0419 38.0333C41.9615 38.0333 43.5232 36.4716 43.5232 34.5521Z" fill="#D2FD84"/>
<path d="M33.4812 34.5521C33.4812 32.6325 31.9195 31.0708 29.9999 31.0708C25.3815 31.2621 25.3828 37.8428 29.9999 38.0333C31.9195 38.0333 33.4812 36.4716 33.4812 34.5521Z" fill="#D2FD84"/>
<path d="M23.6925 39.3521C19.8744 36.2242 13.9768 39.0131 14.0001 43.9915V45.0622C14.0001 45.58 14.4198 45.9997 14.9376 45.9997H22.328C22.2239 45.7063 22.1668 45.3909 22.1668 45.0622V43.9914C22.1668 42.2564 22.7341 40.6516 23.6925 39.3521Z" fill="#D2FD84"/>
<path d="M40.0417 38.0332C38.6291 38.0332 37.33 38.5277 36.3076 39.3522C37.2661 40.6518 37.8334 42.2565 37.8334 43.9915V45.0623C37.8334 45.391 37.7762 45.7064 37.6721 45.9998H45.0626C45.5803 45.9998 46.0001 45.5801 46.0001 45.0623V43.9915C46.0001 40.7061 43.3272 38.0332 40.0417 38.0332Z" fill="#D2FD84"/>
<path d="M29.9998 38.0332C26.7144 38.0332 24.0415 40.7061 24.0415 43.9915V45.0623C24.0415 45.5801 24.4613 45.9998 24.979 45.9998H35.0207C35.5384 45.9998 35.9582 45.5801 35.9582 45.0623V43.9915C35.9581 40.7061 33.2853 38.0332 29.9998 38.0332Z" fill="#D2FD84"/>
<path d="M22.6297 14.2746C22.2636 13.9085 21.67 13.9084 21.3039 14.2746C20.9378 14.6407 20.9378 15.2343 21.3039 15.6004L22.308 16.6046C22.6742 16.9708 23.2678 16.9706 23.6338 16.6046C24 16.2384 24 15.6449 23.6338 15.2788L22.6297 14.2746Z" fill="#D2FD84"/>
<path d="M22.308 22.3078L21.3038 23.312C20.9378 23.6781 20.9378 24.2717 21.3038 24.6378C21.6701 25.004 22.2637 25.0038 22.6297 24.6378L23.6338 23.6336C23.9998 23.2675 23.9998 22.6739 23.6338 22.3078C23.2677 21.9417 22.6742 21.9417 22.308 22.3078Z" fill="#D2FD84"/>
<path d="M20.0952 20.3936H21.5153C22.7592 20.344 22.7582 18.5676 21.5153 18.5186H20.0952C18.8513 18.5681 18.8522 20.3445 20.0952 20.3936Z" fill="#D2FD84"/>
<path d="M37.6922 16.6045L38.6963 15.6004C39.0624 15.2342 39.0624 14.6407 38.6963 14.2745C38.3302 13.9085 37.7366 13.9085 37.3705 14.2745L36.3663 15.2787C36.0003 15.6449 36.0003 16.2384 36.3663 16.6045C36.7325 16.9705 37.326 16.9707 37.6922 16.6045Z" fill="#D2FD84"/>
<path d="M37.3705 24.6378C37.7365 25.0038 38.3301 25.004 38.6963 24.6378C39.0625 24.2717 39.0625 23.6781 38.6963 23.312L37.6922 22.3078C37.3261 21.9417 36.7325 21.9417 36.3664 22.3078C36.0003 22.6739 36.0003 23.2675 36.3664 23.6336L37.3705 24.6378Z" fill="#D2FD84"/>
<path d="M37.5474 19.4561C37.5474 19.9738 37.9671 20.3936 38.4849 20.3936H39.905C41.1489 20.344 41.1479 18.5676 39.905 18.5186H38.4849C37.9671 18.5186 37.5474 18.9383 37.5474 19.4561Z" fill="#D2FD84"/>
<path d="M27.0542 25.9834C27.2165 29.8924 32.7851 29.8894 32.9459 25.9834V25.8501H27.0542V25.9834Z" fill="#D2FD84"/>
<path d="M27.0545 23.975H32.9461C32.9461 23.3765 33.1799 22.8061 33.5888 22.3686C36.5801 19.2518 34.3223 13.9885 30.0002 14C25.6783 13.9885 23.4202 19.2525 26.4118 22.3686C26.8206 22.8061 27.0545 23.3765 27.0545 23.975Z" fill="#D2FD84"/>
</g>
<defs>
<clipPath id="clip0_4192_16110">
<rect width="32" height="32" fill="white" transform="translate(14 14)"/>
</clipPath>
</defs>
</svg>
