<svg width="60" height="60" viewBox="0 0 60 60" fill="none" xmlns="http://www.w3.org/2000/svg">
<rect width="60" height="60" rx="16" fill="#2E4E4D"/>
<g clip-path="url(#clip0_4192_16133)">
<path fill-rule="evenodd" clip-rule="evenodd" d="M24.1284 39.1164L23.157 40.7983C22.911 41.2251 22.363 41.3718 21.937 41.1258C21.5121 40.8807 21.3645 40.3299 21.6099 39.9051L22.581 38.223C22.8274 37.7961 23.375 37.6494 23.8019 37.8958C24.2278 38.1425 24.3752 38.6896 24.1284 39.1164V39.1164ZM26.1425 39.2473C26.0024 39.1666 25.849 39.1281 25.6973 39.1281C25.3885 39.1281 25.0875 39.2883 24.9225 39.5745L23.3477 42.3019C23.1013 42.7281 23.249 43.2762 23.6748 43.5225C24.101 43.7689 24.6487 43.6222 24.8948 43.1954L26.4697 40.468C26.7157 40.0411 26.569 39.4941 26.1425 39.2474L26.1425 39.2473ZM19.9041 28.1202C19.9402 28.0898 19.9352 28.0375 19.8937 28.0148L18.2242 27.086C18.1033 27.0194 17.9727 27.0299 17.8642 27.1148C15.3952 29.0622 14.0175 32.5029 14.5882 35.2952C14.6108 35.4083 14.6735 35.4847 14.7797 35.5296L16.0896 36.0858C16.1335 36.1041 16.1785 36.0754 16.1785 36.0274C16.2107 32.8791 17.4988 30.1452 19.9041 28.1201V28.1202ZM28.8985 41.1421C28.8364 40.9103 28.689 40.7178 28.4837 40.5986C28.3436 40.5181 28.1897 40.4796 28.0385 40.4796C27.7297 40.4796 27.4287 40.6399 27.263 40.926L25.9503 43.2002C25.723 43.6234 25.872 44.1554 26.291 44.397C26.4964 44.5156 26.7368 44.5469 26.9684 44.4847C27.2 44.4225 27.3924 44.2752 27.5117 44.0698L28.8108 41.8195C28.9295 41.6138 28.9607 41.3737 28.8985 41.1421ZM38.4277 37.4844L34.2387 35.0653C33.4207 34.5922 32.6575 34.1478 31.6805 34.1478C30.8072 34.1529 30.0172 34.539 29.2528 34.9129C28.047 35.5019 26.6804 36.1694 25.2052 34.9482C24.7862 34.6005 24.5468 34.0809 24.5793 33.5901C24.6095 33.1399 24.8588 32.7464 25.2818 32.4827L28.7246 30.3369C27.7197 29.8372 26.7947 29.9171 25.7503 30.0081C24.3713 30.127 22.8081 30.2633 20.789 29.1276L20.3952 28.9058C18.2843 30.7252 17.1757 33.0566 17.0989 35.8397L20.4297 37.5573C20.477 37.5813 20.5192 37.6135 20.5552 37.6523L21.3553 38.5129L21.7878 37.7646C22.2866 36.9008 23.3952 36.6036 24.2599 37.1024C24.7249 37.3708 25.0255 37.8159 25.1264 38.3046C25.5999 38.1478 26.1355 38.1856 26.6005 38.4539C27.0657 38.7223 27.3666 39.1675 27.4676 39.6561C27.9412 39.4993 28.477 39.5371 28.9417 39.8055C29.3594 40.0466 29.6578 40.4371 29.7834 40.9046C29.7927 40.939 29.8008 40.9734 29.808 41.0079C30.2816 40.8509 30.8177 40.8887 31.2829 41.157C31.6269 41.3558 31.8906 41.6564 32.0429 42.0183L34.062 43.1834C34.4542 43.4107 34.9635 43.2745 35.1899 42.8818C35.4117 42.4966 35.2855 41.9969 34.9062 41.7649L32.4341 40.3371C32.2152 40.2106 32.1398 39.9308 32.2659 39.7115C32.393 39.4919 32.6732 39.4174 32.8925 39.5436C33.848 40.0954 34.8037 40.6472 35.7593 41.1989C36.1931 41.4498 36.7502 41.3005 37.0007 40.8664C37.2478 40.4388 37.1022 39.8828 36.6779 39.6306L34.2513 38.2299C34.0327 38.1031 33.9572 37.8229 34.0837 37.6037C34.2105 37.3844 34.4907 37.3096 34.7093 37.4362C35.653 37.9809 36.5966 38.5257 37.5402 39.0704C37.9722 39.3197 38.532 39.17 38.7813 38.7379C39.0582 38.259 38.8425 37.7873 38.4277 37.4844V37.4844ZM42.1365 27.1148C42.0747 27.0671 42.0068 27.0422 41.9368 27.0422C41.8829 27.0422 41.8287 27.0573 41.7763 27.086L40.1061 28.0148C40.0831 28.0278 40.0758 28.0385 40.0733 28.0653C40.0708 28.0915 40.0758 28.1031 40.0963 28.1202C42.5016 30.1453 43.7897 32.8793 43.8219 36.0275C43.8219 36.0755 43.867 36.1043 43.9108 36.0859L45.2204 35.5297C45.3264 35.4849 45.3888 35.4079 45.4122 35.2953C45.983 32.503 44.6052 29.0623 42.1365 27.1148ZM39.595 28.8973L38.7753 29.3534C37.4232 30.1056 35.9158 30.2415 34.4163 29.7474C33.0888 29.3102 31.6968 29.5635 30.1585 30.5223L25.7667 33.2604C25.5932 33.3689 25.5042 33.4964 25.4938 33.6516C25.4799 33.8506 25.5966 34.0822 25.7893 34.2421C26.7623 35.0479 27.5469 34.7264 28.8502 34.0894C29.667 33.6901 30.5933 33.2379 31.6744 33.2313C32.8553 33.2313 33.709 33.7004 34.6977 34.2721L38.9068 36.7029C39.1198 36.8224 39.4005 37.1146 39.532 37.3239L42.8993 35.7662C42.8051 33.0113 41.6939 30.702 39.595 28.8973ZM32.8549 43.545L32.1413 43.133C32.1015 43.3051 32.036 43.4721 31.9454 43.6291L31.4605 44.4691L31.8432 44.6844C32.5136 45.0711 32.9509 44.8611 33.138 44.5371C33.3081 44.2421 33.2897 43.8094 32.855 43.545H32.8549ZM30.8248 41.9504C30.3992 41.7071 29.8525 41.8483 29.6042 42.2776L28.6328 43.9604C28.3869 44.3863 28.5343 44.9348 28.9599 45.1808C29.3868 45.4268 29.9338 45.2801 30.1802 44.8539L31.1513 43.1711C31.3979 42.7462 31.2487 42.1966 30.8248 41.9504ZM23.4443 21.2561C23.4443 17.6354 26.3795 14.7002 30.0002 14.7002C33.6209 14.7002 36.5562 17.6354 36.5562 21.2561C36.5562 24.8768 33.621 27.8121 30.0002 27.8121C26.3795 27.8121 23.4443 24.8769 23.4443 21.2561ZM26.1578 21.2868L27.6898 23.9403C27.8431 24.2058 28.0877 24.3693 28.3918 24.4093C28.6958 24.4493 28.9745 24.3548 29.1912 24.1379L33.7 19.6291C34.05 19.2792 34.05 18.7064 33.7 18.3565C33.3501 18.0066 32.7774 18.0066 32.4274 18.3565L28.6976 22.0863L27.7165 20.3869C27.4693 19.9589 26.9152 19.8104 26.4872 20.0576C26.0586 20.305 25.9103 20.8582 26.1578 21.2868L26.1578 21.2868ZM39.4588 19.5206C39.5852 18.2477 40.5921 17.2408 41.865 17.1144C40.5921 16.988 39.5852 15.9811 39.4588 14.7081C39.3324 15.9811 38.3255 16.988 37.0525 17.1144C38.3255 17.2408 39.3324 18.2477 39.4588 19.5206ZM20.1752 25.0633C20.2786 24.0218 21.1025 23.1979 22.144 23.0945C21.1025 22.9911 20.2786 22.1673 20.1752 21.1258C20.0718 22.1673 19.248 22.9911 18.2065 23.0945C19.248 23.1979 20.0718 24.0218 20.1752 25.0633Z" fill="#D2FD84"/>
</g>
<defs>
<clipPath id="clip0_4192_16133">
<rect width="32" height="32" fill="white" transform="translate(14 14)"/>
</clipPath>
</defs>
</svg>
