<svg width="60" height="60" viewBox="0 0 60 60" fill="none" xmlns="http://www.w3.org/2000/svg">
<rect width="60" height="60" rx="16" fill="#2E4E4D"/>
<path d="M22.0122 22.6666C22.0122 21.6118 22.325 20.5806 22.911 19.7035C23.497 18.8265 24.33 18.1429 25.3045 17.7392C26.2791 17.3356 27.3514 17.2299 28.386 17.4357C29.4205 17.6415 30.3709 18.1495 31.1167 18.8954C31.8626 19.6412 32.3706 20.5915 32.5764 21.6261C32.7821 22.6607 32.6765 23.733 32.2729 24.7076C31.8692 25.6821 31.1856 26.5151 30.3085 27.1011C29.4315 27.6871 28.4003 27.9999 27.3455 27.9999C25.931 27.9999 24.5745 27.438 23.5743 26.4378C22.5741 25.4376 22.0122 24.0811 22.0122 22.6666ZM31.4668 39.0933C31.1136 38.7638 30.8619 38.3403 30.7414 37.8725C30.621 37.4048 30.6367 36.9123 30.7868 36.4533C30.9328 35.9878 31.2086 35.5737 31.5817 35.2596C31.9549 34.9455 32.41 34.7444 32.8935 34.6799L34.5602 34.4399C34.5602 34.4399 34.8268 34.4146 34.9068 34.2533L35.4402 33.1866C35.4829 33.1094 35.5014 33.0211 35.4935 32.9333C35.4769 32.8581 35.44 32.7889 35.3868 32.7333C34.6857 32.0281 33.8432 31.4794 32.9147 31.1232C31.9863 30.767 30.993 30.6114 30.0002 30.6666H24.6668C19.2535 30.6666 17.3335 34.6266 17.3335 38.0266C17.3335 41.0666 18.9468 42.6666 22.0002 42.6666H32.1202C32.3335 42.6666 32.4695 42.5066 32.5335 42.1599L32.8002 40.6266C32.8145 40.5613 32.8108 40.4934 32.7897 40.4301C32.7686 40.3667 32.7307 40.3102 32.6802 40.2666L31.4668 39.0933ZM43.1562 37.6519C43.235 37.576 43.2908 37.4794 43.3171 37.3731C43.3433 37.2669 43.339 37.1554 43.3045 37.0515C43.2701 36.9476 43.2069 36.8556 43.1224 36.786C43.0379 36.7165 42.9354 36.6723 42.8268 36.6586L40.1708 36.2813C40.0762 36.2681 39.9861 36.2323 39.9083 36.1768C39.8306 36.1213 39.7674 36.0478 39.7242 35.9626L38.5722 33.6799C38.5182 33.5753 38.4365 33.4875 38.3359 33.4262C38.2354 33.365 38.1199 33.3325 38.0022 33.3325C37.8844 33.3325 37.7689 33.365 37.6684 33.4262C37.5679 33.4875 37.4861 33.5753 37.4322 33.6799L36.2815 35.9626C36.2382 36.0477 36.175 36.1212 36.0972 36.1767C36.0194 36.2321 35.9294 36.268 35.8348 36.2813L33.1788 36.6586C33.07 36.6718 32.9671 36.7157 32.8822 36.7852C32.7973 36.8547 32.734 36.9468 32.6995 37.0509C32.6649 37.155 32.6607 37.2668 32.6873 37.3732C32.7138 37.4796 32.7701 37.5763 32.8495 37.6519L34.7695 39.4839C34.8387 39.5492 34.8906 39.6307 34.9206 39.721C34.9506 39.8112 34.9578 39.9075 34.9415 40.0013L34.5028 42.5066C34.4843 42.6227 34.4985 42.7417 34.5439 42.8502C34.5894 42.9587 34.6641 43.0524 34.7599 43.1207C34.8556 43.189 34.9685 43.2292 35.0859 43.2368C35.2032 43.2445 35.3204 43.2192 35.4242 43.1639L37.7268 41.9799C37.8122 41.9358 37.9068 41.9128 38.0028 41.9128C38.0989 41.9128 38.1935 41.9358 38.2788 41.9799L40.5828 43.1653C40.6866 43.2202 40.8036 43.2452 40.9207 43.2373C41.0379 43.2295 41.1505 43.1892 41.246 43.121C41.3415 43.0527 41.4162 42.9592 41.4615 42.8509C41.5069 42.7426 41.5212 42.6239 41.5028 42.5079L41.0668 39.9999C41.0506 39.9063 41.0577 39.8101 41.0875 39.7199C41.1172 39.6297 41.1688 39.5482 41.2375 39.4826L43.1562 37.6519Z" fill="#D2FD84"/>
</svg>
