<svg width="60" height="60" viewBox="0 0 60 60" fill="none" xmlns="http://www.w3.org/2000/svg">
<rect width="60" height="60" rx="16" fill="#2E4E4D"/>
<path d="M38.4754 41.3913H41.9674C43.0205 41.3913 43.8772 42.1711 43.8772 43.1296V45.1875H36.5636V43.1296C36.5636 42.1711 37.4212 41.3913 38.4754 41.3913ZM19.7799 35.8799C20.0563 35.8799 20.2795 35.6566 20.2795 35.3803C20.2795 35.1056 20.0563 34.8806 19.7799 34.8806C19.5052 34.8806 19.2802 35.1056 19.2802 35.3803C19.2802 35.6566 19.5052 35.8799 19.7799 35.8799ZM29.9984 32.3995C30.2747 32.3995 30.4997 32.1763 30.4997 31.8999C30.4997 31.6252 30.2747 31.4003 29.9984 31.4003C29.7237 31.4003 29.4987 31.6252 29.4987 31.8999C29.4987 32.1763 29.7237 32.3995 29.9984 32.3995ZM40.2178 35.8799C40.4924 35.8799 40.7174 35.6566 40.7174 35.3803C40.7174 35.1056 40.4924 34.8806 40.2178 34.8806C39.9414 34.8806 39.7164 35.1056 39.7164 35.3803C39.7164 35.6566 39.9414 35.8799 40.2178 35.8799ZM29.9984 33.1012C28.6517 33.1012 27.5562 34.1976 27.5562 35.5453C27.5562 36.8642 28.2192 38.9564 29.9984 38.9564C31.7775 38.9564 32.4424 36.8641 32.4424 35.5453C32.4424 34.1976 31.346 33.1012 29.9984 33.1012ZM35.562 45.1876V42.6227C35.562 41.0987 34.2093 39.8588 32.5467 39.8588H27.452C25.7894 39.8588 24.4367 41.0987 24.4367 42.6227V45.1876H26.2229V43.6579C26.2229 43.3818 26.4467 43.1579 26.7229 43.1579C26.999 43.1579 27.2229 43.3818 27.2229 43.6579V45.1876H32.7739V43.6579C32.7739 43.3818 32.9978 43.1579 33.2739 43.1579C33.55 43.1579 33.7739 43.3818 33.7739 43.6579V45.1876H35.562H35.562ZM41.7349 38.2457C41.7349 37.4087 41.0539 36.7278 40.217 36.7278C39.38 36.7278 38.699 37.4087 38.699 38.2457C38.699 38.9573 39.07 40.4266 40.217 40.4266C41.264 40.4266 41.7349 39.1513 41.7349 38.2457ZM16.123 43.1296V45.1876H23.4367V43.1296C23.4367 42.1711 22.5799 41.3914 21.5268 41.3914H18.0349C16.9807 41.3914 16.123 42.1712 16.123 43.1296ZM21.2978 38.2457C21.2978 37.4087 20.6168 36.7278 19.7799 36.7278C18.9429 36.7278 18.2619 37.4087 18.2619 38.2457C18.2619 39.1513 18.7329 40.4266 19.7799 40.4266C20.9268 40.4266 21.2978 38.9573 21.2978 38.2457ZM20.2799 33.5328V29.3236L22.5765 27.6831C22.8012 27.5226 22.8533 27.2103 22.6927 26.9856C22.5322 26.7608 22.2199 26.7088 21.9953 26.8693L19.4892 28.6593C19.3578 28.7531 19.2798 28.9047 19.2798 29.0662V33.5327C19.2798 33.8088 19.5037 34.0327 19.7798 34.0327C20.0559 34.0327 20.2798 33.8088 20.2798 33.5327L20.2799 33.5328ZM40.7204 33.5328V29.0663C40.7204 28.9047 40.6424 28.7531 40.5109 28.6593L38.0029 26.8696C37.7781 26.7093 37.4659 26.7614 37.3055 26.9861C37.1451 27.2109 37.1973 27.5231 37.422 27.6836L39.7204 29.3238V33.5328C39.7204 33.8089 39.9442 34.0328 40.2204 34.0328C40.4965 34.0328 40.7204 33.8089 40.7204 33.5328L40.7204 33.5328ZM31.4019 27.8603C31.4019 27.7277 31.4546 27.6005 31.5484 27.5068L34.0446 25.0105C34.1753 24.8799 34.2361 24.7325 34.2361 24.5469V22.1865C34.2361 21.9039 34.0712 21.6679 33.8057 21.5705L33.5566 21.4794L31.7466 22.1741C31.741 22.1762 31.7354 22.1777 31.7298 22.1796L30.3699 22.7009L30.5089 22.9409C30.6957 23.264 31.0496 23.4105 31.4102 23.3144L33.1545 22.8462C33.421 22.7746 33.6954 22.9328 33.767 23.1994C33.8387 23.4661 33.6805 23.7404 33.4138 23.812L32.4815 24.0623L32.5994 24.6443C32.6475 24.8817 32.5184 25.1195 32.2931 25.2085L30.8948 25.7611C30.4411 25.9394 30.2102 26.0681 30.1225 26.3181L29.9363 26.8464C29.8639 27.0519 29.6709 27.1803 29.4647 27.1803C29.4095 27.1803 29.3535 27.1711 29.2985 27.1517C29.038 27.0599 28.9014 26.7743 28.9932 26.5139L29.1792 25.9864C29.4337 25.261 30.0923 25.0021 30.5282 24.8308L31.5362 24.4324L31.5124 24.3148C30.7656 24.4473 30.0294 24.1094 29.6434 23.4416L29.3652 22.9611C29.3373 22.9638 29.3091 22.9654 29.2805 22.9654H28.8777C28.8965 23.1674 28.8437 23.3661 28.7249 23.5321C28.5946 23.7141 28.4017 23.8344 28.1819 23.8707C28.1549 23.8751 28.1277 23.8774 28.1004 23.8774H27.1509C26.7378 23.8774 26.4312 23.6429 26.37 23.2799L26.0197 21.2225C25.9734 20.9503 26.1564 20.692 26.4287 20.6457C26.7007 20.5995 26.9591 20.7824 27.0055 21.0547L27.3159 22.8774H27.8515L27.8056 22.6082C27.7947 22.5717 27.7884 22.5333 27.7861 22.4938L27.3396 19.8774L26.5399 20.0136C26.5268 20.0283 26.5025 20.0597 26.4657 20.1243L25.8506 21.2007C25.7891 21.3071 25.7645 21.4009 25.7645 21.5266V25.33C25.7645 25.4551 25.7899 25.5504 25.8521 25.6591L26.62 26.9878C26.664 27.0638 26.6871 27.1501 26.6871 27.2379V29.974C27.6959 30.4388 28.8179 30.6985 29.9994 30.6985C30.4779 30.6985 30.9467 30.6559 31.402 30.5745V27.8603L31.4019 27.8603ZM29.1524 21.9654V18.7758H28.3106V19.6241L28.7102 21.9654H29.1524ZM29.9993 14.8126C25.6195 14.8126 22.0563 18.3757 22.0563 22.7556C22.0563 25.5467 23.5036 28.0059 25.687 29.4229V27.3721L24.9852 26.1579C24.8342 25.8942 24.7644 25.6318 24.7644 25.3301V21.5267C24.7644 21.2271 24.836 20.9574 24.9835 20.7024L25.5973 19.6282C25.6711 19.4992 25.8955 19.1067 26.3452 19.0324L27.3107 18.868V18.6477C27.3107 18.1669 27.7019 17.7758 28.1826 17.7758H29.2805C29.4136 17.7758 29.5394 17.8067 29.6524 17.8603C29.7654 17.8067 29.8912 17.7758 30.0244 17.7758H31.1222C31.2619 17.7758 31.3936 17.8097 31.5108 17.8683C31.6314 17.8097 31.7662 17.7758 31.909 17.7758H33.1375C33.6419 17.7758 34.0524 18.1862 34.0524 18.6907V20.5959L34.1496 20.6315C34.8098 20.8736 35.2362 21.4839 35.2362 22.1865V24.5469C35.2362 24.9959 35.0687 25.4007 34.7518 25.7176L32.4019 28.0674V30.3267C35.6109 29.3061 37.9422 26.2981 37.9422 22.7555C37.9422 18.3757 34.379 14.8125 29.9993 14.8125V14.8126ZM30.9942 18.7758H30.1524V21.7134L30.9942 21.3907V18.7758ZM31.9942 18.7758V21.0074L33.0524 20.6017V18.7758H31.9942Z" fill="#D2FD84"/>
</svg>
