<svg width="60" height="60" viewBox="0 0 60 60" fill="none" xmlns="http://www.w3.org/2000/svg">
<rect width="60" height="60" rx="16" fill="#2E4E4D"/>
<path fill-rule="evenodd" clip-rule="evenodd" d="M31.7862 42.4934C31.766 42.7593 31.6913 43.0237 31.5602 43.269L31.0545 44.2144C31.2389 44.3203 31.4269 44.4314 31.6109 44.5324C32.0499 44.7738 32.6059 44.5899 32.8441 44.156C33.0904 43.7081 32.9223 43.1446 32.4782 42.8957C32.2488 42.7671 32.0177 42.6244 31.7862 42.4934ZM25.5022 32.8899C26.8794 34.3675 28.4724 33.723 29.9862 33.1102C31.369 32.5504 32.6969 32.0128 33.9621 32.7339L38.8849 35.5398C39.0605 35.6399 39.2146 35.7627 39.3452 35.902C39.3701 35.9286 39.3943 35.9559 39.4176 35.9837L40.1499 35.6782L37.6392 29.2019C36.521 29.8003 35.7092 29.4565 34.61 29.0072C33.41 28.5167 32.0039 27.942 30.0902 29.2548C29.045 29.9689 28.206 30.9855 27.1501 31.7784C26.6267 32.1713 26.0762 32.5414 25.5022 32.8899ZM25.7332 37.9262C25.3327 37.7124 24.8739 37.6451 24.4292 37.733C24.3505 37.1002 23.9724 36.5416 23.407 36.2399C22.6365 35.8287 21.683 35.9794 21.0752 36.6012C20.9539 35.9739 20.7857 35.363 20.077 35.0879C20.0346 35.0715 19.9639 35.0419 19.8714 35.0021L22.6973 28.6086L23.0226 28.7587C24.0117 29.3079 24.9287 29.093 25.9251 28.8595C26.8212 28.6495 27.7952 28.4213 28.8981 28.9078C28.0932 29.5781 27.3948 30.349 26.5524 30.9815C25.975 31.4151 25.3417 31.8302 24.661 32.2274C24.3125 32.4309 24.2224 32.8984 24.4699 33.217C26.3639 35.6542 28.4165 34.8232 30.3612 34.036C31.516 33.5685 32.6249 33.1195 33.4699 33.6012L38.3927 36.407C38.831 36.6569 39.0101 37.2124 38.764 37.6635C38.5108 38.1018 37.9737 38.2839 37.5207 38.0377C36.3938 37.3929 35.2543 36.7675 34.1267 36.122C33.8873 35.985 33.582 36.0681 33.4451 36.3076C33.3081 36.547 33.3912 36.8523 33.6307 36.9892C34.7574 37.6342 35.8901 38.2689 37.0228 38.9033C37.4657 39.1526 37.6373 39.712 37.3905 40.1607C37.1521 40.5942 36.5751 40.7773 36.139 40.5265L31.68 38.0174C31.4394 37.8826 31.1351 37.9683 31.0003 38.2089C30.8655 38.4494 30.9512 38.7537 31.1917 38.8885C32.405 39.5712 33.6155 40.265 34.8285 40.9454C35.2757 41.197 35.443 41.7574 35.1938 42.2089C34.9462 42.6511 34.3845 42.8125 33.9407 42.5671L31.3488 41.1C31.1845 40.8987 30.9829 40.7339 30.7538 40.6114C30.277 40.3567 29.722 40.3101 29.2104 40.4797C29.067 39.9595 28.7212 39.5237 28.2435 39.2688C27.7667 39.0144 27.2118 38.9677 26.7002 39.1372C26.557 38.617 26.2108 38.181 25.7332 37.9262ZM28.0113 43.7931C27.9395 44.2011 28.1395 44.6194 28.506 44.8154C28.9735 45.0655 29.5631 44.8869 29.8132 44.4193L30.6798 42.7988C30.93 42.331 30.7474 41.7395 30.2838 41.4917C29.8947 41.2838 29.4039 41.3714 29.1092 41.6987L28.0113 43.7931ZM28.253 41.2411C28.3614 40.8139 28.1639 40.3575 27.7737 40.1493C27.3845 39.9415 26.8937 40.0287 26.5989 40.3561L25.3734 42.7067C25.3135 43.1086 25.5124 43.5118 25.8721 43.7041C26.2964 43.931 26.8325 43.8057 27.1126 43.415L28.253 41.2411ZM25.7427 39.8985C25.8512 39.4714 25.6536 39.0149 25.2635 38.8067C24.902 38.6137 24.4539 38.6728 24.1527 38.9487L22.7312 41.4924C22.4812 41.9599 22.6599 42.5495 23.1274 42.7995C23.6005 43.0525 24.1857 42.8682 24.438 42.397L25.7427 39.8985ZM23.36 38.3727C23.5694 37.9136 23.3829 37.3582 22.9372 37.1204C22.4695 36.8707 21.88 37.0485 21.6297 37.5163L20.7259 39.2062C20.4759 39.6737 20.6545 40.2633 21.122 40.5133C21.4815 40.7055 21.927 40.6475 22.228 40.375L23.36 38.3727ZM30 15.0713L36.5713 17.8875V23.2011C36.5713 25.0682 35.931 26.7311 34.8492 28.03C34.4457 27.8658 34.0219 27.6997 33.5685 27.5839C33.6786 27.4704 33.7843 27.3529 33.8854 27.2315C34.788 26.1483 35.3213 24.7653 35.3213 23.2011V19.0415C35.3213 18.8226 35.1806 18.6365 34.9847 18.5689L30.1953 16.5162C30.0654 16.461 29.9251 16.465 29.8047 16.5162L24.9834 18.5825C24.7937 18.6632 24.6799 18.8475 24.6797 19.0415L24.6787 23.2011C24.6787 24.7652 25.212 26.1483 26.1145 27.2315C26.2517 27.3962 26.3974 27.5537 26.551 27.7038C26.2592 27.7556 25.9757 27.822 25.6985 27.8869C25.5072 27.9317 25.3195 27.9757 25.1357 28.0118C24.063 26.7155 23.4287 25.0594 23.4287 23.2011V17.8875L30 15.0713ZM30 17.5179L25.6787 19.3699V23.201C25.6787 24.5242 26.1249 25.6884 26.8802 26.5948C27.2118 26.9927 27.6036 27.3422 28.044 27.635C28.5929 27.6984 29.1757 27.8778 29.8027 28.2506C30.7094 27.6844 31.5134 27.4607 32.2411 27.4323C32.5669 27.1851 32.8616 26.9046 33.1198 26.5947C33.875 25.6883 34.3213 24.5242 34.3213 23.201V19.3699L30 17.5179ZM33.0568 21.87C31.99 22.9467 30.9304 24.0305 29.8587 25.1023C29.5454 25.4156 29.0371 25.4156 28.7238 25.1023L26.9457 23.3242C26.6324 23.0109 26.6324 22.5027 26.9457 22.1894C27.259 21.876 27.7673 21.876 28.0805 22.1894L29.2894 23.3982L31.9202 20.7412C32.2316 20.4267 32.7397 20.4258 33.0533 20.7377C33.3669 21.0495 33.3679 21.5561 33.0568 21.87ZM44.9414 35.1724L41.359 25.9319C41.1859 25.4851 40.6785 25.2613 40.2317 25.4345L38.4529 26.1241C38.0062 26.2973 37.7823 26.8046 37.9555 27.2514L41.5378 36.4919C41.711 36.9387 42.2183 37.1625 42.6651 36.9893L44.4439 36.2997C44.8907 36.1265 45.1145 35.6192 44.9414 35.1724ZM39.9929 28.0502C39.6655 28.0502 39.4001 27.7849 39.4001 27.4574C39.4001 27.13 39.6655 26.8646 39.9929 26.8646C40.3202 26.8646 40.5857 27.13 40.5857 27.4574C40.5857 27.7848 40.3202 28.0502 39.9929 28.0502ZM21.9745 25.6149L20.2295 24.8437C19.7912 24.6499 19.2741 24.85 19.0804 25.2884L15.074 34.353C14.8802 34.7914 15.0804 35.3084 15.5187 35.5022L17.2637 36.2734C17.7019 36.4672 18.219 36.267 18.4127 35.8287L22.4192 26.764C22.6129 26.3257 22.4129 25.8087 21.9745 25.6149ZM20.347 27.4676C20.02 27.4524 19.7672 27.175 19.7824 26.848C19.7975 26.5209 20.0749 26.2681 20.402 26.2833C20.729 26.2984 20.9819 26.5759 20.9667 26.9029C20.9515 27.2299 20.674 27.4828 20.347 27.4676Z" fill="#D2FD84"/>
</svg>
