<svg width="60" height="60" viewBox="0 0 60 60" fill="none" xmlns="http://www.w3.org/2000/svg">
<rect width="60" height="60" rx="16" fill="#2E4E4D"/>
<path d="M29.0399 37.2964V45.0404C29.0399 45.2324 28.9119 45.3604 28.7199 45.3604H22.3199C22.1279 45.3604 21.9999 45.2324 21.9999 45.0404V37.2964C21.9999 37.1044 22.1279 36.9764 22.3199 36.9764H22.9599C22.7679 36.2084 22.5759 35.8884 22.4479 35.6964C22.1279 35.2484 21.4239 34.7364 20.7839 34.2884C19.8879 33.6484 18.9279 33.0084 18.6079 32.2404C17.6479 30.2564 16.6239 23.9844 17.6479 22.0004C17.8399 21.6164 18.0959 21.4244 18.4159 21.3604C18.5439 21.3604 18.7359 21.3604 18.9919 21.4884C19.9519 22.2564 20.5919 26.1604 20.7199 27.4404C22.7679 27.6324 25.9679 31.0884 26.9279 32.4964C27.3759 33.1364 27.6959 34.6724 27.9519 36.9764H28.7199C28.8479 36.9764 29.0399 37.1684 29.0399 37.2964Z" fill="#D2FD84"/>
<path d="M41.456 32.3041C41.136 33.0081 40.176 33.7121 39.28 34.3521C38.576 34.8641 37.872 35.3121 37.616 35.7601C37.488 35.9521 37.36 36.2721 37.104 37.0401H37.744C37.936 37.0401 38.064 37.1681 38.064 37.3601V45.1041C38.064 45.2961 37.936 45.4241 37.744 45.4241H31.28C31.088 45.4241 30.96 45.2961 30.96 45.1041V37.2961C30.96 37.1041 31.088 36.9761 31.28 36.9761H32.112C32.368 34.6721 32.688 33.2001 33.136 32.4961C34.096 31.0881 37.296 27.6321 39.344 27.4401C39.536 26.2241 40.112 22.2561 41.072 21.4881C41.264 21.3601 41.456 21.2961 41.584 21.3601C41.904 21.4241 42.16 21.6161 42.352 22.0001C43.44 24.0481 42.416 30.3201 41.456 32.3041Z" fill="#D2FD84"/>
<path d="M30.2561 14.6401H30.1921C30.1281 14.6401 30.1281 14.6401 30.0641 14.6401C26.4801 14.6401 23.4081 17.2001 22.7681 20.6561C22.7041 21.1041 22.6401 21.6161 22.6401 22.1281C22.6401 24.4321 23.6641 26.4801 25.3281 27.8241C26.1601 28.4641 27.0561 28.9761 28.0801 29.2961H28.1441C28.7841 29.4881 29.4241 29.5521 30.0641 29.5521C34.1601 29.5521 37.5521 26.2241 37.5521 22.0641C37.4881 18.0961 34.2241 14.7681 30.2561 14.6401ZM32.1761 28.5921L32.8161 27.1841C32.8801 27.0561 32.9441 26.8641 33.0081 26.7361C33.2001 26.1601 33.0721 25.5841 32.6881 25.1361C32.3681 24.6881 31.7921 24.4321 31.2161 24.4321C31.0881 24.4321 31.0241 24.4961 30.9601 24.5601C30.8961 24.6241 30.8961 24.7521 30.8961 24.8161C31.0881 25.6481 30.6401 26.6721 29.8721 27.0561C29.7441 27.1201 29.6801 27.1841 29.5521 27.1841C29.3601 27.2481 29.1681 27.3121 29.0401 27.4401C28.4641 27.7601 28.1441 28.2721 27.9521 28.7201C27.1841 28.4641 26.4801 28.0801 25.9041 27.6321C26.0321 27.4401 26.0961 27.2481 26.2241 27.1201C26.4161 26.7361 26.6081 26.4161 26.9281 26.2241C27.1841 26.0961 27.5041 26.0321 27.8241 26.0321C28.0801 26.0321 28.4001 25.9681 28.7201 25.9041C29.2321 25.7121 29.6161 25.3921 29.8721 24.8801C30.1281 24.3681 30.1281 23.8561 29.9361 23.4081C29.7441 22.9601 29.3601 22.5761 28.8481 22.3841C28.3361 22.1921 27.7601 22.1921 27.3121 22.4481C27.1201 22.5761 26.9281 22.7041 26.7361 22.8321C26.6721 22.8961 26.5441 22.9601 26.4801 23.0241C26.3521 23.1521 26.0321 23.2801 25.7761 23.2161C25.5201 23.1521 25.3281 22.7681 25.2001 22.3841C25.1361 22.2561 25.0721 22.1921 25.0721 22.0641C24.7521 21.4241 24.1761 20.9121 23.4081 20.6561C24.1121 17.7761 26.6721 15.5361 29.8081 15.4081C29.6801 15.7921 29.6161 16.1761 29.6161 16.6241C29.6161 17.3921 30.0641 18.3521 30.8961 18.6721C31.0241 18.7361 31.1521 18.7361 31.3441 18.8001C31.6641 18.8641 31.8561 18.9281 31.9201 19.1201C31.9841 19.2481 31.9201 19.5041 31.7281 19.8241C31.5361 20.1441 31.2161 20.5921 31.3441 21.1041C31.4721 21.7441 32.1761 21.9361 32.5601 22.0641C33.0081 22.1921 33.2641 22.3841 33.2641 22.5761C33.2641 22.7041 33.2001 22.8961 33.1361 23.0241C33.0081 23.2801 32.8801 23.6001 33.0081 23.9841C33.1361 24.3681 33.5841 24.6241 33.9681 24.6241H34.1601C34.6081 24.5601 34.9281 24.2401 35.1201 24.0481L35.2481 23.9201C35.4401 23.7281 35.5681 23.6001 35.7601 23.4721C36.0801 23.2801 36.5281 23.2801 36.9761 23.3441C36.4001 25.6481 34.6081 27.7601 32.1761 28.5921Z" fill="#D2FD84"/>
<path d="M28.1438 19.3122C28.0798 19.3762 28.0798 19.3762 28.0158 19.4402C27.9518 19.5042 27.8878 19.5042 27.8878 19.5682C27.8238 19.6322 27.8238 19.7602 27.8238 19.8882C27.8238 20.0802 27.8238 20.3362 27.6318 20.5282C27.4398 20.8482 27.0558 20.9122 26.7998 20.9122C26.6718 20.9122 26.5438 20.9122 26.4798 20.9122C26.3518 20.9122 26.1598 20.8482 26.0318 20.7842C25.7758 20.6562 25.6478 20.4642 25.6478 20.2722C25.5838 19.9522 25.8398 19.7602 25.9678 19.6322C26.0318 19.5682 26.0958 19.5042 26.0958 19.4402C26.0958 19.4402 26.0958 19.3762 26.0318 19.1842L25.9678 19.0562C25.9038 18.9282 25.7758 18.7362 25.7758 18.5442C25.7118 18.1602 25.9038 17.7762 26.2238 17.5842C26.4798 17.4562 26.7998 17.4562 27.1198 17.4562H27.3118C27.6318 17.4562 28.1438 17.3922 28.4638 17.9042C28.7198 18.2882 28.6558 18.9922 28.1438 19.3122Z" fill="#D2FD84"/>
</svg>
