<svg width="706" height="312" viewBox="0 0 706 312" fill="none" xmlns="http://www.w3.org/2000/svg">
<path fill-rule="evenodd" clip-rule="evenodd" d="M885.361 9.26157C856.494 39.8756 817.854 65.1536 781.152 77.4336C761.445 84.0266 727.517 89.9366 697.361 92.0276C638.659 96.0996 567.274 87.2146 495.861 66.9486C464.091 57.9316 426.951 44.8525 403.987 34.5935C400.756 33.1495 398.002 32.1006 397.866 32.2616C396.215 34.2236 369.583 89.0706 370.122 89.3996C372.235 90.6886 396.485 99.7516 412.078 105.08C494.194 133.139 581.622 149.036 653.891 149.05C748.357 149.068 831.308 108.818 874.758 41.8786C883.482 28.4396 897.074 -0.194449 894.566 0.150551C894.178 0.203551 890.036 4.30357 885.361 9.26157ZM339.544 18.8985C318.876 26.2565 316.694 54.2166 336.018 64.0776C342.562 67.4165 353.902 67.5546 359.861 64.3676C378.063 54.6336 378.311 29.6495 360.296 20.5205C353.557 17.1055 346.197 16.5305 339.544 18.8985ZM16.8241 25.5946C7.00606 29.2036 -0.0239387 39.2055 6.12629e-05 49.5335C0.0360613 65.3235 12.8921 77.0876 28.7231 75.8166C43.3271 74.6446 53.5611 63.9745 53.4941 49.9895C53.4461 39.9305 47.7021 30.8796 38.5401 26.4256C33.6921 24.0686 22.1731 23.6276 16.8241 25.5946ZM58.7741 71.3016C52.2221 80.7876 46.7251 89.0646 46.5581 89.6946C46.1121 91.3826 70.9691 110.548 100.752 131.479C216.878 213.093 367.914 272.824 478.861 281.013C577.777 288.313 681.14 259.519 761.614 202.246C765.879 199.211 769.232 196.592 769.066 196.426C768.9 196.26 764.603 198.131 759.518 200.584C707.572 225.64 652.165 241.4 594.361 247.563C573.116 249.828 533.808 250.595 512.861 249.153C475.466 246.579 439.476 240.361 411.361 231.617C399.935 228.064 393.121 226.083 369.571 219.469C322.364 206.21 257.37 174.718 183.361 129.242C150.512 109.058 103.66 77.8796 80.6221 60.8736C75.5411 57.1226 71.2271 54.0536 71.0351 54.0536C70.8441 54.0536 65.3271 61.8146 58.7741 71.3016ZM223.576 71.3106C219.083 72.7496 211.731 79.4246 209.13 84.4256C207.531 87.4996 206.982 90.3416 206.982 95.5536C206.982 104.09 209.244 109.02 215.809 114.799C222.82 120.971 232.048 122.795 242.088 119.996C248.879 118.102 256.645 110.203 258.778 103.02C260.746 96.3926 260.749 94.7246 258.805 88.1756C255.572 77.2906 245.267 69.9966 233.361 70.1656C229.786 70.2166 225.383 70.7316 223.576 71.3106ZM270.887 108.743C264.991 123.841 260.323 136.335 260.514 136.507C261.481 137.382 278.341 145.456 289.361 150.321C353.079 178.451 424.986 199.104 491.861 208.483C532.713 214.212 550.757 215.469 592.861 215.515C629.584 215.556 635.917 215.039 660.195 210.016C710.778 199.552 764.317 172.071 810.35 132.942C823.133 122.077 848.161 97.1405 854.394 89.0595C857.476 85.0645 856.918 85.4005 849.361 92.0935C797.63 137.907 729.552 165.177 649.861 172.005C634.976 173.281 597.257 173.302 583.861 172.042C578.361 171.525 567.111 170.629 558.861 170.05C542.627 168.911 525.818 166.875 512.361 164.418C452.541 153.494 376.487 126.851 299.234 89.7556L281.606 81.2915L270.887 108.743ZM190.694 214.176C181.283 216.827 179.438 230.546 187.885 235.067C194.331 238.517 202.305 235.825 205.042 229.274C208.744 220.416 200.254 211.483 190.694 214.176ZM126.861 221.457C117.654 225.52 116.981 237.273 125.718 241.419C130.003 243.452 132.634 243.481 136.394 241.537C144.36 237.418 144.127 225.543 136.004 221.689C131.904 219.743 130.805 219.716 126.861 221.457ZM211.559 234.588C208.673 240.956 206.548 246.548 206.837 247.015C207.759 248.507 222.566 256.818 233.442 261.948C273.484 280.836 335.502 298.14 404.361 309.638C419.327 312.137 423.231 312.395 446.361 312.408C496.573 312.437 541.971 304.31 600.138 284.88C618.817 278.641 623.463 276.397 610.244 279.999C576.384 289.226 516.263 294.731 459.861 293.771C434.515 293.339 429.16 292.961 417.361 290.769C357.387 279.631 296.786 259.192 217.834 223.476C217.269 223.22 214.445 228.221 211.559 234.588ZM146.091 242.03C142.939 245.887 140.368 249.383 140.377 249.798C140.385 250.214 144.323 253.094 149.127 256.198C211.337 296.398 295.591 319.941 399.072 326.04C417.599 327.132 462.745 327.221 473.361 326.187C478.995 325.638 477.33 325.377 460.861 324.226C373.576 318.123 301.611 303.998 239.361 280.752C210.059 269.81 176.477 252.624 159.614 239.94C156.728 237.769 153.794 235.773 153.093 235.505C152.375 235.229 149.324 238.071 146.091 242.03Z" fill="url(#paint0_linear_4201_5588)"/>
<defs>
<linearGradient id="paint0_linear_4201_5588" x1="165" y1="64.1475" x2="645" y2="272.647" gradientUnits="userSpaceOnUse">
<stop stop-color="#D2FD84"/>
<stop offset="1" stop-color="#ADEC3B"/>
</linearGradient>
</defs>
</svg>
