<svg width="530" height="591" viewBox="0 0 530 591" fill="none" xmlns="http://www.w3.org/2000/svg">
<g filter="url(#filter0_d_4201_4540)">
<path fill-rule="evenodd" clip-rule="evenodd" d="M1384.77 44.7507C1341.22 90.9389 1282.92 129.077 1227.55 147.604C1197.81 157.551 1146.63 166.467 1101.13 169.622C1012.56 175.766 904.862 162.361 797.119 131.785C749.187 118.181 693.153 98.4478 658.507 82.9698C653.632 80.7912 649.477 79.2086 649.272 79.4515C646.781 82.4116 606.6 165.161 607.413 165.657C610.601 167.602 647.188 181.275 670.714 189.314C794.604 231.647 926.51 255.632 1035.54 255.653C1178.07 255.68 1303.22 194.954 1368.77 93.9609C1381.93 73.6851 1402.44 30.4842 1398.66 31.0047C1398.07 31.0846 1391.82 37.2704 1384.77 44.7507ZM561.28 59.2903C530.097 70.3915 526.805 112.576 555.96 127.453C565.833 132.491 582.942 132.699 591.932 127.891C619.394 113.205 619.768 75.5106 592.589 61.7374C582.421 56.5851 571.317 55.7176 561.28 59.2903ZM74.3829 69.3928C59.5702 74.8378 48.9639 89.928 49.0001 105.51C49.0544 129.333 68.4506 147.082 92.3353 145.164C114.369 143.396 129.809 127.298 129.708 106.198C129.636 91.0218 120.969 77.3664 107.146 70.6465C99.8322 67.0905 82.4531 66.4251 74.3829 69.3928ZM137.674 138.352C127.789 152.664 119.495 165.152 119.243 166.102C118.571 168.649 156.073 197.564 201.007 229.143C376.21 352.276 604.082 442.394 771.471 454.749C920.708 465.763 1076.66 422.32 1198.07 335.911C1204.5 331.332 1209.56 327.381 1209.31 327.13C1209.06 326.88 1202.58 329.703 1194.91 333.404C1116.53 371.206 1032.94 394.984 945.729 404.282C913.676 407.699 854.371 408.857 822.768 406.681C766.349 402.798 712.05 393.416 669.632 380.224C652.393 374.863 642.113 371.875 606.582 361.896C535.36 341.892 437.301 294.379 325.642 225.768C276.082 195.316 205.395 148.277 170.637 122.619C162.971 116.96 156.462 112.33 156.173 112.33C155.884 112.33 147.561 124.039 137.674 138.352ZM386.315 138.366C379.537 140.537 368.445 150.608 364.52 158.153C362.108 162.791 361.28 167.078 361.28 174.942C361.28 187.82 364.692 195.258 374.597 203.977C385.175 213.289 399.097 216.041 414.245 211.818C424.491 208.961 436.208 197.043 439.426 186.206C442.395 176.208 442.399 173.691 439.466 163.81C434.589 147.388 419.041 136.383 401.078 136.638C395.685 136.715 389.042 137.492 386.315 138.366ZM457.695 194.84C448.799 217.619 441.757 236.469 442.045 236.729C443.504 238.049 468.941 250.23 485.567 257.57C581.7 300.011 690.188 331.171 791.085 345.321C852.719 353.965 879.943 355.861 943.466 355.93C998.871 355.992 1008.43 355.212 1045.05 347.634C1121.37 331.847 1202.15 290.385 1271.6 231.35C1290.88 214.958 1328.64 177.336 1338.05 165.144C1342.7 159.117 1341.86 159.624 1330.45 169.722C1252.41 238.841 1149.7 279.984 1029.46 290.286C1007.01 292.211 950.099 292.242 929.888 290.341C921.59 289.561 904.616 288.21 892.169 287.336C867.677 285.618 842.317 282.546 822.014 278.839C731.761 262.358 617.016 222.161 500.463 166.194L473.867 153.424L457.695 194.84ZM336.705 353.91C322.507 357.91 319.723 378.608 332.467 385.429C342.193 390.634 354.223 386.573 358.353 376.689C363.938 363.325 351.129 349.847 336.705 353.91ZM240.399 364.895C226.508 371.025 225.493 388.757 238.674 395.012C245.139 398.08 249.109 398.123 254.782 395.19C266.8 388.976 266.449 371.06 254.193 365.245C248.007 362.309 246.349 362.269 240.399 364.895ZM368.185 384.706C363.831 394.314 360.625 402.751 361.061 403.455C362.452 405.706 384.792 418.245 401.201 425.985C461.613 454.482 555.181 480.589 659.071 497.936C681.65 501.707 687.541 502.096 722.437 502.116C798.194 502.159 866.687 489.898 954.445 460.583C982.627 451.17 989.636 447.785 969.692 453.219C918.607 467.14 827.9 475.446 742.805 473.997C704.565 473.346 696.486 472.775 678.684 469.468C588.2 452.664 496.769 421.827 377.652 367.941C376.8 367.555 372.539 375.1 368.185 384.706ZM269.412 395.934C264.656 401.754 260.777 407.028 260.791 407.654C260.803 408.282 266.744 412.627 273.992 417.31C367.85 477.961 494.966 513.481 651.091 522.683C679.043 524.33 747.156 524.464 763.173 522.904C771.673 522.076 769.161 521.682 744.314 519.946C612.625 510.738 504.049 489.427 410.131 454.355C365.922 437.847 315.256 411.918 289.814 392.781C285.46 389.506 281.033 386.494 279.976 386.09C278.892 385.673 274.289 389.961 269.412 395.934Z" fill="#BDEB90"/>
</g>
<defs>
<filter id="filter0_d_4201_4540" x="0.720711" y="0.825445" width="1446.67" height="589.559" filterUnits="userSpaceOnUse" color-interpolation-filters="sRGB">
<feFlood flood-opacity="0" result="BackgroundImageFix"/>
<feColorMatrix in="SourceAlpha" type="matrix" values="0 0 0 0 0 0 0 0 0 0 0 0 0 0 0 0 0 0 127 0" result="hardAlpha"/>
<feOffset dy="18.1047"/>
<feGaussianBlur stdDeviation="24.1396"/>
<feColorMatrix type="matrix" values="0 0 0 0 0.0235294 0 0 0 0 0.109804 0 0 0 0 0.239216 0 0 0 0.08 0"/>
<feBlend mode="normal" in2="BackgroundImageFix" result="effect1_dropShadow_4201_4540"/>
<feBlend mode="normal" in="SourceGraphic" in2="effect1_dropShadow_4201_4540" result="shape"/>
</filter>
</defs>
</svg>
