<svg xmlns="http://www.w3.org/2000/svg" width="17" height="16" viewBox="0 0 17 16" fill="none">
  <path d="M9.10195 2.04162C8.84692 1.60211 8.21222 1.60211 7.95719 2.04162L6.16112 5.1369C6.03514 5.35402 5.81739 5.50218 5.56918 5.53967L2.20324 6.04805C1.63791 6.13344 1.4396 6.84723 1.87988 7.21199L4.38736 9.28942C4.61947 9.48172 4.72861 9.78505 4.67223 10.0811L4.01631 13.5257C3.91262 14.0702 4.48424 14.4933 4.97471 14.2351L8.14417 12.5662C8.3854 12.4392 8.67373 12.4392 8.91497 12.5662L12.0844 14.2351C12.5749 14.4933 13.1465 14.0702 13.0428 13.5257L12.3869 10.0811C12.3305 9.78505 12.4397 9.48172 12.6718 9.28942L15.1793 7.21199C15.6195 6.84723 15.4212 6.13344 14.8559 6.04805L11.49 5.53967C11.2418 5.50218 11.024 5.35402 10.898 5.1369L9.10195 2.04162Z" fill="#FF8800"/>
</svg>