<svg xmlns="http://www.w3.org/2000/svg" width="48" height="48" viewBox="0 0 48 48" fill="none">
  <path d="M14.8047 27.3086C13.8567 27.3086 12.9653 27.6772 12.295 28.3474C11.623 29.0177 11.2544 29.9092 11.2544 30.8572C11.2544 31.8052 11.623 32.6966 12.2933 33.3652C13.6321 34.7074 15.9721 34.7074 17.311 33.3652C17.983 32.6949 18.3498 31.8035 18.3498 30.8572C18.3498 29.9109 17.9813 29.0177 17.311 28.3492C16.6424 27.6772 15.751 27.3086 14.8047 27.3086Z" fill="#23443D"/>
  <path d="M0 16.1143V41.1428C0 44.9314 3.06857 48 6.85714 48H41.1429C44.9314 48 48 44.9314 48 41.1428V16.1143H0ZM22.1606 32.4H21.24C21.0789 33.0788 20.8114 33.7217 20.4463 34.3165L21.0994 34.9697C21.7029 35.5714 21.7029 36.5485 21.0994 37.1503C20.7977 37.452 20.4034 37.6028 20.0074 37.6028C19.6114 37.6028 19.2171 37.452 18.9154 37.1503L18.264 36.4988C17.6709 36.864 17.0263 37.1297 16.3491 37.2925V38.2148C16.3491 39.0668 15.6583 39.7577 14.8063 39.7577C13.9543 39.7577 13.2634 39.0668 13.2634 38.2148V37.2925C12.5846 37.1314 11.9417 36.864 11.3469 36.4988L10.6954 37.1503C10.3937 37.452 9.99943 37.6028 9.60343 37.6028C9.20743 37.6028 8.81314 37.452 8.51143 37.1503C7.908 36.5485 7.908 35.5714 8.51143 34.9697L9.16457 34.3165C8.79943 33.7234 8.532 33.0788 8.37086 32.4H7.44686C6.59486 32.4 5.904 31.7091 5.904 30.8571C5.904 30.0051 6.59486 29.3143 7.44686 29.3143H8.36743C8.52857 28.6354 8.796 27.9925 9.16114 27.3977L8.508 26.7445C7.90457 26.1428 7.90457 25.1657 8.508 24.564C9.11143 23.9605 10.0886 23.9605 10.6903 24.564L11.3554 25.2291C11.9486 24.8794 12.5914 24.6291 13.26 24.4783V23.5011C13.26 22.6491 13.9509 21.9583 14.8029 21.9583C15.6549 21.9583 16.3457 22.6491 16.3457 23.5011V24.4783C17.0126 24.6291 17.6537 24.8794 18.2469 25.2291L18.912 24.564C19.5154 23.9605 20.4926 23.9605 21.0943 24.564C21.6977 25.1657 21.6977 26.1428 21.0943 26.7445L20.4411 27.3977C20.8063 27.9908 21.0737 28.6354 21.2349 29.3143H22.1554C23.0074 29.3143 23.6983 30.0051 23.6983 30.8571C23.6983 31.7091 23.0126 32.4 22.1606 32.4ZM33.108 35.196H27.1611C26.3091 35.196 25.6183 34.5051 25.6183 33.6531C25.6183 32.8011 26.3091 32.1103 27.1611 32.1103H33.108C33.96 32.1103 34.6509 32.8011 34.6509 33.6531C34.6509 34.5051 33.96 35.196 33.108 35.196ZM40.5531 29.604H27.1594C26.3074 29.604 25.6166 28.9131 25.6166 28.0611C25.6166 27.2091 26.3074 26.5183 27.1594 26.5183H40.5531C41.4051 26.5183 42.096 27.2091 42.096 28.0611C42.096 28.9131 41.4051 29.604 40.5531 29.604Z" fill="#23443D"/>
  <path d="M41.1429 0H6.85714C3.06857 0 0 3.06857 0 6.85714V13.0286H48V6.85714C48 3.06857 44.9314 0 41.1429 0ZM9.48857 8.82857H8.64514C7.79314 8.82857 7.10229 8.13771 7.10229 7.28571C7.10229 6.43371 7.79314 5.74286 8.64514 5.74286H9.48857C10.3406 5.74286 11.0314 6.43371 11.0314 7.28571C11.0314 8.13771 10.3406 8.82857 9.48857 8.82857ZM16.1314 8.82857H15.288C14.436 8.82857 13.7451 8.13771 13.7451 7.28571C13.7451 6.43371 14.436 5.74286 15.288 5.74286H16.1314C16.9834 5.74286 17.6743 6.43371 17.6743 7.28571C17.6743 8.13771 16.9834 8.82857 16.1314 8.82857ZM39.3549 8.82857H25.14C24.288 8.82857 23.5971 8.13771 23.5971 7.28571C23.5971 6.43371 24.288 5.74286 25.14 5.74286H39.3549C40.2069 5.74286 40.8977 6.43371 40.8977 7.28571C40.8977 8.13771 40.2069 8.82857 39.3549 8.82857Z" fill="#23443D"/>
</svg>