<svg width="60" height="48" viewBox="0 0 60 48" fill="none" xmlns="http://www.w3.org/2000/svg">
<path fill-rule="evenodd" clip-rule="evenodd" d="M42.1831 22.7892C42.3762 22.3238 42.5348 21.8528 42.6563 21.3795C42.74 21.0516 42.9846 20.8074 43.2841 20.7097L43.2834 20.7075L45.5112 19.9837C45.5753 19.9629 45.6168 19.9058 45.6168 19.8383V17.6214C45.6168 17.554 45.5751 17.4969 45.5112 17.4761L43.2831 16.7521C42.9246 16.6355 42.7155 16.3578 42.6394 16.016C42.4568 15.205 41.9439 14.0603 41.5147 13.3345C41.3425 13.0432 41.3431 12.6976 41.4856 12.4167L41.4847 12.4163L42.5495 10.3268C42.5801 10.2668 42.569 10.1969 42.5214 10.1492L40.9556 8.5834C40.908 8.5358 40.8382 8.52469 40.778 8.55533L38.6884 9.62004C38.3636 9.78535 38.0156 9.7436 37.7295 9.56631C36.9832 9.10357 35.8732 8.66577 35.0241 8.44844C34.6962 8.36479 34.452 8.12023 34.3543 7.82067L34.3521 7.82138L33.6283 5.59348C33.6075 5.52935 33.5502 5.48788 33.4829 5.48788H31.2662C31.1987 5.48788 31.1416 5.5295 31.1208 5.59348L30.397 7.82138C30.2804 8.18009 30.0025 8.38916 29.6606 8.46511C28.8497 8.64739 27.7046 9.16101 26.9789 9.58997C26.6876 9.76212 26.3421 9.76155 26.0612 9.61904L26.0607 9.61989L23.9714 8.55533C23.9114 8.52469 23.8415 8.5358 23.7938 8.5834L22.228 10.1492C22.1804 10.1968 22.1693 10.2666 22.1999 10.3268L23.2646 12.4163C23.4299 12.7411 23.3882 13.0891 23.2109 13.375C22.7483 14.1212 22.3107 15.2315 22.0933 16.0803C22.0097 16.4082 21.7651 16.6523 21.4656 16.7501L21.4663 16.7522L19.2382 17.4762C19.1741 17.497 19.1326 17.5541 19.1326 17.6216V19.8385C19.1326 19.9059 19.1742 19.963 19.2382 19.9839L21.4663 20.7078C21.8248 20.8244 22.0339 21.1021 22.11 21.4439C22.2924 22.2549 22.8056 23.3996 23.2347 24.1254C23.4069 24.4167 23.4063 24.7623 23.2638 25.0432L23.2646 25.0436L22.1999 27.1333C22.1693 27.1933 22.1804 27.2631 22.228 27.3109L23.7938 28.8766C23.8414 28.9242 23.9112 28.9354 23.9714 28.9049L26.0609 27.8402C26.3857 27.6748 26.7338 27.7166 27.0197 27.8939C27.7662 28.3566 28.8759 28.7944 29.725 29.0116C30.0529 29.0953 30.2971 29.3398 30.3948 29.6394L30.397 29.6387L31.1208 31.8664C31.1416 31.9305 31.1987 31.972 31.2662 31.972H33.4829C33.5504 31.972 33.6075 31.9304 33.6283 31.8664L34.3523 29.6382C34.4688 29.2795 34.7466 29.0706 35.0885 28.9945C35.8991 28.8121 37.0443 28.2988 37.77 27.8698C38.0613 27.6976 38.4069 27.6982 38.6878 27.8407L38.6882 27.8399L40.7779 28.9046C40.8379 28.9352 40.9077 28.9241 40.9555 28.8764L42.5212 27.3106C42.5688 27.263 42.58 27.1931 42.5493 27.133L41.4846 25.0435C41.3125 24.7053 41.3648 24.3817 41.5393 24.0829C41.782 23.6687 41.9977 23.2366 42.1831 22.7892ZM15.0721 29.0893C15.9235 29.9406 16.142 31.21 15.6761 32.2777C15.6505 32.3366 15.6627 32.4016 15.7082 32.4469L18.7346 35.4733C18.7642 35.5029 18.8003 35.5179 18.8422 35.518L31.2667 35.5559C31.3508 35.5562 31.4192 35.6248 31.4192 35.7088V37.3068C31.4192 37.3919 31.3509 37.46 31.2659 37.4598L18.4647 37.4209C18.1768 37.4204 17.9436 37.3849 17.7029 37.1444L14.357 33.7985C14.3116 33.753 14.2464 33.7407 14.1876 33.7665C12.3098 34.5887 10.1557 33.2183 10.1557 31.1259C10.1557 28.5671 13.2631 27.2802 15.0721 29.0893ZM20.3299 22.5241C20.3976 22.5237 20.4551 22.5653 20.4761 22.6297C20.6531 23.1736 20.8644 23.695 21.1125 24.2044C21.162 24.306 21.089 24.4235 20.976 24.4243L7.72276 24.5012C7.68101 24.5015 7.64509 24.5165 7.61559 24.546L6.8788 25.2828C6.83348 25.3281 6.82123 25.3932 6.84674 25.4519C7.31261 26.5196 7.09414 27.789 6.24277 28.6404C4.43385 30.4494 1.32622 29.1627 1.32622 26.604C1.32622 24.5118 3.48002 23.1411 5.35805 23.9634C5.41691 23.9892 5.48203 23.9769 5.5275 23.9315L6.58252 22.8763C6.82379 22.635 7.0548 22.6015 7.3414 22.5995L20.3299 22.5241ZM20.9723 13.0432C21.0852 13.0439 21.1583 13.1613 21.1088 13.2629C20.861 13.7724 20.6504 14.2935 20.4737 14.8376C20.4527 14.902 20.395 14.9436 20.3273 14.9432L6.01717 14.8601C5.73058 14.8581 5.49956 14.8247 5.25815 14.5833L4.20298 13.5282C4.15766 13.4828 4.09254 13.4706 4.03382 13.4962C2.96626 13.962 1.69661 13.7435 0.845524 12.8923C-0.963675 11.0831 0.323358 7.97573 2.88189 7.97573C4.97412 7.97573 6.34481 10.1298 5.52251 12.0076C5.49671 12.0664 5.50897 12.1315 5.55443 12.177L6.29122 12.9138C6.32072 12.9433 6.35664 12.9583 6.39839 12.9585L20.9723 13.0432ZM15.0721 8.37034C13.2631 10.1794 10.1556 8.89251 10.1556 6.33384C10.1556 4.24118 12.3102 2.87121 14.1874 3.69322C14.2463 3.71901 14.3114 3.70676 14.3569 3.6613L17.7028 0.315381C17.9433 0.0748197 18.1766 0.0393337 18.4645 0.0389062L31.2657 8.93033e-07C31.3508 -0.000284132 31.4191 0.0676942 31.4191 0.152917V1.75091C31.4191 1.83499 31.3507 1.90354 31.2666 1.90383L18.842 1.94174C18.8001 1.94188 18.7641 1.95684 18.7344 1.98649L15.708 5.01289C15.6627 5.05821 15.6505 5.12333 15.676 5.18205C16.142 6.24961 15.9235 7.51912 15.0721 8.37034ZM41.7379 6.66304C41.4199 6.3451 40.9783 6.30776 40.5918 6.5067L38.3476 7.65008C38.3019 7.67346 38.2523 7.67303 38.2068 7.64909C37.5275 7.29052 36.8259 6.99923 36.0851 6.77092C36.0361 6.75582 36.0006 6.7209 35.9846 6.67202L35.1935 4.23719C35.0625 3.83416 34.6885 3.57807 34.2864 3.57807V3.5765H33.4831C33.3989 3.5765 33.3302 3.50781 33.3302 3.42358V0.263364C33.3302 0.179139 33.3989 0.110448 33.4831 0.110448L38.1863 0.112301C42.8798 0.845957 46.4396 3.18929 48.9454 6.20828C52.0606 9.9615 53.5633 14.7494 53.6029 18.8046H53.5992V24.945C53.5992 25.1454 53.6609 25.3312 53.7662 25.4848L59.9795 34.8046C60.0473 34.9065 59.9746 35.0423 59.8522 35.0423H54.5547C54.1176 35.0423 53.7491 35.3359 53.6354 35.7365C53.6344 35.7402 53.6334 35.7433 53.632 35.747L49.2131 47.8991C49.1797 47.9909 49.0714 48.0282 48.9886 47.9766L33.402 38.2771C33.3558 38.2483 33.3299 38.2017 33.3299 38.1472V34.0362C33.3299 33.952 33.3986 33.8833 33.4828 33.8833C34.2549 33.8833 34.9324 34.0192 35.2138 33.1593L35.9845 30.7875C36.0003 30.7386 36.0358 30.7038 36.0848 30.6886C36.8254 30.4602 37.527 30.1691 38.2064 29.8108C38.2517 29.7869 38.3014 29.7864 38.3472 29.8098L40.6288 30.9723C41.0069 31.1645 41.4527 31.0812 41.7371 30.7966L44.4412 28.0931C44.7591 27.7752 44.7965 27.3335 44.5975 26.947L43.4541 24.703C43.4309 24.6573 43.4312 24.6077 43.4551 24.5622C43.8135 23.8829 44.1051 23.1813 44.3333 22.4405C44.3484 22.3915 44.3833 22.356 44.4322 22.34L46.867 21.5489C47.2701 21.418 47.5261 21.0439 47.5261 20.6418H47.5277V16.8181C47.5277 16.3441 47.2321 16.0307 46.8038 15.8905L44.4319 15.1197C44.383 15.1039 44.3483 15.0684 44.333 15.0194C44.1047 14.2786 43.8135 13.5772 43.4551 12.8978C43.4312 12.8525 43.4308 12.8028 43.4541 12.757L44.6166 10.4755C44.8089 10.0975 44.7255 9.65168 44.4409 9.36722L41.7379 6.66304ZM32.3748 13.9C35.0425 13.9 37.2047 16.062 37.2047 18.7299C37.2047 21.3976 35.0425 23.5598 32.3748 23.5598C29.7071 23.5598 27.5449 21.3976 27.5449 18.7299C27.5449 16.0622 29.7071 13.9 32.3748 13.9Z" fill="#23443D"/>
</svg>
