<svg width="48" height="49" viewBox="0 0 48 49" fill="none" xmlns="http://www.w3.org/2000/svg">
<path fill-rule="evenodd" clip-rule="evenodd" d="M39.5647 22.6482C42.2818 25.6591 44.3075 28.2715 45.6415 30.6137C50.527 39.1919 43.577 47.9046 34.2692 47.7477C24.9614 47.9046 18.0113 39.1919 22.8968 30.6137C24.2309 28.2715 26.2567 25.6591 28.9737 22.6482C29.298 22.7509 29.643 22.8065 30.0006 22.8065H38.5377C38.8954 22.8065 39.2404 22.7509 39.5647 22.6482ZM5.01244 1.25C2.66803 1.25 0.75 3.16812 0.75 5.51244V36.6729C0.75 39.0173 2.66803 40.9353 5.01244 40.9353H20.7088C19.1747 37.2696 19.6388 33.3035 21.5935 29.8714C21.9928 29.1703 22.4308 28.4756 22.8978 27.7891C22.6277 27.6144 22.4482 27.3104 22.4482 26.9659V25.692C22.4482 25.1523 22.8884 24.7122 23.4281 24.7122H25.2053C25.9997 23.7357 26.8262 22.7853 27.6533 21.8679C27.4091 21.6362 27.1991 21.3688 27.0316 21.0744H23.4281C22.8884 21.0744 22.4482 20.6342 22.4482 20.0945V18.8205C22.4482 18.2808 22.8884 17.8407 23.4281 17.8407H26.9616C27.2661 17.2477 27.7392 16.7546 28.3169 16.4251L27.2986 15.4069C26.6788 14.7871 26.3438 13.9879 26.2929 13.174H6.43322C5.8935 13.174 5.45334 12.7338 5.45334 12.1941V8.348C5.45334 7.80828 5.8935 7.36812 6.43322 7.36812H27.9907C28.5305 7.36812 28.9706 7.80828 28.9706 8.348V9.58109C29.6621 9.42247 30.3976 9.47525 31.0698 9.75097C31.5243 8.66309 32.5102 7.87259 33.6741 7.66887V5.51244C33.6741 3.16812 31.7559 1.25 29.4116 1.25H5.01244ZM30.0007 21.3065C28.948 21.3065 28.087 20.4454 28.087 19.3929C28.087 18.3404 28.9481 17.4793 30.0007 17.4793H38.5378C39.5903 17.4793 40.4514 18.3404 40.4514 19.393C40.4514 20.4453 39.5903 21.3065 38.5378 21.3065H30.0007ZM7.3335 17.8407H10.9958C11.5356 17.8407 11.9757 18.2808 11.9757 18.8205V20.0944C11.9757 20.6341 11.5356 21.0743 10.9958 21.0743H7.3335C6.79378 21.0743 6.35363 20.6341 6.35363 20.0944V18.8205C6.35363 18.2808 6.79378 17.8407 7.3335 17.8407ZM15.3808 31.5836C14.8411 31.5836 14.4009 32.0237 14.4009 32.5634V33.8373C14.4009 34.377 14.8411 34.8172 15.3808 34.8172H19.0432C19.5829 34.8172 20.023 34.377 20.023 33.8373V32.5634C20.023 32.0237 19.5829 31.5836 19.0432 31.5836H15.3808ZM7.3335 31.5836H10.9958C11.5356 31.5836 11.9757 32.0237 11.9757 32.5634V33.8373C11.9757 34.377 11.5356 34.8172 10.9958 34.8172H7.3335C6.79378 34.8172 6.35363 34.377 6.35363 33.8373V32.5634C6.35363 32.0237 6.79378 31.5836 7.3335 31.5836ZM15.3808 24.7121C14.8411 24.7121 14.4009 25.1522 14.4009 25.6919V26.9658C14.4009 27.5055 14.8411 27.9457 15.3808 27.9457H19.0432C19.5829 27.9457 20.023 27.5055 20.023 26.9658V25.6919C20.023 25.1522 19.5829 24.7121 19.0432 24.7121H15.3808ZM7.3335 24.7121H10.9958C11.5356 24.7121 11.9757 25.1522 11.9757 25.6919V26.9658C11.9757 27.5055 11.5356 27.9457 10.9958 27.9457H7.3335C6.79378 27.9457 6.35363 27.5055 6.35363 26.9658V25.6919C6.35363 25.1523 6.79378 24.7121 7.3335 24.7121ZM15.3808 17.8407H19.0432C19.5829 17.8407 20.023 18.2808 20.023 18.8205V20.0944C20.023 20.6341 19.5829 21.0743 19.0432 21.0743H15.3808C14.8411 21.0743 14.4009 20.6341 14.4009 20.0944V18.8205C14.4009 18.2808 14.8411 17.8407 15.3808 17.8407ZM34.171 38.7487C33.596 38.7337 33.0377 38.578 32.5927 38.2815C32.1899 38.0133 31.8822 37.621 31.7537 37.1055C31.6392 36.6402 31.1693 36.3558 30.704 36.4703C30.2387 36.5847 29.9543 37.0547 30.0687 37.52C30.3114 38.4936 30.8855 39.2297 31.6347 39.7287C32.1465 40.0696 32.7409 40.2949 33.3633 40.4047V41.0798C33.3633 41.5601 33.7526 41.9495 34.233 41.9495C34.7133 41.9495 35.1026 41.5602 35.1026 41.0798V40.4213C35.859 40.306 36.6296 40.0299 37.2347 39.5709C37.9618 39.0191 38.4455 38.2291 38.4202 37.1689C38.4173 37.0475 38.4104 36.9407 38.3993 36.8495C38.2583 35.6877 37.6298 34.9316 36.7964 34.4284C36.0644 33.9864 35.1865 33.7662 34.3817 33.6342C33.8012 33.5388 33.1897 33.3776 32.742 33.0852C32.395 32.8587 32.1462 32.5308 32.1229 32.0514C32.0977 31.5326 32.3242 31.114 32.6811 30.8238C32.9606 30.5966 33.3172 30.4386 33.7039 30.3608C33.8594 30.3295 34.0195 30.3114 34.1812 30.3072C34.1983 30.3082 34.2155 30.3087 34.2329 30.3087C34.2538 30.3087 34.2745 30.308 34.2952 30.3065C34.5089 30.3096 34.7242 30.3371 34.9345 30.3903C35.581 30.5542 36.1696 30.9803 36.4796 31.7186C36.6653 32.1613 37.175 32.3697 37.6177 32.1839C38.0604 31.9982 38.2687 31.4886 38.083 31.0459C37.5372 29.746 36.4981 28.9948 35.3558 28.7053C35.2719 28.6841 35.1876 28.6654 35.1026 28.6494V27.9755C35.1026 27.4952 34.7133 27.1058 34.233 27.1058C33.7527 27.1058 33.3633 27.4952 33.3633 27.9755V28.6624C32.7043 28.7952 32.0856 29.0734 31.5872 29.4786C30.8212 30.1014 30.3355 31.0056 30.3903 32.133C30.4452 33.2658 31.0105 34.0257 31.7976 34.5394C32.4836 34.9872 33.3262 35.219 34.1032 35.3465C34.7272 35.449 35.3934 35.6109 35.8996 35.9165C36.3045 36.1609 36.6086 36.5182 36.6736 37.0535C36.6822 37.1248 36.6869 37.1767 36.6877 37.2098C36.6978 37.6354 36.4942 37.9597 36.1883 38.1917C35.8056 38.4822 35.268 38.6534 34.7304 38.7187C34.5841 38.7364 34.4562 38.7465 34.3478 38.7491L34.3064 38.7498C34.2821 38.7477 34.2577 38.7467 34.2329 38.7467C34.2121 38.7464 34.1915 38.7473 34.171 38.7487ZM29.9925 15.9794L28.3593 14.3462C27.5945 13.5814 27.5945 12.3299 28.3593 11.5652C29.0097 10.9147 30.0395 10.8048 30.8135 11.3016C31.101 11.4861 31.4312 11.5155 31.7467 11.3849C32.0621 11.2542 32.2747 11.0001 32.3476 10.6662C32.5403 9.7835 33.3307 9.11722 34.2692 9.11703C35.1907 9.11703 35.9945 9.76662 36.1909 10.6662C36.2637 11.0001 36.4763 11.2542 36.7918 11.3849C37.1075 11.5157 37.4376 11.4861 37.7249 11.3016C38.4853 10.8135 39.5155 10.9016 40.1791 11.565V11.5652C40.9439 12.33 40.9439 13.5815 40.1791 14.3462L38.5459 15.9794L38.5377 15.9793H30.0006L29.9925 15.9794Z" fill="#2E4E4D"/>
</svg>
