<svg width="57" height="49" viewBox="0 0 57 49" fill="none" xmlns="http://www.w3.org/2000/svg">
<path d="M52.0772 5.09355C49.568 2.58004 46.2786 0.994697 42.7493 0.597973C39.22 0.201249 35.6608 1.01674 32.6562 2.91047L38.9503 9.31795C39.2018 9.59621 39.3955 9.9216 39.5203 10.2753C39.6451 10.6289 39.6985 11.0038 39.6774 11.3783C39.6563 11.7527 39.5612 12.1193 39.3974 12.4567C39.2337 12.7941 39.0046 13.0956 38.7235 13.3439C38.1993 13.8062 37.5229 14.0586 36.8239 14.0527C36.4235 14.0557 36.027 13.9739 35.6605 13.8127C35.294 13.6514 34.9658 13.4143 34.6976 13.1171L26.7024 5.09355C25.5559 3.94808 24.2354 2.9912 22.7899 2.25838C19.8406 0.747489 16.489 0.208077 13.2147 0.717313C9.94026 1.22655 6.91082 2.75834 4.55971 5.09355C1.61766 8.51808 0 12.8834 0 17.3982C0 21.913 1.61766 26.2783 4.55971 29.7028C9.83313 35.3732 22.6481 48.5 28.4035 48.5C32.8831 48.5 41.6721 40.5332 47.7677 34.3242C49.2987 32.7932 50.6029 31.489 51.7369 30.2132L52.1622 29.7595C55.1076 26.3209 56.7194 21.9384 56.7038 17.4107C56.6882 12.8831 55.0462 8.51179 52.0772 5.09355ZM33.9888 29.476H31.1536V32.3112C31.1536 33.0631 30.8549 33.7842 30.3232 34.3159C29.7915 34.8476 29.0704 35.1463 28.3184 35.1463C27.5665 35.1463 26.8454 34.8476 26.3137 34.3159C25.782 33.7842 25.4833 33.0631 25.4833 32.3112V29.476H22.6481C21.8962 29.476 21.175 29.1773 20.6433 28.6456C20.1116 28.1139 19.8129 27.3928 19.8129 26.6408C19.8129 25.8889 20.1116 25.1678 20.6433 24.6361C21.175 24.1044 21.8962 23.8057 22.6481 23.8057H25.4833V20.9705C25.4833 20.2186 25.782 19.4974 26.3137 18.9657C26.8454 18.434 27.5665 18.1353 28.3184 18.1353C29.0704 18.1353 29.7915 18.434 30.3232 18.9657C30.8549 19.4974 31.1536 20.2186 31.1536 20.9705V23.8057H33.9888C34.7407 23.8057 35.4618 24.1044 35.9935 24.6361C36.5252 25.1678 36.8239 25.8889 36.8239 26.6408C36.8239 27.3928 36.5252 28.1139 35.9935 28.6456C35.4618 29.1773 34.7407 29.476 33.9888 29.476Z" fill="#23443D"/>
</svg>
