<svg width="61" height="48" viewBox="0 0 61 48" fill="none" xmlns="http://www.w3.org/2000/svg">
<path d="M60.2617 20.8279C60.2617 24.9866 46.7655 28.3579 30.1309 28.3579C13.4962 28.3579 0 24.9866 0 20.8279C0 18.8872 2.93878 17.1239 7.77392 15.782C7.52994 16.7357 7.31924 17.6118 7.1418 18.3659C7.03991 18.8069 7.02765 19.2638 7.10575 19.7096C7.18386 20.1554 7.35074 20.5809 7.59648 20.961C7.89255 21.3936 8.27135 21.7633 8.71102 22.0488C9.1507 22.3344 9.64255 22.53 10.1582 22.6244C11.3448 22.8573 12.3207 23.0791 13.2079 23.2787C17.0117 24.1327 19.518 24.6982 30.1309 24.6982C40.9434 24.6982 43.1946 24.2768 47.2756 23.5116C48.0852 23.3564 48.9724 23.19 50.0259 23.0126C50.5685 22.9301 51.0874 22.7332 51.5482 22.435C52.009 22.1367 52.4011 21.7439 52.6985 21.2826C52.9545 20.8715 53.1187 20.4099 53.1799 19.9296C53.2411 19.4492 53.198 18.9612 53.0534 18.499C52.754 17.5009 52.4989 16.5916 52.2549 15.7266C57.2231 17.0684 60.2617 18.865 60.2617 20.8279Z" fill="#23443D"/>
<path d="M39.8309 37.6748C37.6043 37.9575 36.4455 38.6539 36.3334 39.0588C36.3145 39.1271 36.2614 39.5159 37.0872 40.4104C37.4458 40.7688 37.8732 41.051 38.3437 41.2399C38.8142 41.4288 39.3181 41.5205 39.825 41.5097C41.3332 41.524 42.7885 40.9538 43.8856 39.9187C45.0309 38.7773 45.0607 38.3603 45.0547 38.2878C44.817 37.8882 42.6413 37.3174 39.8309 37.6748Z" fill="#23443D"/>
<path d="M21.0589 37.6746C20.4778 37.6001 19.8925 37.5625 19.3066 37.562C17.3827 37.562 16.0176 37.9833 15.8237 38.319C15.8281 38.3602 15.8578 38.7782 17.0031 39.9175C18.0935 40.9632 19.5532 41.5355 21.0637 41.5095C21.5705 41.5204 22.0743 41.4287 22.5448 41.24C23.0153 41.0513 23.4427 40.7694 23.8015 40.4114C24.6279 39.5157 24.5748 39.1269 24.5558 39.0587C24.4437 38.6537 23.2855 37.9573 21.0589 37.6746Z" fill="#23443D"/>
<path d="M50.4707 31.3859C48.8905 31.6625 47.2433 31.9035 45.5323 32.0977C40.4158 32.6255 35.2742 32.8727 30.1307 32.8383C24.9872 32.8727 19.8456 32.6255 14.7291 32.0977C13.018 31.9035 11.3708 31.6625 9.79062 31.3859C7.65356 31.012 6.51047 33.6393 6.92946 35.742C7.2456 37.5809 7.92664 39.3379 8.93245 40.9095C9.93826 42.481 11.2485 43.8354 12.7859 44.8926C16.0945 47.0652 20.0006 48.1464 23.9554 47.9843C24.5541 47.9397 25.1371 47.7712 25.6674 47.4896C26.1977 47.208 26.6637 46.8194 27.036 46.3483C28.0456 45.3108 28.5195 44.5354 30.1307 44.5096C31.7419 44.5354 32.2158 45.3108 33.2254 46.3483C33.5977 46.8194 34.0637 47.208 34.594 47.4896C35.1243 47.7712 35.7073 47.9397 36.306 47.9843C40.2608 48.1464 44.167 47.0652 47.4755 44.8926C49.013 43.8354 50.3232 42.4811 51.329 40.9095C52.3348 39.338 53.0159 37.5809 53.3319 35.742C53.7557 33.6152 52.5919 31.0148 50.4707 31.3859ZM25.4316 41.9162C24.8714 42.4949 24.1994 42.9537 23.4566 43.265C22.7137 43.5762 21.9154 43.7334 21.1099 43.727C21.0574 43.7292 21.0038 43.7292 20.9513 43.7292C18.8923 43.7267 16.9149 42.9236 15.4373 41.4896C14.7577 40.8138 13.1652 39.2283 13.7321 37.5843C14.4777 35.4216 18.2173 35.3068 19.799 35.3533C22.7415 35.4454 26.0976 36.3129 26.6933 38.468C26.8019 39.1029 26.7426 39.7551 26.5212 40.36C26.2999 40.9649 25.9243 41.5013 25.4316 41.9162ZM45.4517 41.4895C43.974 42.9234 41.9967 43.7266 39.9376 43.7291C39.8846 43.7291 39.8315 43.7291 39.778 43.7269C38.9726 43.7331 38.1743 43.5757 37.4315 43.2643C36.6887 42.9529 36.0169 42.4939 35.4568 41.9151C34.9642 41.5004 34.5887 40.9641 34.3675 40.3594C34.1462 39.7547 34.087 39.1026 34.1957 38.4679C34.7913 36.3127 38.1475 35.4453 41.0899 35.3532C42.6684 35.3089 46.4101 35.4226 47.1563 37.5842C47.7227 39.226 46.1312 40.8126 45.4517 41.4895Z" fill="#23443D"/>
<path d="M49.6486 20.8279C43.4716 21.8814 42.9504 22.4803 30.1306 22.4803C17.2554 22.4803 16.7675 21.6707 10.5905 20.4508C9.76983 20.2845 9.12662 19.6745 9.30406 18.8539C9.53694 17.8336 9.84751 16.5805 10.2356 15.1721C11.1339 11.834 12.387 7.5977 13.74 3.45009C13.9499 2.72264 14.3299 2.05559 14.8486 1.50407C15.3673 0.952562 16.0099 0.532427 16.7231 0.278399C18.3977 -0.375902 19.9946 0.455836 21.9242 1.1545C24.5475 2.52088 27.4729 3.20363 30.43 3.13958C35.2763 2.97323 36.108 1.28757 41.2536 0.0566023C41.9232 -0.0448294 42.6064 -0.00967368 43.262 0.159952C43.9176 0.329578 44.5321 0.630163 45.0685 1.0436C47.5082 2.65163 47.5858 5.63479 48.6283 10.3258C49.0164 12.0558 49.3713 13.5419 49.7927 15.1277C50.1254 16.3476 50.4913 17.6229 50.9349 19.1311C50.9794 19.329 50.9802 19.5341 50.9372 19.7323C50.8942 19.9304 50.8084 20.1168 50.6859 20.2784C50.5634 20.4399 50.4072 20.5728 50.228 20.6677C50.0488 20.7626 49.8511 20.8173 49.6486 20.8279Z" fill="#23443D"/>
</svg>
