<svg width="47" height="48" viewBox="0 0 47 48" fill="none" xmlns="http://www.w3.org/2000/svg">
<path fill-rule="evenodd" clip-rule="evenodd" d="M46.2996 15.4286V42.8571C46.2996 44.2217 45.7582 45.5297 44.793 46.4931C43.8278 47.4583 42.5197 48 41.1552 48H13.7184C12.3539 48 11.0457 47.4583 10.0806 46.4931C9.11536 45.5297 8.574 44.2217 8.574 42.8571V30.6309C9.40935 30.78 10.2692 30.8571 11.1462 30.8571C19.1911 30.8571 25.722 24.3274 25.722 16.2857C25.722 8.244 19.1911 1.71429 11.1462 1.71429C10.7028 1.71429 10.2643 1.73485 9.83313 1.77257C10.7763 0.687423 12.1677 0 13.7184 0H30.8664V10.2857C30.8664 11.6503 31.4078 12.9583 32.373 13.9217C33.3382 14.8869 34.6463 15.4286 36.0108 15.4286H46.2996ZM18.8628 39.4286V37.7143C18.8628 36.768 18.0936 36 17.148 36C16.2024 36 15.4332 36.768 15.4332 37.7143V39.4286C15.4332 40.3749 16.2024 41.1429 17.148 41.1429C18.0936 41.1429 18.8628 40.3749 18.8628 39.4286ZM25.722 39.4286V32.5714C25.722 31.6251 24.9528 30.8571 24.0072 30.8571C23.0616 30.8571 22.2924 31.6251 22.2924 32.5714V39.4286C22.2924 40.3749 23.0616 41.1429 24.0072 41.1429C24.9528 41.1429 25.722 40.3749 25.722 39.4286ZM32.5812 39.4286V34.2857C32.5812 33.3394 31.812 32.5714 30.8664 32.5714C29.9208 32.5714 29.1516 33.3394 29.1516 34.2857V39.4286C29.1516 40.3749 29.9208 41.1429 30.8664 41.1429C31.812 41.1429 32.5812 40.3749 32.5812 39.4286ZM39.4404 39.4286V27.4286C39.4404 26.4823 38.6712 25.7143 37.7256 25.7143C36.78 25.7143 36.0108 26.4823 36.0108 27.4286V39.4286C36.0108 40.3749 36.78 41.1429 37.7256 41.1429C38.6712 41.1429 39.4404 40.3749 39.4404 39.4286ZM34.296 0.0325666C35.5282 0.173138 36.6771 0.756004 37.5198 1.68343L44.9621 9.86571C45.5182 10.4794 45.915 11.2114 46.1257 12H36.0108C35.5551 12 35.1191 11.82 34.7982 11.4977C34.4773 11.1771 34.296 10.74 34.296 10.2857V0.0325666ZM22.1601 18C21.3345 23.3366 16.7144 27.4286 11.1462 27.4286C4.99498 27.4286 0 22.4349 0 16.2857C0 10.7194 4.09345 6.09943 9.43138 5.27486V14.5714C9.43138 16.4657 10.9674 18 12.861 18H22.1601ZM12.861 5.27486C17.6404 6.01372 21.4227 9.79371 22.1601 14.5714H12.861V5.27486Z" fill="#23443D"/>
</svg>
