<svg width="48" height="48" viewBox="0 0 48 48" fill="none" xmlns="http://www.w3.org/2000/svg">
<path d="M38.4419 16.5627C39.8545 19.1152 40.6601 22.0483 40.6601 25.1662C40.6601 34.9956 32.6634 42.9924 22.834 42.9924C13.0046 42.9924 5.00789 34.9956 5.00789 25.1663C5.00789 15.3371 13.0046 7.34021 22.834 7.34021C25.8736 7.34021 28.7375 8.10571 31.2443 9.45282L34.9151 5.78197C31.326 3.53559 27.1726 2.33252 22.8339 2.33252C16.7348 2.33252 11.0006 4.70763 6.68787 9.02039C2.37511 13.3332 0 19.0672 0 25.1664C0 31.2655 2.37511 36.9996 6.68787 41.3123C11.0007 45.6251 16.7348 48.0003 22.8339 48.0003C28.9329 48.0003 34.6671 45.6251 38.9798 41.3123C43.2926 36.9995 45.6677 31.2655 45.6677 25.1664C45.6677 20.7537 44.4238 16.5324 42.1028 12.9019L38.4419 16.5627Z" fill="#23443D"/>
<path d="M24.5812 20.9464C22.9375 20.2728 20.9708 20.5964 19.6377 21.9297C17.8591 23.7083 17.8591 26.5774 19.6377 28.3422C21.4156 30.1201 24.2846 30.1201 26.0493 28.3422C27.3832 27.008 27.7061 25.0415 27.0326 23.3986L40.0586 10.3726L42.2279 10.6553L47.966 4.91656L43.6289 4.33783L43.0493 0L37.3106 5.75192L37.594 7.92053L24.5812 20.9464Z" fill="#23443D"/>
<path d="M31.328 23.6764C31.4126 24.1604 31.4571 24.6581 31.4571 25.166C31.4571 29.9209 27.5889 33.7892 22.834 33.7892C18.0792 33.7892 14.2108 29.921 14.2108 25.166C14.2108 20.4113 18.0791 16.5429 22.834 16.5429C23.2521 16.5429 23.6632 16.5735 24.0656 16.6312L28.1021 12.5947C26.4806 11.9126 24.7006 11.5352 22.834 11.5352C15.3179 11.5352 9.20312 17.65 9.20312 25.166C9.20312 32.6821 15.3179 38.797 22.834 38.797C30.35 38.797 36.4649 32.6821 36.4649 25.166C36.4649 23.219 36.0537 21.3665 35.315 19.6894L31.328 23.6764Z" fill="#23443D"/>
</svg>
