<svg width="50" height="49" viewBox="0 0 50 49" fill="none" xmlns="http://www.w3.org/2000/svg">
<path d="M2.08696 0.5C0.934362 0.5 0 1.43436 0 2.58696C0 3.73955 0.934362 4.67391 2.08696 4.67391H5.80027C6.10413 4.67391 6.40028 4.76952 6.64677 4.9472C6.89326 5.12487 7.0776 5.3756 7.17367 5.66386L14.0543 26.3098C14.3599 27.2264 14.3988 28.2134 14.1644 29.1508L13.5978 31.4212C12.7665 34.7465 15.355 38.0652 18.7826 38.0652H43.8261C44.9787 38.0652 45.913 37.1309 45.913 35.9783C45.913 34.8257 44.9787 33.8913 43.8261 33.8913H18.7826C17.97 33.8913 17.4483 33.2245 17.6454 32.4361L18.0727 30.7296C18.145 30.4405 18.312 30.1838 18.547 30.0004C18.782 29.817 19.0715 29.7174 19.3696 29.7174H41.7391C42.6377 29.7179 43.4357 29.1432 43.7201 28.2908L49.284 11.5951C49.7347 10.2432 48.7281 8.84718 47.303 8.84783H13.6793C13.3755 8.84783 13.0793 8.75222 12.8328 8.57455C12.5863 8.39688 12.402 8.14616 12.3059 7.8579L10.3288 1.92663C10.0444 1.07424 9.24641 0.49953 8.34783 0.5H2.08696ZM16.6957 40.1522C14.3905 40.1522 12.5217 42.0209 12.5217 44.3261C12.5217 46.6313 14.3905 48.5 16.6957 48.5C19.0008 48.5 20.8696 46.6313 20.8696 44.3261C20.8696 42.0209 19.0008 40.1522 16.6957 40.1522ZM41.7391 40.1522C39.4339 40.1522 37.5652 42.0209 37.5652 44.3261C37.5652 46.6313 39.4339 48.5 41.7391 48.5C44.0443 48.5 45.913 46.6313 45.913 44.3261C45.913 42.0209 44.0443 40.1522 41.7391 40.1522Z" fill="#23443D"/>
</svg>
