<svg width="66" height="48" viewBox="0 0 66 48" fill="none" xmlns="http://www.w3.org/2000/svg">
<path d="M54.1978 41.8936C54.2129 41.7107 54.2129 41.5269 54.1978 41.344C54.1978 39.7244 53.5544 38.1711 52.4091 37.0259C51.2638 35.8807 49.7105 35.2373 48.0909 35.2373C46.4712 35.2373 44.9179 35.8807 43.7727 37.0259C42.6274 38.1711 41.984 39.7244 41.984 41.344C41.9689 41.5269 41.9689 41.7107 41.984 41.8936C41.984 43.5132 42.6274 45.0664 43.7727 46.2116C44.9179 47.3568 46.4712 48.0002 48.0909 48.0002C49.7105 48.0002 51.2638 47.3568 52.4091 46.2116C53.5544 45.0664 54.1978 43.5132 54.1978 41.8936Z" fill="#23443D"/>
<path d="M29.772 41.8936C29.7871 41.7107 29.7871 41.5269 29.772 41.344C29.772 39.7244 29.1286 38.1711 27.9833 37.0259C26.8381 35.8807 25.2848 35.2373 23.6651 35.2373C22.0455 35.2373 20.4922 35.8807 19.3469 37.0259C18.2016 38.1711 17.5582 39.7244 17.5582 41.344C17.5431 41.5269 17.5431 41.7107 17.5582 41.8936C17.5582 43.5132 18.2016 45.0664 19.3469 46.2116C20.4922 47.3568 22.0455 48.0002 23.6651 48.0002C25.2848 48.0002 26.8381 47.3568 27.9833 46.2116C29.1286 45.0664 29.772 43.5132 29.772 41.8936Z" fill="#23443D"/>
<path d="M6.87023 27.3884H2.29008C1.86961 27.3874 1.4572 27.5037 1.09924 27.7242C0.788179 27.916 0.527523 28.1794 0.339049 28.4925C0.150574 28.8055 0.039752 29.1591 0.0158414 29.5237C-0.00806917 29.8884 0.055626 30.2534 0.201605 30.5884C0.347584 30.9234 0.571609 31.2186 0.854964 31.4493C1.25461 31.7905 1.7646 31.975 2.29008 31.9684H9.92367C10.531 31.9684 11.1135 32.2096 11.543 32.6391C11.9725 33.0686 12.2137 33.651 12.2137 34.2584C12.2137 34.8657 11.9725 35.4482 11.543 35.8776C11.1135 36.3071 10.531 36.5484 9.92367 36.5484H6.87023C6.26286 36.5484 5.68038 36.7896 5.2509 37.2191C4.82143 37.6485 4.58015 38.231 4.58015 38.8384C4.58015 39.4457 4.82143 40.0282 5.2509 40.4576C5.68038 40.8871 6.26286 41.1284 6.87023 41.1284H15.2977C15.4291 39.5755 16.0011 38.0925 16.9466 36.8537C17.7367 35.8195 18.7526 34.9793 19.9168 34.3973C21.0809 33.8152 22.3626 33.5066 23.6641 33.495C25.7617 33.487 27.7858 34.2671 29.3353 35.6809C30.8849 37.0947 31.8468 39.0389 32.0305 41.1284H39.7252C39.9044 39.0329 40.8634 37.081 42.4126 35.6587C43.9619 34.2363 45.9884 33.4471 48.0916 33.4471C50.1948 33.4471 52.2213 34.2363 53.7706 35.6587C55.3198 37.081 56.2788 39.0329 56.458 41.1284H60.6107C61.325 41.1428 62.0218 40.9062 62.5797 40.4599C63.1376 40.0136 63.5214 39.3858 63.6641 38.6857L65.6794 28.6097C65.6636 28.5393 65.6636 28.4663 65.6794 28.396C65.7227 28.1331 65.7227 27.865 65.6794 27.6021L59.9389 10.6867C59.6261 9.78833 59.0396 9.01064 58.2619 8.46295C57.4841 7.91526 56.5543 7.62512 55.603 7.63333H50.1069L50.4427 5.19066C50.5248 4.54345 50.4687 3.88619 50.2779 3.26231C50.0871 2.63843 49.7661 2.06214 49.3361 1.57152C48.906 1.08091 48.3768 0.687131 47.7833 0.416227C47.1898 0.145322 46.5455 0.00345465 45.8931 0H11.4504C10.843 0 10.2605 0.241267 9.83105 0.670725C9.40158 1.10018 9.16031 1.68265 9.16031 2.29C9.16031 2.89734 9.40158 3.47981 9.83105 3.90927C10.2605 4.33873 10.843 4.58 11.4504 4.58H15.2672C15.8745 4.58 16.457 4.82126 16.8865 5.25072C17.316 5.68018 17.5573 6.26265 17.5573 6.86999C17.5573 7.47734 17.316 8.05981 16.8865 8.48927C16.457 8.91872 15.8745 9.15999 15.2672 9.15999H2.29008C1.68517 9.1679 1.10727 9.41171 0.679495 9.83946C0.251725 10.2672 0.00791071 10.8451 2.41762e-06 11.45C-0.000843595 12.0287 0.220377 12.5856 0.618056 13.006C1.01574 13.4264 1.55956 13.6782 2.13741 13.7095H9.92367C10.531 13.7095 11.1135 13.9507 11.543 14.3802C11.9725 14.8096 12.2137 15.3921 12.2137 15.9995C12.2137 16.6068 11.9725 17.1893 11.543 17.6187C11.1135 18.0482 10.531 18.2895 9.92367 18.2895H5.34351H4.85496C4.34589 18.4006 3.88995 18.682 3.56241 19.0873C3.23488 19.4925 3.05534 19.9973 3.05344 20.5184C3.05344 21.1257 3.29471 21.7082 3.72418 22.1377C4.15366 22.5671 4.73615 22.8084 5.34351 22.8084H6.87023C7.4776 22.8084 8.06009 23.0496 8.48956 23.4791C8.91903 23.9086 9.16031 24.491 9.16031 25.0984C9.16031 25.7057 8.91903 26.2882 8.48956 26.7176C8.06009 27.1471 7.4776 27.3884 6.87023 27.3884ZM49.6183 12.1217H55.1756C55.3358 12.1241 55.4916 12.175 55.6224 12.2677C55.7532 12.3603 55.8529 12.4904 55.9084 12.6408L60.3053 25.8617H47.7863L49.6183 12.1217Z" fill="#23443D"/>
</svg>
