<svg width="56" height="48" viewBox="0 0 56 48" fill="none" xmlns="http://www.w3.org/2000/svg">
<path fill-rule="evenodd" clip-rule="evenodd" d="M22.3475 0.000813471C21.7322 0.000813471 21.147 0.52172 20.9777 1.111L19.8634 4.28691C19.6933 4.87618 20.0881 5.39709 20.7026 5.39709H34.6499C35.2636 5.39709 35.6583 4.87618 35.4882 4.28691L34.3739 1.11018C34.2038 0.520907 33.6186 0 33.0041 0L22.3475 0.000813471Z" fill="#23443D"/>
<path fill-rule="evenodd" clip-rule="evenodd" d="M37.205 29.3224H18.1455C17.3356 29.3224 17.1533 30.2584 17.5269 31.1618C18.3107 33.0745 20.3927 34.8798 22.3762 34.3589H32.975C35.0269 34.3589 37.0406 33.0737 37.8236 31.1618C38.1971 30.2584 38.0059 29.4404 37.205 29.3224ZM5.95867 29.2467C5.61601 30.3056 5.21637 32.4006 7.09897 33.0875C8.64215 33.65 11.8938 34.0569 13.6233 34.3214C15.2894 34.5713 15.7037 33.5881 15.1283 32.1206C14.0474 29.4029 11.6097 28.8267 9.32096 28.4328C7.03548 28.038 6.21668 28.4531 5.95867 29.2467ZM46.0311 28.4328C43.7456 28.8267 41.3039 29.4021 40.2279 32.1206C39.6467 33.5881 40.0626 34.5705 41.7287 34.3214C43.4632 34.0577 46.7099 33.6508 48.2531 33.0875C50.1349 32.4006 49.7409 30.3056 49.3926 29.2467C49.1338 28.4531 48.3198 28.038 46.0311 28.4328ZM27.6764 10.1147C24.1025 10.1196 20.2405 10.2417 16.9718 10.4671C15.7346 10.5518 14.5984 11.2208 13.835 12.4547C12.199 15.1081 10.7396 17.6052 9.82071 20.3823C9.82071 20.3823 20.0704 21.4029 27.6764 21.4029C35.2849 21.4029 45.5354 20.3823 45.5354 20.3823C44.6116 17.6052 43.1572 15.1081 41.5212 12.4547C40.7577 11.2208 39.6182 10.5518 38.3795 10.4671C35.1157 10.2417 31.2495 10.1196 27.6764 10.1147ZM27.6764 7.62169C31.8258 7.62169 36.0655 7.60052 40.1188 8.16457C42.0006 8.42746 43.2084 9.53032 44.0777 10.8098C46.0572 13.722 47.3334 16.7986 48.4476 19.911H53.4158C54.8027 19.911 55.6296 20.987 55.2691 22.3227C54.8743 23.8024 54.425 24.5268 52.2543 25.0314L51.4274 25.2227C52.072 26.4557 52.5473 27.7621 52.5473 28.9276V38.4903C52.5473 40.0889 51.4404 41.4416 50.1528 41.9462V46.4228C50.1528 47.2969 49.4487 48.0002 48.5754 48.0002H44.1021C43.2296 48.0002 42.5247 47.2969 42.5247 46.4228V42.1668H12.8298V46.4228C12.8298 47.2969 12.1265 48.0002 11.2524 48.0002H6.77991C5.90658 48.0002 5.20335 47.2969 5.20335 46.4228V41.9462C3.91411 41.4416 2.80392 40.0938 2.80392 38.4903V28.9284C2.80392 27.7629 3.27762 26.4557 3.92631 25.2235L3.0953 25.0322C0.929469 24.5276 0.480186 23.8032 0.0821806 22.3235C-0.272688 20.9878 0.554253 19.9118 1.93547 19.9118H6.9077C8.02195 16.8002 9.2941 13.7228 11.2736 10.8106C12.1428 9.53032 13.3556 8.42746 15.2333 8.16538C19.2906 7.60052 23.5255 7.62169 27.6764 7.62169Z" fill="#23443D"/>
</svg>
