<svg width="52" height="48" viewBox="0 0 52 48" fill="none" xmlns="http://www.w3.org/2000/svg">
<path d="M17.1429 12C13.3619 12 10.2857 15.0753 10.2857 18.8571C10.2857 22.639 13.3619 25.7143 17.1429 25.7143C20.9238 25.7143 24 22.639 24 18.8571C24 15.0753 20.9238 12 17.1429 12ZM14.5714 23.774V13.9403L21.9475 18.8571L14.5714 23.774ZM44.5714 0H6.85714C3.07617 0 0 3.07533 0 6.85714V30.8571C0 34.639 3.07617 37.7143 6.85714 37.7143H44.5714C48.3524 37.7143 51.4286 34.639 51.4286 30.8571V6.85714C51.4286 3.07533 48.3524 0 44.5714 0ZM17.1429 29.1429C11.471 29.1429 6.85714 24.529 6.85714 18.8571C6.85714 13.1853 11.471 8.57143 17.1429 8.57143C22.8147 8.57143 27.4286 13.1853 27.4286 18.8571C27.4286 24.529 22.8147 29.1429 17.1429 29.1429ZM44.5714 27.4286H30.8571V24H44.5714V27.4286ZM44.5714 20.5714H30.8571V17.1429H44.5714V20.5714ZM44.5714 13.7143H30.8571V10.2857H44.5714V13.7143ZM30.8571 44.5714V41.1429H20.5714V44.5714H13.7143V48H37.7143V44.5714H30.8571Z" fill="#23443D"/>
</svg>
