<svg width="48" height="48" viewBox="0 0 48 48" fill="none" xmlns="http://www.w3.org/2000/svg">
<path fill-rule="evenodd" clip-rule="evenodd" d="M23.4419 30.6976C23.4419 29.0701 22.7944 27.5073 21.6446 26.3553C20.4926 25.2055 18.9299 24.5581 17.3023 24.5581H6.13953C4.512 24.5581 2.94921 25.2055 1.79721 26.3553C0.647442 27.5073 0 29.0701 0 30.6976V41.8604C0 43.488 0.647442 45.0508 1.79721 46.2028C2.94921 47.3525 4.512 48 6.13953 48H17.3023C18.9299 48 20.4926 47.3525 21.6446 46.2028C22.7944 45.0508 23.4419 43.488 23.4419 41.8604V30.6976ZM20.093 30.6976V41.8604C20.093 42.6016 19.7983 43.3094 19.2759 43.834C18.7513 44.3564 18.0435 44.6511 17.3023 44.6511H6.13953C5.39833 44.6511 4.6906 44.3564 4.16595 43.834C3.64353 43.3094 3.34884 42.6016 3.34884 41.8604V30.6976C3.34884 29.9564 3.64353 29.2487 4.16595 28.7241C4.6906 28.2016 5.39833 27.9069 6.13953 27.9069H17.3023C18.0435 27.9069 18.7513 28.2016 19.2759 28.7241C19.7983 29.2487 20.093 29.9564 20.093 30.6976Z" fill="#23443D"/>
<path fill-rule="evenodd" clip-rule="evenodd" d="M48 30.6976C48 29.0701 47.3525 27.5073 46.2028 26.3553C45.0508 25.2055 43.488 24.5581 41.8604 24.5581H30.6976C29.0701 24.5581 27.5073 25.2055 26.3553 26.3553C25.2055 27.5073 24.5581 29.0701 24.5581 30.6976V41.8604C24.5581 43.488 25.2055 45.0508 26.3553 46.2028C27.5073 47.3525 29.0701 48 30.6976 48H41.8604C43.488 48 45.0508 47.3525 46.2028 46.2028C47.3525 45.0508 48 43.488 48 41.8604V30.6976ZM41.5747 37.7324C42.0971 37.4355 42.4186 36.8796 42.4186 36.279C42.4186 35.6785 42.0971 35.1226 41.5747 34.8256L33.7607 30.3605C33.2428 30.0636 32.6065 30.0658 32.0908 30.365C31.5728 30.6664 31.2558 31.2178 31.2558 31.8139V40.7442C31.2558 41.3402 31.5728 41.8917 32.0908 42.1931C32.6065 42.4922 33.2428 42.4945 33.7607 42.1975L41.5747 37.7324Z" fill="#23443D"/>
<path d="M15.0699 34.0466C15.9947 34.0466 16.7443 33.2969 16.7443 32.3722C16.7443 31.4474 15.9947 30.6978 15.0699 30.6978C14.1452 30.6978 13.3955 31.4474 13.3955 32.3722C13.3955 33.2969 14.1452 34.0466 15.0699 34.0466Z" fill="#23443D"/>
<path fill-rule="evenodd" clip-rule="evenodd" d="M23.4419 6.13953C23.4419 4.512 22.7944 2.94921 21.6446 1.79721C20.4926 0.647442 18.9299 0 17.3023 0H6.13953C4.512 0 2.94921 0.647442 1.79721 1.79721C0.647442 2.94921 0 4.512 0 6.13953V17.3023C0 18.9299 0.647442 20.4926 1.79721 21.6446C2.94921 22.7944 4.512 23.4419 6.13953 23.4419H17.3023C18.9299 23.4419 20.4926 22.7944 21.6446 21.6446C22.7944 20.4926 23.4419 18.9299 23.4419 17.3023V6.13953ZM14.2169 14.1834C14.2281 14.1098 14.2326 14.0316 14.2326 13.9535V9.48837H14.7907C15.715 9.48837 16.4651 8.73823 16.4651 7.81395C16.4651 6.88967 15.715 6.13953 14.7907 6.13953H12.5581C11.6339 6.13953 10.8837 6.88967 10.8837 7.81395V11.1628C9.03516 11.1628 7.53488 12.6631 7.53488 14.5116C7.53488 16.3602 9.03516 17.8605 10.8837 17.8605C12.7323 17.8605 14.2326 16.3602 14.2326 14.5116C14.2326 14.4022 14.2281 14.2928 14.2169 14.1834Z" fill="#23443D"/>
<path fill-rule="evenodd" clip-rule="evenodd" d="M9.89916 38.545L2.99609 29.6706C2.55628 29.1058 1.80837 28.8825 1.13191 29.1147C0.455442 29.3469 0 29.9831 0 30.6976L1.67442 45.7673H20.6512L22.3256 42.9766C22.3256 42.5324 22.1492 42.1059 21.8344 41.7934L16.8692 36.8282C15.965 35.9218 14.5585 35.7498 13.4601 36.4085L9.89916 38.545Z" fill="#23443D"/>
<path fill-rule="evenodd" clip-rule="evenodd" d="M48 6.13953C48 4.512 47.3525 2.94921 46.2028 1.79721C45.0508 0.647442 43.488 0 41.8604 0H30.6976C29.0701 0 27.5073 0.647442 26.3553 1.79721C25.2055 2.94921 24.5581 4.512 24.5581 6.13953V17.3023C24.5581 18.9299 25.2055 20.4926 26.3553 21.6446C27.5073 22.7944 29.0701 23.4419 30.6976 23.4419H41.8604C43.488 23.4419 45.0508 22.7944 46.2028 21.6446C47.3525 20.4926 48 18.9299 48 17.3023V6.13953ZM31.8139 16.7442H40.7442C41.6684 16.7442 42.4186 15.994 42.4186 15.0698C42.4186 14.1455 41.6684 13.3953 40.7442 13.3953H31.8139C30.8896 13.3953 30.1395 14.1455 30.1395 15.0698C30.1395 15.994 30.8896 16.7442 31.8139 16.7442ZM31.8139 10.0465H37.3953C38.3196 10.0465 39.0697 9.29637 39.0697 8.37209C39.0697 7.44781 38.3196 6.69767 37.3953 6.69767H31.8139C30.8896 6.69767 30.1395 7.44781 30.1395 8.37209C30.1395 9.29637 30.8896 10.0465 31.8139 10.0465Z" fill="#23443D"/>
</svg>
