<svg width="64" height="65" viewBox="0 0 64 65" fill="none" xmlns="http://www.w3.org/2000/svg">
<path fill-rule="evenodd" clip-rule="evenodd" d="M32 10.5C32.5304 10.5 33.0391 10.7107 33.4142 11.0858C33.7893 11.4609 34 11.9696 34 12.5V30.5H52C52.5304 30.5 53.0391 30.7107 53.4142 31.0858C53.7893 31.4609 54 31.9696 54 32.5C54 33.0304 53.7893 33.5391 53.4142 33.9142C53.0391 34.2893 52.5304 34.5 52 34.5H34V52.5C34 53.0304 33.7893 53.5391 33.4142 53.9142C33.0391 54.2893 32.5304 54.5 32 54.5C31.4696 54.5 30.9609 54.2893 30.5858 53.9142C30.2107 53.5391 30 53.0304 30 52.5V34.5H12C11.4696 34.5 10.9609 34.2893 10.5858 33.9142C10.2107 33.5391 10 33.0304 10 32.5C10 31.9696 10.2107 31.4609 10.5858 31.0858C10.9609 30.7107 11.4696 30.5 12 30.5H30V12.5C30 11.9696 30.2107 11.4609 30.5858 11.0858C30.9609 10.7107 31.4696 10.5 32 10.5Z" fill="#CDD2D8"/>
</svg>
