<svg width="32" height="33" viewBox="0 0 32 33" fill="none" xmlns="http://www.w3.org/2000/svg">
<path opacity="0.2" d="M11.5595 15.749C12.5968 17.8697 14.3158 19.5809 16.4412 20.6085C16.5967 20.6822 16.7687 20.7141 16.9403 20.7011C17.1119 20.6881 17.2771 20.6307 17.4198 20.5345L20.5492 18.4477C20.6877 18.3554 20.8469 18.2991 21.0126 18.2838C21.1782 18.2686 21.3451 18.295 21.498 18.3605L27.3526 20.8696C27.5515 20.9541 27.7175 21.1009 27.8257 21.288C27.9339 21.4751 27.9783 21.6922 27.9524 21.9067C27.7673 23.3547 27.0608 24.6856 25.9652 25.6502C24.8695 26.6149 23.4598 27.147 22 27.1471C17.4913 27.1471 13.1673 25.356 9.97919 22.1679C6.79107 18.9798 5 14.6558 5 10.1471C5.00008 8.68731 5.53224 7.27761 6.49685 6.18194C7.46146 5.08627 8.79237 4.37977 10.2404 4.19472C10.4549 4.16876 10.672 4.21322 10.8591 4.3214C11.0461 4.42958 11.193 4.59562 11.2775 4.7945L13.7888 10.6542C13.8537 10.8058 13.8802 10.9711 13.8658 11.1353C13.8514 11.2996 13.7967 11.4578 13.7064 11.5958L11.6268 14.7732C11.5322 14.9162 11.4762 15.0812 11.4644 15.2522C11.4526 15.4233 11.4854 15.5944 11.5595 15.749V15.749Z" fill="#061C3D"/>
<path d="M11.5595 15.749C12.5968 17.8697 14.3158 19.5809 16.4412 20.6085C16.5967 20.6822 16.7687 20.7141 16.9403 20.7011C17.1119 20.6881 17.2771 20.6307 17.4198 20.5345L20.5492 18.4477C20.6877 18.3554 20.8469 18.2991 21.0126 18.2838C21.1782 18.2686 21.3451 18.295 21.498 18.3605L27.3526 20.8696C27.5515 20.9541 27.7175 21.1009 27.8257 21.288C27.9339 21.4751 27.9783 21.6922 27.9524 21.9067C27.7673 23.3547 27.0608 24.6856 25.9652 25.6502C24.8695 26.6149 23.4598 27.147 22 27.1471C17.4913 27.1471 13.1673 25.356 9.97919 22.1679C6.79107 18.9798 5 14.6558 5 10.1471C5.00008 8.68731 5.53224 7.27761 6.49685 6.18194C7.46146 5.08627 8.79237 4.37977 10.2404 4.19472C10.4549 4.16876 10.672 4.21322 10.8591 4.3214C11.0461 4.42958 11.193 4.59562 11.2775 4.7945L13.7888 10.6542C13.8537 10.8058 13.8802 10.9711 13.8658 11.1353C13.8514 11.2996 13.7967 11.4578 13.7064 11.5958L11.6268 14.7732C11.5322 14.9162 11.4762 15.0812 11.4644 15.2522C11.4526 15.4233 11.4854 15.5944 11.5595 15.749V15.749Z" stroke="#061C3D" stroke-width="2" stroke-linecap="round" stroke-linejoin="round"/>
<path d="M19.9272 5.14746C21.6225 5.60338 23.1682 6.49674 24.4095 7.73805C25.6508 8.97936 26.5441 10.525 27.0001 12.2203" stroke="#061C3D" stroke-width="2" stroke-linecap="round" stroke-linejoin="round"/>
<path d="M18.8916 9.01172C19.9087 9.28527 20.8362 9.82129 21.5809 10.5661C22.3257 11.3109 22.8617 12.2383 23.1353 13.2554" stroke="#061C3D" stroke-width="2" stroke-linecap="round" stroke-linejoin="round"/>
</svg>
