<svg width="32" height="33" viewBox="0 0 32 33" fill="none" xmlns="http://www.w3.org/2000/svg">
<path opacity="0.2" d="M16 3.14746C13.3478 3.14747 10.8043 4.20104 8.92894 6.0764C7.05358 7.95176 6.00001 10.4953 6 13.1475C6 22.1475 16 29.1475 16 29.1475C16 29.1475 26 22.1475 26 13.1475C26 10.4953 24.9464 7.95176 23.0711 6.0764C21.1957 4.20104 18.6522 3.14747 16 3.14746ZM16 17.1475C15.2089 17.1475 14.4355 16.9129 13.7777 16.4733C13.1199 16.0338 12.6072 15.4091 12.3045 14.6782C12.0017 13.9473 11.9225 13.143 12.0769 12.3671C12.2312 11.5912 12.6122 10.8784 13.1716 10.319C13.731 9.75962 14.4437 9.37866 15.2196 9.22432C15.9956 9.06998 16.7998 9.14919 17.5307 9.45194C18.2616 9.75469 18.8864 10.2674 19.3259 10.9252C19.7654 11.583 20 12.3563 20 13.1475C20 14.2083 19.5786 15.2257 18.8284 15.9759C18.0783 16.726 17.0609 17.1474 16 17.1475V17.1475Z" fill="#061C3D"/>
<path d="M7 29.1475H25" stroke="#061C3D" stroke-width="2" stroke-linecap="round" stroke-linejoin="round"/>
<path d="M16 17.1475C18.2091 17.1475 20 15.3566 20 13.1475C20 10.9383 18.2091 9.14746 16 9.14746C13.7909 9.14746 12 10.9383 12 13.1475C12 15.3566 13.7909 17.1475 16 17.1475Z" stroke="#061C3D" stroke-width="2" stroke-linecap="round" stroke-linejoin="round"/>
<path d="M26 13.1475C26 22.1475 16 29.1475 16 29.1475C16 29.1475 6 22.1475 6 13.1475C6 10.4953 7.05357 7.95176 8.92893 6.07639C10.8043 4.20103 13.3478 3.14746 16 3.14746C18.6522 3.14746 21.1957 4.20103 23.0711 6.07639C24.9464 7.95176 26 10.4953 26 13.1475V13.1475Z" stroke="#061C3D" stroke-width="2" stroke-linecap="round" stroke-linejoin="round"/>
</svg>
