<svg width="32" height="32" viewBox="0 0 32 32" fill="none" xmlns="http://www.w3.org/2000/svg">
<g clip-path="url(#clip0_30_10700)">
<path d="M23.5 5.6875H8.5C6.94922 5.6875 5.6875 6.94922 5.6875 8.5V23.5C5.6875 25.0508 6.94922 26.3125 8.5 26.3125H23.5C25.0508 26.3125 26.3125 25.0508 26.3125 23.5V8.5C26.3125 6.94922 25.0508 5.6875 23.5 5.6875ZM16 22.5625C12.3818 22.5625 9.4375 19.6182 9.4375 16C9.4375 12.3818 12.3818 9.4375 16 9.4375C19.6182 9.4375 22.5625 12.3818 22.5625 16C22.5625 19.6182 19.6182 22.5625 16 22.5625ZM22.5625 11.3125C21.5288 11.3125 20.6875 10.4712 20.6875 9.4375C20.6875 8.40381 21.5288 7.5625 22.5625 7.5625C23.5962 7.5625 24.4375 8.40381 24.4375 9.4375C24.4375 10.4712 23.5962 11.3125 22.5625 11.3125Z" fill="#42526B"/>
<path d="M16 11.3125C13.4155 11.3125 11.3125 13.4155 11.3125 16C11.3125 18.5845 13.4155 20.6875 16 20.6875C18.5845 20.6875 20.6875 18.5845 20.6875 16C20.6875 13.4155 18.5845 11.3125 16 11.3125Z" fill="#42526B"/>
<path d="M27.25 0H4.75C2.16553 0 0 2.16553 0 4.75V27.25C0 29.8345 2.16553 32 4.75 32H27.25C29.8345 32 32 29.8345 32 27.25V4.75C32 2.16553 29.8345 0 27.25 0ZM28.1875 23.5C28.1875 26.0845 26.0845 28.1875 23.5 28.1875H8.5C5.91553 28.1875 3.8125 26.0845 3.8125 23.5V8.5C3.8125 5.91553 5.91553 3.8125 8.5 3.8125H23.5C26.0845 3.8125 28.1875 5.91553 28.1875 8.5V23.5Z" fill="#42526B"/>
</g>
<defs>
<clipPath id="clip0_30_10700">
<rect width="32" height="32" fill="white"/>
</clipPath>
</defs>
</svg>
