<svg width="150" height="60" viewBox="0 0 150 60" fill="none" xmlns="http://www.w3.org/2000/svg">
<path fill-rule="evenodd" clip-rule="evenodd" d="M27.7508 53.1002C40.4246 53.1002 50.7008 42.824 50.7008 30.1502C50.7008 17.4763 40.4246 7.2002 27.7508 7.2002C15.0769 7.2002 4.80078 17.4763 4.80078 30.1502C4.80078 42.824 15.0769 53.1002 27.7508 53.1002ZM34.0721 35.8643L28.1399 21.213L25.1038 28.8111L34.0721 35.8643ZM29.5412 17.2739L38.6807 39.2585C38.7743 39.5231 38.8364 39.7724 38.8364 39.9437C38.8364 40.9091 38.0423 41.5784 37.1549 41.5784C36.719 41.5784 36.3764 41.4071 35.8937 41.018L24.0451 31.4426L20.0747 41.3915H16.6494L26.6764 17.2739C26.9255 16.6511 27.4704 16.3086 28.1244 16.3086C28.7783 16.3086 29.2766 16.6355 29.5412 17.2739Z" fill="#1B1918"/>
<path d="M82.1509 37.0165C81.9172 37.0165 81.6526 36.9544 81.4813 36.7207L73.8676 26.7093V36.9076H72.1393V24.3426C72.1393 23.8288 72.5596 23.4396 73.0267 23.4396C73.3072 23.4396 73.5406 23.5174 73.7119 23.7665L81.2944 33.7468V23.5797H83.0227V36.1291C83.0227 36.6118 82.6489 37.0009 82.1662 37.0165H82.1509ZM92.1934 37.141C90.4651 37.141 88.6435 36.7831 86.9464 36.1447L87.3667 34.7122C88.9237 35.2261 90.6208 35.5684 92.1934 35.5684C94.3732 35.5684 95.5252 34.7899 95.5252 33.6847C95.5252 32.6881 94.6378 32.1898 91.5862 30.742C88.5343 29.2939 87.3355 28.3752 87.3355 26.5847C87.3355 24.3271 89.0638 23.4085 92.3491 23.4085C93.7036 23.4085 95.8054 23.6887 97.0045 24.0468L96.7243 25.5259C95.3074 25.1834 93.8437 25.0121 92.3803 24.981C90.0757 24.981 89.1262 25.417 89.1262 26.5224C89.1262 27.5968 89.8111 28.0638 93.0496 29.5585C96.4594 31.1467 97.3315 31.9408 97.3315 33.5755C97.3159 35.9578 95.0581 37.141 92.1934 37.141ZM101.224 23.5642H103.014V36.892H101.224V23.5642ZM114.988 30.6952H110.535V35.2105H114.988C116.498 35.2105 117.432 34.2451 117.432 32.9062C117.432 31.6606 116.467 30.6952 114.988 30.6952ZM114.116 24.9343H110.535V29.2004H114.116C115.548 29.2004 116.607 28.2818 116.607 27.0051C116.607 25.7439 115.704 24.9343 114.116 24.9343ZM115.003 36.7363H109.647C109.133 36.7363 108.744 36.3316 108.744 35.8333V24.3115C108.744 23.8132 109.149 23.4085 109.647 23.4085H114.085C116.809 23.4085 118.413 24.7474 118.413 26.8494C118.413 28.0015 117.743 29.0447 116.716 29.6675C118.242 30.1345 119.254 31.3957 119.254 32.9062C119.269 35.0392 117.51 36.7363 115.003 36.7363ZM124.501 36.5962C124.003 36.5962 123.598 36.1759 123.598 35.6932V23.2528H125.388V34.9612H132.551V36.5806L124.501 36.5962ZM140.912 36.6739C137.237 36.6739 135.041 35.3194 135.041 32.5636C135.041 31.2556 135.773 30.0256 137.19 29.4496C136.038 28.7333 135.462 27.7057 135.462 26.5847C135.462 24.1091 137.377 22.9258 140.974 22.9258C142.422 22.9258 143.87 23.0815 145.286 23.3929L145.084 24.872C143.589 24.6385 142.188 24.4983 140.834 24.4983C138.514 24.4983 137.268 25.1367 137.268 26.6781C137.268 27.8925 138.405 28.8579 139.931 28.8579H142.998C143.418 28.8579 143.761 29.1849 143.761 29.6053V29.6208C143.761 30.0568 143.434 30.3994 142.998 30.3994H139.682C137.953 30.3994 136.848 31.2556 136.848 32.5792C136.848 34.5253 138.638 35.1013 140.88 35.1013C142.095 35.1013 143.761 34.9456 145.115 34.6189L145.364 36.0823C143.916 36.4717 142.422 36.6739 140.927 36.6895M62.3302 26.211L65.4754 34.0738L60.7267 30.2749L62.3302 26.211ZM67.9042 35.8798L63.0778 24.0779C62.9374 23.7354 62.6572 23.5642 62.3302 23.5642C61.9879 23.5642 61.6765 23.7665 61.5673 24.0779L56.2891 37.3747L58.0798 37.0165L60.1816 31.6762L66.4408 36.814C66.6898 37.0165 66.8767 37.1101 67.1104 37.1101C67.5928 37.1254 67.9822 36.7363 67.9978 36.2536V36.238C67.9822 36.1291 67.951 36.0046 67.9042 35.8798Z" fill="#1B1918"/>
</svg>
