<svg xmlns="http://www.w3.org/2000/svg" width="90" height="52" viewBox="0 0 90 52" fill="none">
  <mask id="mask0_4201_4926" style="mask-type:luminance" maskUnits="userSpaceOnUse" x="0" y="0" width="90" height="52">
    <path d="M89.9999 0H0V52H89.9999V0Z" fill="white"/>
  </mask>
  <g mask="url(#mask0_4201_4926)">
    <path d="M25.6553 18.8854C25.6553 19.9555 25.7724 20.8231 25.9779 21.4594C26.2124 22.0957 26.5058 22.7898 26.9166 23.5417C27.0632 23.7731 27.1219 24.0044 27.1219 24.2069C27.1219 24.4961 26.9458 24.7853 26.5645 25.0745L24.7166 26.2891C24.4527 26.4628 24.1885 26.5494 23.954 26.5494C23.6606 26.5494 23.3672 26.4048 23.074 26.1446C22.6632 25.7108 22.3114 25.2481 22.0179 24.7853C21.7245 24.2937 21.4314 23.7442 21.1087 23.079C18.8208 25.7397 15.9461 27.0702 12.4848 27.0702C10.0209 27.0702 8.05559 26.376 6.61849 24.9878C5.18107 23.5995 4.44775 21.7486 4.44775 19.4349C4.44775 16.9766 5.32773 14.9811 7.11691 13.4772C8.90638 11.9733 11.2822 11.2214 14.3035 11.2214C15.3008 11.2214 16.3274 11.3081 17.4127 11.4527C18.4979 11.5973 19.6127 11.8287 20.7861 12.089V9.97776C20.7861 7.77975 20.3166 6.24694 19.4074 5.35038C18.4687 4.45383 16.8848 4.02002 14.6261 4.02002C13.5995 4.02002 12.5435 4.13572 11.4582 4.396C10.373 4.65629 9.31691 4.97442 8.29033 5.37932C7.82112 5.58176 7.46901 5.69743 7.26375 5.75528C7.05822 5.81313 6.91165 5.84204 6.79428 5.84204C6.38375 5.84204 6.17849 5.55285 6.17849 4.94549V3.52836C6.17849 3.06563 6.23717 2.71859 6.38375 2.51613C6.53033 2.31368 6.79428 2.11123 7.20507 1.90879C8.23164 1.38821 9.46375 0.954395 10.9009 0.607342C12.3382 0.231368 13.8635 0.0578419 15.4769 0.0578419C18.9674 0.0578419 21.5193 0.838711 23.1619 2.40044C24.7753 3.96219 25.5966 6.3337 25.5966 9.51501V18.8854H25.6553ZM13.7461 23.2814C14.7143 23.2814 15.7114 23.1079 16.7674 22.7608C17.8235 22.4138 18.7622 21.7775 19.554 20.9099C20.0235 20.3604 20.3753 19.7531 20.5514 19.059C20.7274 18.3648 20.8448 17.5261 20.8448 16.5428V15.3281C19.994 15.1257 19.0848 14.9522 18.1461 14.8365C17.2074 14.7208 16.2982 14.663 15.3887 14.663C13.4235 14.663 11.9861 15.0389 11.0182 15.8198C10.0503 16.6007 9.58085 17.6997 9.58085 19.1457C9.58085 20.505 9.93296 21.5172 10.6664 22.2114C11.3703 22.9344 12.3969 23.2814 13.7461 23.2814ZM37.3003 26.4048C36.7721 26.4048 36.4203 26.3182 36.1856 26.1157C35.9508 25.9421 35.7456 25.5373 35.5695 24.9878L28.6764 2.63182C28.5006 2.05339 28.4124 1.67742 28.4124 1.47497C28.4124 1.01223 28.6471 0.751946 29.1164 0.751946H31.9911C32.5485 0.751946 32.9298 0.838711 33.135 1.04116C33.3698 1.21468 33.5456 1.61958 33.7216 2.16908L38.6495 21.3148L43.2253 2.16908C43.3721 1.59066 43.5482 1.21468 43.7827 1.04116C44.0174 0.86763 44.4279 0.751946 44.9561 0.751946H47.3027C47.86 0.751946 48.2413 0.838711 48.4758 1.04116C48.7105 1.21468 48.9158 1.61958 49.0332 2.16908L53.6679 21.5462L58.7424 2.16908C58.9184 1.59066 59.1237 1.21468 59.329 1.04116C59.5637 0.86763 59.945 0.751946 60.4729 0.751946H63.2008C63.6703 0.751946 63.9342 0.983315 63.9342 1.47497C63.9342 1.61958 63.9047 1.76418 63.8755 1.93771C63.8463 2.11123 63.7876 2.3426 63.6703 2.66074L56.6011 25.0167C56.425 25.5951 56.2197 25.9711 55.985 26.1446C55.7505 26.3182 55.369 26.4339 54.8705 26.4339H52.3479C51.7905 26.4339 51.4092 26.3471 51.1745 26.1446C50.9398 25.9421 50.7345 25.5662 50.6171 24.9878L46.0705 6.3337L41.5534 24.9589C41.4069 25.5373 41.2308 25.9132 40.9961 26.1157C40.7613 26.3182 40.3508 26.4048 39.8229 26.4048H37.3003ZM74.9926 27.1859C73.4674 27.1859 71.9421 27.0122 70.4753 26.6651C69.0087 26.3182 67.8647 25.9422 67.1021 25.5083C66.6329 25.2481 66.31 24.9589 66.1929 24.6985C66.0755 24.4383 66.0168 24.1491 66.0168 23.8888V22.4138C66.0168 21.8065 66.2516 21.5172 66.6916 21.5172C66.8674 21.5172 67.0434 21.5462 67.2195 21.604C67.3955 21.6618 67.6595 21.7775 67.9526 21.8932C68.95 22.327 70.0352 22.6741 71.1792 22.9055C72.3526 23.1368 73.4966 23.2525 74.67 23.2525C76.5179 23.2525 77.9552 22.9344 78.9523 22.2981C79.9497 21.6618 80.4779 20.7364 80.4779 19.5506C80.4779 18.7408 80.2137 18.0756 79.6858 17.5261C79.1579 16.9766 78.1605 16.485 76.7231 16.0222L72.47 14.7208C70.3287 14.0556 68.7447 13.0723 67.7768 11.7708C66.8087 10.4983 66.31 9.0812 66.31 7.57731C66.31 6.36262 66.5742 5.29256 67.1021 4.36706C67.63 3.44159 68.3339 2.63182 69.2139 1.99555C70.0939 1.33037 71.0913 0.838711 72.2647 0.491657C73.4379 0.144605 74.67 0 75.9605 0C76.6058 0 77.2805 0.0289211 77.9258 0.115684C78.6005 0.202447 79.2166 0.318131 79.8323 0.433815C80.4192 0.578419 80.9763 0.723026 81.5044 0.896553C82.0323 1.07008 82.4431 1.2436 82.7363 1.41713C83.1471 1.6485 83.4402 1.87987 83.6163 2.14016C83.7924 2.37152 83.8802 2.68965 83.8802 3.09455V4.45383C83.8802 5.06119 83.6458 5.37932 83.2058 5.37932C82.971 5.37932 82.5897 5.26362 82.091 5.03225C80.4192 4.2803 78.5418 3.90434 76.4592 3.90434C74.7874 3.90434 73.4674 4.16463 72.5579 4.71414C71.6487 5.26362 71.1792 6.10233 71.1792 7.28809C71.1792 8.09788 71.4726 8.792 72.0592 9.34149C72.646 9.891 73.7313 10.4405 75.2858 10.9321L79.451 12.2336C81.5631 12.8988 83.0884 13.8243 83.9976 15.01C84.9071 16.1958 85.3471 17.5551 85.3471 19.059C85.3471 20.3026 85.0829 21.4305 84.5842 22.4138C84.0563 23.3971 83.3523 24.2647 82.4431 24.9589C81.5337 25.6819 80.4484 26.2025 79.1871 26.5785C77.8671 26.9833 76.4884 27.1859 74.9926 27.1859Z" fill="#252F3E"/>
    <path fill-rule="evenodd" clip-rule="evenodd" d="M80.5365 41.2413C70.8862 48.2691 56.8652 51.9998 44.8094 51.9998C27.9139 51.9998 12.6905 45.8396 1.19198 35.6016C0.282687 34.7917 1.10397 33.693 2.18929 34.3292C14.6263 41.4436 29.9673 45.7528 45.8362 45.7528C56.5425 45.7528 68.3049 43.555 79.1286 39.0433C80.742 38.3202 82.1207 40.0843 80.5365 41.2413Z" fill="#FF9900"/>
    <path fill-rule="evenodd" clip-rule="evenodd" d="M84.5552 36.7299C83.3234 35.1681 76.4008 35.978 73.2621 36.3539C72.3237 36.4696 72.1768 35.6597 73.0276 35.0526C78.5421 31.235 87.6058 32.3338 88.6618 33.6065C89.7179 34.9078 88.3684 43.8445 83.206 48.1249C82.4139 48.79 81.6513 48.4429 82.0034 47.5753C83.1766 44.7121 85.7871 38.2628 84.5552 36.7299Z" fill="#FF9900"/>
  </g>
</svg>