<svg xmlns="http://www.w3.org/2000/svg" width="150" height="60" viewBox="0 0 150 60" fill="none">
  <g clip-path="url(#clip0_4201_4934)">
    <path d="M25.8106 49.2929C30.1965 48.5198 34.5819 47.744 38.967 46.9652L39.0906 46.9391L32.3232 38.8922C28.6013 34.4663 25.556 30.8282 25.556 30.8075C25.556 30.7679 32.5437 11.531 32.583 11.4625C32.5962 11.4398 37.3515 19.6471 44.1105 31.358C50.4384 42.3218 55.6551 51.3614 55.7037 51.446L55.7919 51.5999L34.2849 51.5972L12.778 51.5942L25.8106 49.2929ZM108.287 47.3468C105.013 47.1371 103.109 45.2735 102.605 41.7854C102.47 40.8575 102.47 40.8332 102.456 34.8095L102.443 28.9791H105.341L105.352 34.6181C105.362 39.701 105.369 40.2971 105.417 40.6544C105.615 42.1055 106.007 43.0814 106.676 43.7816C107.211 44.3423 107.838 44.6705 108.705 44.8445C109.114 44.9267 110.278 44.9267 110.651 44.8448C111.53 44.6516 112.234 44.2691 112.856 43.6478C113.565 42.9401 114.088 41.9354 114.342 40.7999L114.427 40.4168L114.437 34.73L114.447 29.0429H117.405V46.9232H114.477V45.5048C114.477 44.5412 114.467 44.0897 114.444 44.0972C114.426 44.1032 114.351 44.2184 114.277 44.3528C113.773 45.2726 112.932 46.1138 112.011 46.6205C110.907 47.2277 109.8 47.4437 108.287 47.3468ZM141.516 47.3327C140.36 47.2457 139.143 46.8482 138.149 46.2332C136.053 44.9372 134.812 42.8006 134.449 39.86C134.324 38.8427 134.309 37.4759 134.413 36.6113C134.648 34.6793 135.407 32.7827 136.489 31.4288C136.766 31.082 137.395 30.4532 137.742 30.1763C138.677 29.4292 139.771 28.9069 140.94 28.6498C141.619 28.5016 142.813 28.432 143.534 28.4988C145.345 28.6666 147.004 29.5187 148.132 30.86C149.278 32.2229 149.908 34.1273 149.988 36.4718C150.001 36.8393 150.004 37.4834 149.995 37.9034L149.979 38.6672L143.638 38.675L137.296 38.6828V38.966C137.296 39.8273 137.506 40.808 137.868 41.6426C138.18 42.3623 138.717 43.148 139.158 43.5284C140.06 44.3081 141.164 44.7749 142.372 44.8871C142.82 44.9288 143.962 44.8847 144.473 44.8064C145.93 44.5826 147.315 44.0114 148.433 43.1732C148.525 43.1033 148.618 43.0349 148.713 42.9683C148.745 42.9479 148.753 43.2056 148.753 44.2889L148.751 45.6347L148.452 45.8201C147.186 46.6022 145.737 47.1044 144.203 47.2925C143.744 47.3486 142.064 47.3741 141.516 47.3327ZM147.035 35.9822C147.035 34.5395 146.427 32.9369 145.566 32.1119C144.952 31.523 144.21 31.163 143.327 31.0265C142.909 30.962 142.03 30.9869 141.589 31.0754C140.659 31.2638 139.889 31.6727 139.218 32.3357C138.511 33.0335 137.981 33.8816 137.648 34.8473C137.528 35.1947 137.389 35.7647 137.345 36.0821L137.324 36.2333H147.035L147.035 35.9822ZM61.0167 46.8833C61.0239 46.8614 63.1776 41.2064 65.8017 34.3163L70.5735 21.7891H73.6398L73.767 22.115C74.1558 23.1116 83.3199 46.8959 83.3199 46.9085C83.3199 46.9163 82.5858 46.9232 81.6888 46.9229L80.0577 46.9226L78.7368 43.4072L77.4159 39.8918H66.7803L66.7338 40.0112C66.7083 40.0769 66.1443 41.6585 65.4798 43.526L64.2723 46.922L62.6373 46.9226C61.3437 46.9229 61.0059 46.9148 61.0167 46.8833ZM76.4457 37.2092C76.4457 37.2035 75.5565 34.7948 74.4702 31.8563C72.4377 26.3588 72.3243 26.0281 72.1635 25.1454C72.0885 24.7317 72.0501 24.7203 72.0054 25.0978C71.9736 25.3675 71.8353 25.9717 71.7282 26.3066C71.6751 26.473 70.7601 28.984 69.6945 31.8872C68.6289 34.79 67.7571 37.1771 67.7571 37.1921C67.7571 37.2071 69.7119 37.2194 72.1011 37.2194C74.4906 37.2194 76.4457 37.2146 76.4457 37.2092ZM84.3063 46.4651V46.0076L89.6049 38.7263L94.9032 31.445L90.1059 31.4288L85.3089 31.4129L85.3005 30.1961L85.2921 28.9791H99.1689V29.8012L93.87 37.1222C90.9555 41.1488 88.5711 44.45 88.5711 44.4584C88.5711 44.4665 90.927 44.4734 93.8064 44.4734H99.0417V46.9232H84.3063V46.4651ZM123.187 46.9019C123.175 46.8902 123.166 42.8528 123.166 37.9301V28.9791H126.062V30.8246C126.062 31.8395 126.074 32.6699 126.089 32.6699C126.104 32.6699 126.175 32.5037 126.246 32.3006C126.571 31.3703 127.136 30.5009 127.864 29.8097C128.518 29.1874 129.268 28.8151 130.151 28.6725C130.4 28.6329 130.61 28.6249 131.106 28.638C131.73 28.6541 132.056 28.6997 132.435 28.8236L132.554 28.8627V31.8677L132.212 31.6967C131.608 31.3943 131.011 31.2743 130.294 31.3118C129.828 31.3358 129.522 31.3961 129.149 31.5356C128.392 31.8155 127.749 32.3399 127.324 33.0257C126.694 34.0301 126.245 35.3207 126.113 36.5072C126.089 36.7199 126.075 38.4539 126.069 41.8724L126.061 46.9232H124.635C123.85 46.9232 123.199 46.9136 123.187 46.9019ZM0 46.8389C0 46.8275 3.1887 41.2943 7.08606 34.5422L14.1721 22.2661L22.43 15.3384C26.9716 11.5282 30.7002 8.40573 30.7152 8.40006C30.7299 8.39439 30.6702 8.5446 30.582 8.73387C30.4944 8.92344 26.4592 17.5754 21.6153 27.9607L12.808 46.8431L6.40404 46.8515C2.88199 46.856 0 46.8503 0 46.8389Z" fill="#0089D6"/>
  </g>
  <defs>
    <clipPath id="clip0_4201_4934">
      <rect width="150" height="60" fill="white"/>
    </clipPath>
  </defs>
</svg>