<svg width="126" height="50" viewBox="0 0 126 50" fill="none" xmlns="http://www.w3.org/2000/svg">
<path d="M65.8186 21.9215H62.3809V12.2441H65.8469C66.8226 12.2441 67.6624 12.4379 68.3664 12.8253C69.0701 13.2097 69.6116 13.7625 69.9906 14.4839C70.3724 15.2053 70.5636 16.0685 70.5636 17.0734C70.5636 18.0814 70.3724 18.9477 69.9906 19.6723C69.6116 20.3968 69.0671 20.9529 68.3569 21.3403C67.6496 21.7278 66.8036 21.9215 65.8186 21.9215ZM64.4311 20.1685H65.7334C66.3394 20.1685 66.8494 20.0614 67.2629 19.8472C67.6796 19.6298 67.9921 19.2943 68.2004 18.8406C68.4121 18.3839 68.5179 17.7948 68.5179 17.0734C68.5179 16.3583 68.4121 15.7739 68.2004 15.3203C67.9921 14.8667 67.6814 14.5327 67.2676 14.3185C66.8541 14.1043 66.3444 13.9972 65.7381 13.9972H64.4311V20.1685ZM75.3591 22.0632C74.6111 22.0632 73.9671 21.9121 73.4271 21.6097C72.8906 21.3041 72.4769 20.8726 72.1866 20.3149C71.8961 19.7542 71.7509 19.0911 71.7509 18.3256C71.7509 17.579 71.8961 16.9237 72.1866 16.3599C72.4769 15.796 72.8859 15.3565 73.4131 15.0415C73.9434 14.7265 74.5654 14.569 75.2786 14.569C75.7586 14.569 76.2054 14.6461 76.6189 14.8005C77.0356 14.9517 77.3986 15.1801 77.7081 15.4857C78.0204 15.7912 78.2636 16.1756 78.4371 16.6386C78.6109 17.0986 78.6976 17.6373 78.6976 18.2547V18.8076H72.5559V17.5601H76.7989C76.7989 17.2703 76.7356 17.0135 76.6094 16.7899C76.4831 16.5662 76.3079 16.3914 76.0836 16.2654C75.8626 16.1362 75.6054 16.0716 75.3119 16.0716C75.0056 16.0716 74.7341 16.1425 74.4974 16.2843C74.2639 16.4229 74.0806 16.6103 73.9481 16.8466C73.8156 17.0797 73.7476 17.3396 73.7444 17.6262V18.8123C73.7444 19.1714 73.8109 19.4817 73.9434 19.7432C74.0791 20.0047 74.2701 20.2063 74.5164 20.348C74.7626 20.4897 75.0546 20.5606 75.3924 20.5606C75.6164 20.5606 75.8216 20.5291 76.0079 20.4661C76.1944 20.4031 76.3536 20.3086 76.4864 20.1826C76.6189 20.0566 76.7199 19.9023 76.7894 19.7196L78.6551 19.8424C78.5604 20.2897 78.3661 20.6803 78.0726 21.0143C77.7821 21.3451 77.4066 21.6034 76.9456 21.7892C76.4879 21.9719 75.9591 22.0632 75.3591 22.0632ZM86.5999 14.6635L84.0569 21.9215H81.7839L79.2411 14.6635H81.3721L82.8826 19.8566H82.9584L84.4644 14.6635H86.5999ZM96.5821 17.0828C96.5821 18.1381 96.3816 19.0359 95.9806 19.7763C95.5829 20.5165 95.0399 21.082 94.3516 21.4726C93.6666 21.8601 92.8964 22.0538 92.0409 22.0538C91.1789 22.0538 90.4056 21.8585 89.7204 21.4679C89.0354 21.0773 88.4941 20.5118 88.0964 19.7716C87.6984 19.0312 87.4996 18.135 87.4996 17.0828C87.4996 16.0275 87.6984 15.1297 88.0964 14.3894C88.4941 13.6491 89.0354 13.0852 89.7204 12.6977C90.4056 12.3071 91.1789 12.1118 92.0409 12.1118C92.8964 12.1118 93.6666 12.3071 94.3516 12.6977C95.0399 13.0852 95.5829 13.6491 95.9806 14.3894C96.3816 15.1297 96.5821 16.0275 96.5821 17.0828ZM94.5031 17.0828C94.5031 16.3992 94.4006 15.8227 94.1954 15.3534C93.9934 14.884 93.7076 14.528 93.3384 14.2854C92.9689 14.0429 92.5364 13.9216 92.0409 13.9216C91.5451 13.9216 91.1126 14.0429 90.7434 14.2854C90.3739 14.528 90.0866 14.884 89.8816 15.3534C89.6794 15.8227 89.5784 16.3992 89.5784 17.0828C89.5784 17.7664 89.6794 18.3429 89.8816 18.8123C90.0866 19.2817 90.3739 19.6376 90.7434 19.8802C91.1126 20.1228 91.5451 20.244 92.0409 20.244C92.5364 20.244 92.9689 20.1228 93.3384 19.8802C93.7076 19.6376 93.9934 19.2817 94.1954 18.8123C94.4006 18.3429 94.5031 17.7664 94.5031 17.0828ZM98.0629 24.6433V14.6635H100.052V15.8826H100.142C100.23 15.6873 100.358 15.4888 100.525 15.2872C100.696 15.0824 100.917 14.9123 101.188 14.7769C101.463 14.6383 101.804 14.569 102.211 14.569C102.742 14.569 103.231 14.7076 103.679 14.9848C104.127 15.2589 104.486 15.6731 104.754 16.2275C105.022 16.7788 105.157 17.4703 105.157 18.3019C105.157 19.1116 105.026 19.7952 104.764 20.3527C104.505 20.9072 104.151 21.3277 103.703 21.6144C103.258 21.8979 102.759 22.0396 102.207 22.0396C101.815 22.0396 101.482 21.975 101.207 21.8459C100.936 21.7168 100.713 21.5545 100.54 21.3592C100.366 21.1608 100.233 20.9608 100.142 20.7591H100.08V24.6433H98.0629ZM100.038 18.2925C100.038 18.7241 100.098 19.1005 100.218 19.4218C100.338 19.7432 100.511 19.9936 100.738 20.1732C100.966 20.3496 101.242 20.4378 101.567 20.4378C101.896 20.4378 102.173 20.348 102.401 20.1685C102.628 19.9858 102.8 19.7338 102.917 19.4124C103.037 19.0879 103.097 18.7146 103.097 18.2925C103.097 17.8735 103.038 17.5049 102.922 17.1868C102.805 16.8686 102.633 16.6197 102.405 16.4402C102.178 16.2606 101.899 16.1708 101.567 16.1708C101.239 16.1708 100.961 16.2575 100.734 16.4307C100.51 16.604 100.338 16.8497 100.218 17.1679C100.098 17.486 100.038 17.8609 100.038 18.2925ZM112.553 16.7332L110.707 16.8466C110.675 16.6891 110.608 16.5473 110.503 16.4213C110.399 16.2921 110.262 16.1897 110.091 16.1141C109.924 16.0354 109.723 15.996 109.49 15.996C109.177 15.996 108.913 16.0622 108.699 16.1945C108.484 16.3236 108.377 16.4969 108.377 16.7143C108.377 16.8875 108.446 17.034 108.585 17.1537C108.724 17.2734 108.962 17.3695 109.3 17.442L110.616 17.7066C111.323 17.8515 111.851 18.0846 112.198 18.4059C112.546 18.7272 112.719 19.1494 112.719 19.6723C112.719 20.148 112.579 20.5653 112.297 20.9245C112.02 21.2836 111.638 21.564 111.151 21.7656C110.669 21.964 110.111 22.0632 109.48 22.0632C108.517 22.0632 107.75 21.8632 107.179 21.4632C106.61 21.06 106.277 20.5118 106.18 19.8188L108.164 19.7149C108.224 20.0078 108.369 20.2314 108.599 20.3858C108.83 20.537 109.125 20.6126 109.485 20.6126C109.838 20.6126 110.123 20.5449 110.337 20.4094C110.555 20.2708 110.665 20.0929 110.669 19.8755C110.665 19.6928 110.588 19.5431 110.436 19.4266C110.285 19.3069 110.051 19.2155 109.736 19.1525L108.476 18.9021C107.766 18.7603 107.237 18.5146 106.89 18.1649C106.546 17.8152 106.374 17.3695 106.374 16.8277C106.374 16.3614 106.5 15.9598 106.752 15.6227C107.008 15.2856 107.367 15.0257 107.827 14.843C108.291 14.6603 108.834 14.569 109.456 14.569C110.375 14.569 111.098 14.7627 111.625 15.1502C112.156 15.5377 112.465 16.0653 112.553 16.7332ZM62.3809 38.0466V28.3691H66.2069C66.9426 28.3691 67.5691 28.5094 68.0869 28.7896C68.6046 29.0669 68.9994 29.4529 69.2709 29.9474C69.5454 30.4389 69.6826 31.0059 69.6826 31.6484C69.6826 32.2911 69.5439 32.8581 69.2659 33.3496C68.9881 33.8411 68.5856 34.2236 68.0584 34.4979C67.5344 34.7719 66.8999 34.9089 66.1549 34.9089H63.7161V33.2694H65.8234C66.2181 33.2694 66.5431 33.2016 66.7989 33.0661C67.0576 32.9274 67.2504 32.7369 67.3766 32.4944C67.5059 32.2486 67.5706 31.9666 67.5706 31.6484C67.5706 31.3271 67.5059 31.0469 67.3766 30.8074C67.2504 30.5649 67.0576 30.3774 66.7989 30.2451C66.5401 30.1096 66.2116 30.0419 65.8139 30.0419H64.4311V38.0466H62.3809ZM70.9766 38.0466V30.7884H72.9324V32.0549H73.0081C73.1406 31.6044 73.3634 31.2641 73.6759 31.0341C73.9884 30.8011 74.3481 30.6846 74.7554 30.6846C74.8564 30.6846 74.9654 30.6909 75.0824 30.7034C75.1991 30.7161 75.3016 30.7334 75.3901 30.7554V32.5416C75.2954 32.5131 75.1644 32.4881 74.9969 32.4661C74.8296 32.4439 74.6766 32.4329 74.5376 32.4329C74.2409 32.4329 73.9756 32.4976 73.7421 32.6266C73.5116 32.7526 73.3286 32.9291 73.1929 33.1559C73.0601 33.3826 72.9939 33.6441 72.9939 33.9401V38.0466H70.9766ZM78.2986 38.1836C77.8346 38.1836 77.4211 38.1031 77.0581 37.9426C76.6949 37.7789 76.4079 37.5379 76.1961 37.2196C75.9879 36.8984 75.8836 36.4981 75.8836 36.0194C75.8836 35.6161 75.9579 35.2776 76.1064 35.0034C76.2546 34.7294 76.4566 34.5089 76.7124 34.3419C76.9681 34.1749 77.2586 34.0489 77.5836 33.9639C77.9119 33.8789 78.2561 33.8191 78.6161 33.7844C79.0391 33.7401 79.3801 33.6994 79.6389 33.6616C79.8976 33.6204 80.0856 33.5606 80.2024 33.4819C80.3191 33.4031 80.3776 33.2866 80.3776 33.1324V33.1039C80.3776 32.8046 80.2829 32.5731 80.0934 32.4094C79.9071 32.2454 79.6421 32.1636 79.2979 32.1636C78.9349 32.1636 78.6461 32.2439 78.4314 32.4046C78.2166 32.5621 78.0746 32.7606 78.0051 32.9999L76.1394 32.8486C76.2341 32.4076 76.4204 32.0264 76.6981 31.7051C76.9761 31.3806 77.3344 31.1319 77.7731 30.9586C78.2151 30.7821 78.7264 30.6939 79.3074 30.6939C79.7114 30.6939 80.0981 30.7414 80.4676 30.8359C80.8401 30.9304 81.1699 31.0766 81.4571 31.2751C81.7476 31.4736 81.9766 31.7289 82.1439 32.0406C82.3111 32.3494 82.3949 32.7196 82.3949 33.1511V38.0466H80.4819V37.0401H80.4249C80.3081 37.2669 80.1519 37.4669 79.9561 37.6401C79.7604 37.8104 79.5254 37.9441 79.2506 38.0419C78.9759 38.1364 78.6586 38.1836 78.2986 38.1836ZM78.8764 36.7944C79.1731 36.7944 79.4351 36.7361 79.6626 36.6196C79.8899 36.4999 80.0681 36.3391 80.1976 36.1374C80.3271 35.9359 80.3919 35.7076 80.3919 35.4524V34.6821C80.3286 34.7231 80.2419 34.7609 80.1314 34.7954C80.0239 34.8269 79.9024 34.8569 79.7666 34.8854C79.6309 34.9104 79.4951 34.9341 79.3594 34.9561C79.2236 34.9751 79.1006 34.9924 78.9901 35.0081C78.7534 35.0429 78.5466 35.0979 78.3699 35.1736C78.1931 35.2491 78.0556 35.3516 77.9579 35.4806C77.8599 35.6069 77.8109 35.7644 77.8109 35.9534C77.8109 36.2274 77.9104 36.4369 78.1094 36.5816C78.3114 36.7234 78.5671 36.7944 78.8764 36.7944ZM87.2461 38.1884C86.5011 38.1884 85.8604 38.0309 85.3236 37.7159C84.7901 37.3976 84.3796 36.9566 84.0924 36.3926C83.8084 35.8289 83.6664 35.1799 83.6664 34.4459C83.6664 33.7024 83.8099 33.0504 84.0971 32.4896C84.3876 31.9256 84.7996 31.4861 85.3331 31.1711C85.8666 30.8531 86.5011 30.6939 87.2369 30.6939C87.8714 30.6939 88.4269 30.8089 88.9036 31.0389C89.3804 31.2689 89.7576 31.5916 90.0354 32.0076C90.3131 32.4234 90.4664 32.9116 90.4946 33.4724H88.5911C88.5374 33.1101 88.3954 32.8189 88.1649 32.5984C87.9376 32.3746 87.6394 32.2629 87.2699 32.2629C86.9574 32.2629 86.6844 32.3479 86.4506 32.5179C86.2204 32.6849 86.0404 32.9291 85.9109 33.2504C85.7814 33.5716 85.7166 33.9606 85.7166 34.4176C85.7166 34.8806 85.7799 35.2744 85.9061 35.5989C86.0356 35.9234 86.2171 36.1706 86.4506 36.3406C86.6844 36.5109 86.9574 36.5959 87.2699 36.5959C87.5004 36.5959 87.7071 36.5486 87.8904 36.4541C88.0764 36.3596 88.2296 36.2226 88.3496 36.0429C88.4726 35.8604 88.5531 35.6414 88.5911 35.3861H90.4946C90.4631 35.9406 90.3116 36.4289 90.0401 36.8511C89.7719 37.2699 89.4009 37.5976 88.9274 37.8339C88.4539 38.0701 87.8934 38.1884 87.2461 38.1884ZM95.6551 30.7884V32.3006H91.2749V30.7884H95.6551ZM92.2691 29.0496H94.2866V35.8161C94.2866 36.0021 94.3149 36.1469 94.3719 36.2509C94.4286 36.3516 94.5076 36.4226 94.6086 36.4636C94.7126 36.5046 94.8326 36.5251 94.9686 36.5251C95.0631 36.5251 95.1579 36.5171 95.2526 36.5014C95.3474 36.4824 95.4199 36.4684 95.4704 36.4589L95.7876 37.9566C95.6866 37.9881 95.5446 38.0246 95.3614 38.0654C95.1784 38.1096 94.9559 38.1364 94.6939 38.1456C94.2076 38.1646 93.7814 38.1001 93.4154 37.9521C93.0521 37.8041 92.7696 37.5741 92.5676 37.2621C92.3656 36.9504 92.2661 36.5566 92.2691 36.0809V29.0496ZM96.9691 38.0466V30.7884H98.9864V38.0466H96.9691ZM97.9826 29.8529C97.6826 29.8529 97.4254 29.7536 97.2106 29.5551C96.9991 29.3536 96.8934 29.1126 96.8934 28.8321C96.8934 28.5551 96.9991 28.3171 97.2106 28.1186C97.4254 27.9171 97.6826 27.8161 97.9826 27.8161C98.2824 27.8161 98.5381 27.9171 98.7496 28.1186C98.9644 28.3171 99.0716 28.5551 99.0716 28.8321C99.0716 29.1126 98.9644 29.3536 98.7496 29.5551C98.5381 29.7536 98.2824 29.8529 97.9826 29.8529ZM103.889 38.1884C103.144 38.1884 102.503 38.0309 101.966 37.7159C101.433 37.3976 101.022 36.9566 100.735 36.3926C100.451 35.8289 100.309 35.1799 100.309 34.4459C100.309 33.7024 100.452 33.0504 100.74 32.4896C101.03 31.9256 101.442 31.4861 101.976 31.1711C102.509 30.8531 103.144 30.6939 103.879 30.6939C104.514 30.6939 105.069 30.8089 105.546 31.0389C106.023 31.2689 106.4 31.5916 106.678 32.0076C106.956 32.4234 107.109 32.9116 107.137 33.4724H105.234C105.18 33.1101 105.038 32.8189 104.807 32.5984C104.58 32.3746 104.282 32.2629 103.912 32.2629C103.6 32.2629 103.327 32.3479 103.093 32.5179C102.863 32.6849 102.683 32.9291 102.553 33.2504C102.424 33.5716 102.359 33.9606 102.359 34.4176C102.359 34.8806 102.422 35.2744 102.549 35.5989C102.678 35.9234 102.86 36.1706 103.093 36.3406C103.327 36.5109 103.6 36.5959 103.912 36.5959C104.143 36.5959 104.35 36.5486 104.533 36.4541C104.719 36.3596 104.872 36.2226 104.992 36.0429C105.115 35.8604 105.196 35.6414 105.234 35.3861H107.137C107.106 35.9406 106.954 36.4289 106.683 36.8511C106.414 37.2699 106.043 37.5976 105.57 37.8339C105.096 38.0701 104.536 38.1884 103.889 38.1884ZM111.744 38.1884C110.995 38.1884 110.352 38.0371 109.811 37.7346C109.275 37.4291 108.861 36.9976 108.571 36.4399C108.28 35.8791 108.135 35.2161 108.135 34.4506C108.135 33.7041 108.28 33.0489 108.571 32.4849C108.861 31.9209 109.27 31.4816 109.797 31.1666C110.328 30.8514 110.95 30.6939 111.663 30.6939C112.143 30.6939 112.589 30.7711 113.004 30.9254C113.42 31.0766 113.783 31.3051 114.092 31.6106C114.404 31.9164 114.648 32.3006 114.822 32.7636C114.995 33.2236 115.082 33.7624 115.082 34.3799V34.9326H108.94V33.6851H113.183C113.183 33.3954 113.12 33.1386 112.994 32.9149C112.868 32.6911 112.692 32.5164 112.469 32.3904C112.247 32.2611 111.99 32.1966 111.696 32.1966C111.39 32.1966 111.118 32.2674 110.881 32.4094C110.648 32.5479 110.465 32.7354 110.332 32.9716C110.2 33.2046 110.132 33.4646 110.129 33.7511V34.9374C110.129 35.2964 110.195 35.6069 110.328 35.8681C110.463 36.1296 110.655 36.3314 110.901 36.4731C111.147 36.6146 111.439 36.6856 111.777 36.6856C112.001 36.6856 112.206 36.6541 112.393 36.5911C112.579 36.5281 112.738 36.4336 112.871 36.3076C113.004 36.1816 113.104 36.0274 113.174 35.8446L115.039 35.9674C114.945 36.4146 114.75 36.8054 114.457 37.1394C114.167 37.4701 113.791 37.7284 113.33 37.9141C112.872 38.0969 112.343 38.1884 111.744 38.1884ZM122.45 32.8581L120.604 32.9716C120.572 32.8141 120.504 32.6724 120.399 32.5464C120.296 32.4171 120.159 32.3149 119.987 32.2391C119.821 32.1604 119.62 32.1209 119.386 32.1209C119.074 32.1209 118.81 32.1871 118.595 32.3194C118.381 32.4486 118.274 32.6219 118.274 32.8391C118.274 33.0126 118.343 33.1589 118.482 33.2786C118.621 33.3984 118.86 33.4944 119.197 33.5669L120.514 33.8316C121.22 33.9766 121.748 34.2096 122.095 34.5309C122.442 34.8521 122.616 35.2744 122.616 35.7974C122.616 36.2731 122.476 36.6904 122.194 37.0494C121.917 37.4086 121.535 37.6891 121.049 37.8906C120.565 38.0891 120.009 38.1884 119.377 38.1884C118.414 38.1884 117.647 37.9881 117.076 37.5881C116.507 37.1849 116.174 36.6369 116.076 35.9439L118.06 35.8399C118.12 36.1329 118.266 36.3564 118.497 36.5109C118.727 36.6621 119.022 36.7376 119.382 36.7376C119.735 36.7376 120.02 36.6699 120.234 36.5344C120.452 36.3959 120.562 36.2179 120.565 36.0004C120.562 35.8179 120.485 35.6681 120.333 35.5516C120.182 35.4319 119.949 35.3406 119.633 35.2776L118.373 35.0271C117.663 34.8854 117.134 34.6396 116.787 34.2899C116.443 33.9401 116.271 33.4944 116.271 32.9526C116.271 32.4864 116.397 32.0849 116.65 31.7479C116.905 31.4106 117.264 31.1509 117.724 30.9681C118.189 30.7854 118.731 30.6939 119.353 30.6939C120.272 30.6939 120.994 30.8876 121.522 31.2751C122.053 31.6626 122.362 32.1904 122.45 32.8581Z" fill="#061C3D"/>
<path d="M41.3327 13.6987C36.3102 13.6987 32.6575 17.3438 31.516 18.4828L34.7122 21.6723C35.6252 20.761 38.1367 18.255 41.3327 18.255C44.3007 18.255 48.4103 20.3054 48.4103 25.0895C48.4103 29.8735 44.3007 31.924 41.3327 31.924C36.3102 31.924 33.7987 28.7345 29.9177 24.1782L29.233 23.267C25.1235 18.0272 21.4706 13.6987 14.3933 13.6987C8.68582 13.6987 2.75 18.0272 2.75 25.0895C2.75 32.1518 8.68582 36.4803 14.3933 36.4803C19.4159 36.4803 22.1555 33.9743 24.2103 31.696C25.1235 30.7848 25.1235 29.418 24.2103 28.5068C23.2971 27.5955 21.9273 27.5955 21.0141 28.5068C19.1876 30.3293 17.5896 31.924 14.3933 31.924C11.4254 31.924 7.31602 29.8735 7.31602 25.0895C7.31602 20.3054 11.4254 18.255 14.3933 18.255C19.4159 18.255 21.9273 21.4444 25.8085 26.0008L26.4932 26.912C30.6027 31.924 34.2555 36.4803 41.3327 36.4803C47.0405 36.4803 52.9762 32.1518 52.9762 25.0895C52.9762 18.0272 47.0405 13.6987 41.3327 13.6987Z" fill="#061C3D"/>
</svg>
