<svg width="150" height="38" viewBox="0 0 150 38" fill="none" xmlns="http://www.w3.org/2000/svg">
<mask id="mask0_4201_4983" style="mask-type:luminance" maskUnits="userSpaceOnUse" x="0" y="0" width="150" height="38">
<path d="M150 0.393066H0V37.6074H150V0.393066Z" fill="white"/>
</mask>
<g mask="url(#mask0_4201_4983)">
<path d="M42.5175 15.6829C41.4578 14.9047 38.6735 14.5724 36.6496 15.1677C36.5409 12.9682 35.5007 11.1145 33.5987 9.49701L32.8951 8.98172L32.4259 9.75503C31.5038 11.2821 31.1147 13.3174 31.2524 15.1677C31.361 16.3077 31.7242 17.5886 32.4259 18.5183C29.7916 20.1855 27.3629 19.8069 16.6082 19.8069H0.00367466C-0.0445148 22.4564 0.345612 27.5522 3.31608 31.7007C3.6445 32.1591 4.00378 32.6021 4.39454 33.029C6.80975 35.6675 10.4589 37.6026 15.9153 37.6074C24.24 37.616 31.3721 32.7066 35.7107 20.8382C37.1381 20.8634 40.9067 21.1172 42.7513 17.2296C42.7964 17.1644 43.2205 16.199 43.2205 16.199L42.5175 15.6829ZM10.84 13.2606H6.17091V18.3542H10.84V13.2606ZM16.8717 13.2606H12.2025V18.3542H16.8717V13.2606ZM22.9039 13.2606H18.2348V18.3542H22.9039V13.2606ZM28.9361 13.2606H24.2671V18.3542H28.9361V13.2606ZM4.80778 13.2606H0.138643V18.3542H4.80778V13.2606ZM10.84 6.82718H6.17091V11.9207H10.84V6.82718ZM16.8717 6.82718H12.2025V11.9207H16.8717V6.82718ZM22.9039 6.82718H18.2348V11.9207H22.9039V6.82718ZM22.9039 0.393066H18.2348V5.48667H22.9039V0.393066Z" fill="#1D63ED"/>
<path d="M149.712 28.3887C149.712 29.7165 148.756 30.7589 147.513 30.7589C146.27 30.7589 145.301 29.7165 145.301 28.3887C145.301 27.0607 146.282 26.0469 147.513 26.0469C148.744 26.0469 149.712 27.0893 149.712 28.3887ZM145.851 28.3887C145.851 29.4311 146.558 30.259 147.526 30.259C148.495 30.259 149.163 29.4311 149.163 28.4032C149.163 27.3756 148.469 26.5181 147.514 26.5181C146.56 26.5181 145.851 27.3607 145.851 28.3887ZM147.174 29.6169H146.676V27.2753C146.871 27.2326 147.147 27.2037 147.5 27.2037C147.906 27.2037 148.089 27.2753 148.246 27.3756C148.364 27.4751 148.456 27.6608 148.456 27.8892C148.456 28.1465 148.272 28.3464 148.012 28.4321V28.4608C148.22 28.5454 148.338 28.7174 148.404 29.0315C148.469 29.3885 148.508 29.5315 148.561 29.6169H148.025C147.959 29.5315 147.919 29.3175 147.854 29.0454C147.815 28.789 147.684 28.6746 147.409 28.6746H147.174V29.6169ZM147.185 28.2892H147.421C147.696 28.2892 147.918 28.1896 147.918 27.9467C147.918 27.7324 147.775 27.5885 147.46 27.5885C147.329 27.5885 147.238 27.6033 147.185 27.6188V28.2892Z" fill="#1D63ED"/>
<path d="M65.3714 4.68931C65.0635 4.36121 64.6941 4.19434 64.251 4.19434C63.8082 4.19434 63.4277 4.36121 63.1315 4.68931C62.8347 5.01744 62.6894 5.43811 62.6894 5.93942V14.3107C61.1664 12.9372 59.4083 12.2445 57.4091 12.2445C55.0852 12.2445 53.0979 13.1602 51.4514 14.9977C49.8049 16.8291 48.9873 19.0446 48.9873 21.643C48.9873 24.2414 49.8106 26.4507 51.4514 28.2882C53.0979 30.1195 55.0798 31.0414 57.4091 31.0414C59.738 31.0414 61.6985 30.1257 63.3667 28.2882C65.0133 26.475 65.8309 24.2603 65.8309 21.643V5.93942C65.8309 5.43811 65.6799 5.01744 65.3714 4.68931ZM62.2747 23.9075V23.9203C62.0003 24.6317 61.6252 25.2566 61.1496 25.7885C60.674 26.3269 60.1135 26.7475 59.4753 27.0631C58.8314 27.3787 58.148 27.5338 57.4148 27.5338C56.6815 27.5338 55.9817 27.3787 55.3375 27.0631C54.6936 26.7475 54.1391 26.3269 53.6692 25.795C53.1987 25.2628 52.8241 24.6382 52.5497 23.9265C52.2753 23.2085 52.1351 22.4479 52.1351 21.643C52.1351 20.8381 52.2753 20.0773 52.5497 19.3594C52.8241 18.6415 53.1993 18.0231 53.6692 17.4909C54.1398 16.9588 54.6996 16.5382 55.3375 16.2227C55.9817 15.9072 56.6704 15.7522 57.4148 15.7522C58.1591 15.7522 58.8314 15.9072 59.4753 16.2227C60.1192 16.5382 60.674 16.9588 61.1496 17.4973C61.6252 18.0358 62.0003 18.6604 62.2747 19.3657C62.5492 20.0773 62.6894 20.8324 62.6894 21.6366C62.6894 22.4407 62.5492 23.2023 62.2747 23.9075Z" fill="#1D63ED"/>
<path d="M134.95 18.0356C134.541 16.9216 133.918 15.9133 133.102 15.0096L133.09 15.0033C131.427 13.172 129.439 12.25 127.133 12.25C124.827 12.25 122.821 13.1657 121.174 15.0033C119.528 16.8346 118.711 19.0501 118.711 21.6484C118.711 24.2468 119.535 26.4561 121.174 28.2936C122.821 30.1249 124.804 31.0469 127.133 31.0469C129.249 31.0469 131.079 30.2862 132.637 28.7639C132.938 28.4176 133.09 27.997 133.09 27.5075C133.09 27.0183 132.946 26.5856 132.648 26.2576C132.351 25.9293 131.976 25.7626 131.528 25.7626C131.137 25.7753 130.789 25.9177 130.493 26.2021C130.023 26.6473 129.512 26.9879 128.959 27.2112C128.404 27.4341 127.799 27.5454 127.14 27.5454C126.557 27.5454 125.996 27.4465 125.465 27.2426C124.932 27.0386 124.435 26.7596 123.992 26.3951C123.543 26.0296 123.157 25.5972 122.828 25.0832C122.497 24.5755 122.246 24.0125 122.077 23.3942H133.988C134.429 23.3942 134.798 23.2275 135.107 22.8992C135.415 22.5712 135.567 22.1506 135.567 21.6491C135.567 20.35 135.359 19.1433 134.952 18.0356H134.95ZM122.065 19.9041C122.228 19.2913 122.474 18.7284 122.804 18.2151C123.136 17.7075 123.527 17.2686 123.975 16.9033C124.429 16.538 124.921 16.2597 125.464 16.0557C126.006 15.8516 126.56 15.7528 127.133 15.7528C127.705 15.7528 128.258 15.8516 128.795 16.0557C129.333 16.2597 129.826 16.538 130.267 16.9033C130.716 17.2686 131.108 17.7012 131.439 18.2151C131.774 18.7227 132.027 19.2857 132.201 19.9041H122.065Z" fill="#1D63ED"/>
<path d="M149.588 13.4258C149.308 13.1229 148.954 12.8873 148.529 12.7142C148.104 12.5409 147.639 12.4232 147.13 12.3552C146.626 12.2872 146.149 12.2563 145.708 12.2563C144.705 12.2563 143.765 12.4358 142.88 12.7948C141.995 13.1537 141.177 13.6669 140.427 14.3351V14.0014C140.427 13.519 140.276 13.1103 139.967 12.7702C139.66 12.4302 139.296 12.257 138.865 12.257C138.435 12.257 138.053 12.4302 137.746 12.7702C137.437 13.1103 137.286 13.5254 137.286 14.0014V29.3033C137.286 29.7856 137.437 30.1942 137.746 30.5342C138.053 30.8743 138.422 31.0475 138.865 31.0475C139.308 31.0475 139.665 30.8743 139.967 30.5342C140.276 30.1942 140.427 29.7791 140.427 29.3033V21.6492C140.427 20.8323 140.567 20.0653 140.841 19.3473C141.116 18.6294 141.491 18.0111 141.966 17.4789C142.443 16.9468 143.003 16.5261 143.641 16.2225C144.285 15.9133 144.968 15.7584 145.702 15.7584C146.437 15.7584 147.13 15.9007 147.763 16.1791C148.014 16.3031 148.233 16.3648 148.424 16.3648C148.642 16.3648 148.849 16.3214 149.039 16.2289C149.23 16.1362 149.398 16.0122 149.538 15.8516C149.678 15.6911 149.79 15.5053 149.874 15.2887C149.958 15.0783 150.003 14.849 150.003 14.6015C150.003 14.1191 149.863 13.7294 149.583 13.4258H149.588Z" fill="#1D63ED"/>
<path d="M83.8391 18.0427C83.4305 16.9348 82.8195 15.9204 81.997 15.0047C80.3346 13.1734 78.3461 12.2515 76.0393 12.2515C73.7321 12.2515 71.7281 13.1671 70.0816 15.0047C68.4351 16.836 67.6182 19.0515 67.6182 21.6499C67.6182 24.2482 68.4414 26.4574 70.0816 28.295C71.7281 30.1263 73.7103 31.0482 76.0393 31.0482C78.3681 31.0482 80.3285 30.1325 81.997 28.295C83.6435 26.4819 84.4607 24.2671 84.4607 21.6499C84.4494 20.3507 84.2416 19.1504 83.8391 18.0427ZM80.9046 23.9081V23.9209C80.6302 24.6323 80.2557 25.2572 79.7796 25.7891C79.3043 26.3276 78.7434 26.7482 78.1058 27.0638C77.4675 27.3793 76.7785 27.5343 76.0446 27.5343C75.3117 27.5343 74.6119 27.3793 73.9681 27.0638C73.3238 26.7482 72.7693 26.3276 72.2994 25.7957C71.8292 25.2634 71.4544 24.6389 71.1799 23.9271C70.9055 23.2092 70.7653 22.4485 70.7653 21.6435C70.7653 20.8387 70.9055 20.078 71.1799 19.3601C71.4544 18.6421 71.8298 18.0237 72.2994 17.4916C72.7699 16.9594 73.3298 16.5387 73.9681 16.2232C74.6119 15.9077 75.301 15.7528 76.0446 15.7528C76.7891 15.7528 77.4615 15.9077 78.1058 16.2232C78.7494 16.5387 79.3043 16.9594 79.7796 17.4979C80.2557 18.0363 80.6302 18.661 80.9046 19.3663C81.179 20.078 81.3193 20.8331 81.3193 21.6372C81.3193 22.4413 81.179 23.203 80.9046 23.9081Z" fill="#1D63ED"/>
<path d="M117.525 13.9959C117.525 13.7611 117.479 13.5381 117.396 13.3277C117.312 13.1174 117.2 12.926 117.06 12.7647C116.92 12.6042 116.752 12.4738 116.562 12.3875C116.372 12.3013 116.165 12.2516 115.946 12.2516C115.632 12.2516 115.352 12.3385 115.106 12.5179L106.113 19.046V5.95273C106.113 5.45775 105.962 5.04339 105.655 4.70265C105.347 4.3626 104.983 4.18945 104.552 4.18945C104.12 4.18945 103.74 4.3626 103.431 4.70265C103.124 5.0427 102.973 5.45775 102.973 5.95273V29.2794C102.973 29.762 103.124 30.1767 103.431 30.5233C103.739 30.8696 104.109 31.0428 104.552 31.0428C104.994 31.0428 105.352 30.8696 105.655 30.5233C105.962 30.1767 106.113 29.762 106.113 29.2794V23.2217L107.95 21.8793L114.899 30.585C115.179 30.8878 115.532 31.0366 115.952 31.0366C116.17 31.0366 116.378 30.9929 116.567 30.9005C116.757 30.8134 116.926 30.6838 117.065 30.5233C117.205 30.3628 117.318 30.1767 117.402 29.9604C117.486 29.7499 117.53 29.5205 117.53 29.2921C117.53 28.8343 117.385 28.4257 117.093 28.0674L110.626 19.9434L116.925 15.3771C117.327 15.0742 117.524 14.6101 117.524 13.9847V13.9973L117.525 13.9959Z" fill="#1D63ED"/>
<path d="M90.8991 17.4789C91.3805 16.9468 91.9407 16.526 92.5851 16.2225C93.2287 15.9133 93.9125 15.7583 94.6455 15.7583C95.3058 15.7583 95.9168 15.8825 96.4823 16.1292C97.0418 16.3767 97.58 16.742 98.0887 17.218C98.3911 17.4837 98.733 17.6198 99.1128 17.6198C99.5669 17.6198 99.9361 17.4529 100.233 17.1185C100.53 16.784 100.676 16.3634 100.676 15.8621C100.676 15.3608 100.496 14.8967 100.132 14.5384C98.5867 13.0163 96.7567 12.2549 94.6455 12.2549C92.3213 12.2549 90.3344 13.1705 88.6878 15.0082C87.0413 16.8394 86.2241 19.0549 86.2241 21.6533C86.2241 24.2515 87.0474 26.4608 88.6878 28.2983C90.3344 30.1297 92.316 31.0516 94.6455 31.0516C96.7507 31.0516 98.5814 30.2909 100.132 28.7682C100.463 28.3972 100.631 27.9704 100.631 27.4754C100.631 26.9803 100.485 26.5535 100.189 26.2251C99.8921 25.8972 99.5176 25.7301 99.0696 25.7301C98.6891 25.7428 98.3578 25.8662 98.0788 26.1012C97.5747 26.5835 97.0486 26.9424 96.4823 27.1835C95.9229 27.4247 95.3126 27.5425 94.6463 27.5425C93.9125 27.5425 93.2294 27.3878 92.5858 27.0785C91.9415 26.7695 91.382 26.3485 90.8999 25.8228C90.4185 25.2971 90.0372 24.6659 89.7628 23.9542C89.4884 23.2363 89.3481 22.4695 89.3481 21.6526C89.3481 20.8358 89.4884 20.0688 89.7628 19.3508C90.0372 18.6329 90.4178 18.0145 90.8999 17.4823V17.4761L90.8991 17.4789Z" fill="#1D63ED"/>
</g>
</svg>
