<svg xmlns="http://www.w3.org/2000/svg" width="150" height="60" viewBox="0 0 150 60" fill="none">
  <g clip-path="url(#clip0_4201_5021)">
    <mask id="mask0_4201_5021" style="mask-type:luminance" maskUnits="userSpaceOnUse" x="0" y="0" width="150" height="60">
      <path d="M150 0H0V60H150V0Z" fill="white"/>
    </mask>
    <g mask="url(#mask0_4201_5021)">
      <mask id="mask1_4201_5021" style="mask-type:luminance" maskUnits="userSpaceOnUse" x="3" y="11" width="144" height="33">
        <path d="M146.1 11.0996H3.59961V43.5071H146.1V11.0996Z" fill="white"/>
      </mask>
      <g mask="url(#mask1_4201_5021)">
        <path d="M43.9913 24.4145C42.9845 23.7368 40.3394 23.4474 38.4167 23.9658C38.3135 22.0505 37.3253 20.4362 35.5184 19.0276L34.85 18.5789L34.4042 19.2523C33.5282 20.5821 33.1586 22.3545 33.2894 23.9658C33.3926 24.9586 33.7376 26.074 34.4042 26.8836C31.9016 28.3355 29.5943 28.0058 19.3774 28.0058H3.6031C3.55732 30.3131 3.92794 34.7507 6.74989 38.3633C7.06189 38.7626 7.4032 39.1484 7.77442 39.5201C10.0689 41.8178 13.5356 43.5029 18.7192 43.5071C26.6277 43.5146 33.4031 39.2393 37.5248 28.9039C38.8808 28.9259 42.461 29.1469 44.2133 25.7614C44.2562 25.7047 44.6591 24.8639 44.6591 24.8639L43.9913 24.4152V24.4145ZM13.8977 22.3051H9.46198V26.7407H13.8977V22.3051ZM19.6277 22.3051H15.192V26.7407H19.6277V22.3051ZM25.3583 22.3051H20.9227V26.7407H25.3583V22.3051ZM31.0889 22.3051H26.6533V26.7407H31.0889V22.3051ZM8.167 22.3051H3.73132V26.7407H8.167V22.3051ZM13.8977 16.7026H9.46198V21.1383H13.8977V16.7026ZM19.6277 16.7026H15.192V21.1383H19.6277V16.7026ZM25.3583 16.7026H20.9227V21.1383H25.3583V16.7026ZM25.3583 11.0996H20.9227V15.5353H25.3583V11.0996Z" fill="#1D63ED"/>
        <path d="M145.825 35.4793C145.825 36.6355 144.917 37.5433 143.736 37.5433C142.555 37.5433 141.635 36.6355 141.635 35.4793C141.635 34.3228 142.567 33.4399 143.736 33.4399C144.906 33.4399 145.825 34.3477 145.825 35.4793ZM142.157 35.4793C142.157 36.3871 142.829 37.108 143.749 37.108C144.669 37.108 145.304 36.3871 145.304 35.4919C145.304 34.597 144.644 33.8503 143.737 33.8503C142.831 33.8503 142.158 34.5841 142.158 35.4793H142.157ZM143.414 36.5488H142.941V34.5097C143.127 34.4725 143.389 34.4473 143.724 34.4473C144.11 34.4473 144.283 34.5097 144.433 34.597C144.545 34.6837 144.632 34.8454 144.632 35.0443C144.632 35.2684 144.458 35.4424 144.21 35.5171V35.542C144.408 35.6158 144.52 35.7655 144.583 36.0391C144.644 36.3499 144.682 36.4744 144.732 36.5488H144.222C144.16 36.4744 144.122 36.2881 144.061 36.0511C144.023 35.8279 143.899 35.7283 143.638 35.7283H143.414V36.5494V36.5488ZM143.425 35.3926H143.649C143.91 35.3926 144.121 35.3059 144.121 35.0944C144.121 34.9078 143.986 34.7824 143.686 34.7824C143.562 34.7824 143.475 34.7953 143.425 34.8088V35.3926Z" fill="#1D63ED"/>
        <path d="M65.7036 14.8412C65.4111 14.5555 65.0601 14.4102 64.6392 14.4102C64.2186 14.4102 63.8571 14.5555 63.5757 14.8412C63.2937 15.1269 63.1557 15.4933 63.1557 15.9298V23.2198C61.7088 22.0238 60.0387 21.4205 58.1394 21.4205C55.9317 21.4205 54.0438 22.2179 52.4796 23.8182C50.9154 25.4129 50.1387 27.3423 50.1387 29.605C50.1387 31.8678 50.9208 33.7917 52.4796 35.3919C54.0438 36.9867 55.9266 37.7895 58.1394 37.7895C60.3519 37.7895 62.2143 36.9921 63.7992 35.3919C65.3634 33.813 66.1401 31.8843 66.1401 29.605V15.9298C66.1401 15.4933 65.9967 15.1269 65.7036 14.8412ZM62.7618 31.5771V31.5882C62.5011 32.2077 62.1447 32.7519 61.6929 33.2151C61.2411 33.684 60.7086 34.0503 60.1023 34.3251C59.4906 34.5999 58.8414 34.7349 58.1448 34.7349C57.4482 34.7349 56.7834 34.5999 56.1714 34.3251C55.5597 34.0503 55.0329 33.684 54.5865 33.2208C54.1395 32.7573 53.7837 32.2134 53.523 31.5936C53.2623 30.9684 53.1291 30.306 53.1291 29.605C53.1291 28.9041 53.2623 28.2416 53.523 27.6164C53.7837 26.9912 54.1401 26.4527 54.5865 25.9893C55.0335 25.5259 55.5654 25.1595 56.1714 24.8848C56.7834 24.6101 57.4377 24.4751 58.1448 24.4751C58.8519 24.4751 59.4906 24.6101 60.1023 24.8848C60.714 25.1595 61.2411 25.5259 61.6929 25.9948C62.1447 26.4637 62.5011 27.0077 62.7618 27.6219C63.0225 28.2416 63.1557 28.8992 63.1557 29.5995C63.1557 30.2997 63.0225 30.963 62.7618 31.5771Z" fill="#1D63ED"/>
        <path d="M131.802 26.4641C131.413 25.4939 130.822 24.6159 130.046 23.8289L130.035 23.8234C128.455 22.2287 126.566 21.4258 124.376 21.4258C122.185 21.4258 120.279 22.2232 118.715 23.8234C117.151 25.4182 116.375 27.3475 116.375 29.6103C116.375 31.873 117.157 33.7969 118.715 35.3971C120.279 36.9919 122.163 37.7947 124.376 37.7947C126.386 37.7947 128.125 37.1323 129.604 35.8066C129.891 35.5051 130.035 35.1388 130.035 34.7125C130.035 34.2865 129.897 33.9097 129.615 33.6241C129.333 33.3382 128.977 33.193 128.551 33.193C128.179 33.2041 127.849 33.328 127.568 33.5758C127.121 33.9634 126.636 34.2601 126.11 34.4545C125.583 34.6486 125.009 34.7455 124.382 34.7455C123.828 34.7455 123.296 34.6594 122.791 34.4818C122.285 34.3042 121.812 34.0612 121.392 33.7438C120.966 33.4255 120.599 33.049 120.285 32.6014C119.972 32.1592 119.732 31.669 119.573 31.1305H130.888C131.307 31.1305 131.658 30.9853 131.951 30.6994C132.244 30.4138 132.388 30.0475 132.388 29.6109C132.388 28.4795 132.19 27.4288 131.803 26.4641H131.802ZM119.562 28.0912C119.716 27.5576 119.95 27.0673 120.264 26.6204C120.578 26.1784 120.95 25.7961 121.375 25.478C121.806 25.1599 122.274 24.9175 122.79 24.7399C123.305 24.5622 123.832 24.4761 124.376 24.4761C124.92 24.4761 125.445 24.5622 125.955 24.7399C126.465 24.9175 126.934 25.1599 127.354 25.478C127.78 25.7961 128.152 26.1728 128.466 26.6204C128.784 27.0624 129.025 27.5527 129.19 28.0912H119.561H119.562Z" fill="#1D63ED"/>
        <path d="M145.706 22.4495C145.44 22.1858 145.105 21.9806 144.701 21.8298C144.296 21.679 143.855 21.5764 143.371 21.5172C142.892 21.458 142.44 21.4312 142.02 21.4312C141.067 21.4312 140.174 21.5875 139.334 21.9001C138.493 22.2127 137.716 22.6596 137.003 23.2414V22.9508C137.003 22.5307 136.86 22.1748 136.567 21.8787C136.275 21.5826 135.929 21.4318 135.52 21.4318C135.111 21.4318 134.748 21.5826 134.456 21.8787C134.163 22.1748 134.02 22.5362 134.02 22.9508V36.2763C134.02 36.6963 134.163 37.0521 134.456 37.3482C134.748 37.6443 135.099 37.7952 135.52 37.7952C135.94 37.7952 136.28 37.6443 136.567 37.3482C136.86 37.0521 137.003 36.6906 137.003 36.2763V29.6107C137.003 28.8994 137.137 28.2315 137.397 27.6063C137.658 26.9811 138.014 26.4426 138.466 25.9792C138.919 25.5157 139.451 25.1494 140.057 24.885C140.668 24.6158 141.318 24.4809 142.015 24.4809C142.713 24.4809 143.371 24.6048 143.973 24.8472C144.212 24.9553 144.42 25.009 144.601 25.009C144.808 25.009 145.005 24.9711 145.186 24.8905C145.366 24.8099 145.526 24.7019 145.659 24.562C145.792 24.4222 145.898 24.2605 145.978 24.0718C146.058 23.8886 146.101 23.689 146.101 23.4734C146.101 23.0534 145.968 22.7139 145.702 22.4495H145.707H145.706Z" fill="#1D63ED"/>
        <path d="M83.2457 26.469C82.8575 25.5043 82.2773 24.6208 81.4958 23.8234C79.9163 22.2287 78.0278 21.4258 75.836 21.4258C73.6442 21.4258 71.7404 22.2232 70.1762 23.8234C68.612 25.4182 67.8359 27.3475 67.8359 29.6103C67.8359 31.873 68.618 33.7969 70.1762 35.3971C71.7404 36.9919 73.6235 37.7947 75.836 37.7947C78.0485 37.7947 79.9109 36.9973 81.4958 35.3971C83.06 33.8182 83.8367 31.8895 83.8367 29.6103C83.8256 28.4789 83.6291 27.4336 83.2463 26.469H83.2457ZM80.4584 31.5769V31.588C80.1977 32.2075 79.8413 32.7517 79.3895 33.2149C78.9377 33.6838 78.4052 34.0501 77.7989 34.3249C77.1926 34.5997 76.538 34.7347 75.8414 34.7347C75.1448 34.7347 74.48 34.5997 73.8683 34.3249C73.2563 34.0501 72.7295 33.6838 72.2831 33.2206C71.8364 32.7571 71.4803 32.2132 71.2196 31.5934C70.9589 30.9682 70.8257 30.3058 70.8257 29.6048C70.8257 28.9039 70.9589 28.2414 71.2196 27.6162C71.4803 26.991 71.837 26.4525 72.2831 25.9891C72.7301 25.5257 73.262 25.1593 73.8683 24.8846C74.48 24.6098 75.1346 24.4749 75.8414 24.4749C76.5485 24.4749 77.1872 24.6098 77.7989 24.8846C78.4106 25.1593 78.9377 25.5256 79.3895 25.9946C79.8413 26.4635 80.1977 27.0075 80.4584 27.6217C80.7191 28.2414 80.8523 28.899 80.8523 29.5993C80.8523 30.2995 80.7191 30.9628 80.4584 31.5769Z" fill="#1D63ED"/>
        <path d="M115.248 22.9451C115.248 22.7405 115.205 22.5464 115.126 22.3632C115.046 22.18 114.94 22.0134 114.807 21.8729C114.674 21.7331 114.514 21.6196 114.333 21.5445C114.153 21.4693 113.956 21.426 113.748 21.426C113.451 21.426 113.184 21.5017 112.95 21.658L104.408 27.3429V15.9408C104.408 15.5098 104.264 15.1489 103.972 14.8522C103.679 14.5561 103.334 14.4053 102.924 14.4053C102.514 14.4053 102.153 14.5561 101.86 14.8522C101.567 15.1483 101.424 15.5098 101.424 15.9408V36.2544C101.424 36.6747 101.567 37.0359 101.86 37.3377C102.152 37.6392 102.503 37.7901 102.924 37.7901C103.345 37.7901 103.685 37.6392 103.972 37.3377C104.264 37.0359 104.408 36.6747 104.408 36.2544V30.9792L106.153 29.8101L112.754 37.3914C113.02 37.6551 113.355 37.7847 113.754 37.7847C113.961 37.7847 114.158 37.7466 114.339 37.6662C114.52 37.5903 114.68 37.4775 114.812 37.3377C114.945 37.1979 115.051 37.0359 115.131 36.8475C115.211 36.6642 115.254 36.4644 115.254 36.2655C115.254 35.8668 115.116 35.511 114.838 35.199L108.694 28.1244L114.678 24.1479C115.061 23.8841 115.248 23.4799 115.248 22.9353V22.9463L115.248 22.9451Z" fill="#1D63ED"/>
        <path d="M89.9549 25.9794C90.4121 25.516 90.9446 25.1497 91.5563 24.8853C92.168 24.6161 92.8172 24.4811 93.5138 24.4811C94.1414 24.4811 94.7213 24.5892 95.2586 24.8041C95.7905 25.0196 96.3014 25.3377 96.785 25.7523C97.0721 25.9837 97.397 26.1021 97.7582 26.1021C98.1893 26.1021 98.5403 25.9568 98.8226 25.6656C99.1046 25.3744 99.2426 25.008 99.2426 24.5715C99.2426 24.1349 99.0722 23.7308 98.7266 23.4188C97.2584 22.0932 95.5193 21.4302 93.5138 21.4302C91.3061 21.4302 89.4182 22.2276 87.854 23.8278C86.2898 25.4226 85.5137 27.3519 85.5137 29.6147C85.5137 31.8773 86.2958 33.8012 87.854 35.4014C89.4182 36.9962 91.301 37.799 93.5138 37.799C95.5139 37.799 97.2533 37.1366 98.7266 35.8106C99.0404 35.4875 99.2003 35.1158 99.2003 34.6847C99.2003 34.2536 99.0617 33.8819 98.7803 33.596C98.4983 33.3104 98.1425 33.1649 97.7168 33.1649C97.3553 33.176 97.0409 33.2834 96.7754 33.488C96.2966 33.908 95.7965 34.2206 95.2592 34.4306C94.7276 34.6406 94.1474 34.7432 93.5144 34.7432C92.8178 34.7432 92.1686 34.6085 91.5569 34.3391C90.9452 34.07 90.4133 33.7034 89.9555 33.2456C89.498 32.7878 89.1362 32.2382 88.8755 31.6184C88.6148 30.9932 88.4816 30.3254 88.4816 29.6141C88.4816 28.9028 88.6148 28.2348 88.8755 27.6096C89.1362 26.9844 89.4974 26.4459 89.9555 25.9825V25.977L89.9549 25.9794Z" fill="#1D63ED"/>
      </g>
      <path d="M54.7266 47.4324C54.7266 48.9582 54.9126 50.0544 55.2843 50.721C55.6563 51.375 56.2074 51.702 56.9382 51.702C57.3999 51.702 57.8037 51.6699 58.1499 51.6057C58.4961 51.5289 58.8102 51.4905 59.0922 51.4905C59.6052 51.4905 59.9769 51.5994 60.2079 51.8172C60.4386 52.0224 60.5541 52.2918 60.5541 52.6251C60.5541 53.061 60.3936 53.3943 60.0732 53.6253C59.7654 53.856 59.3679 54.0162 58.8807 54.1059C58.4064 54.1956 57.9192 54.2406 57.4191 54.2406C56.0343 54.2406 54.9318 53.9841 54.1113 53.4714C53.3034 52.9584 52.7199 52.2021 52.3611 51.2019C52.0149 50.1891 51.8418 48.9324 51.8418 47.4324C51.8418 45.9321 52.0149 44.6628 52.3611 43.6242C52.7199 42.573 53.3034 41.778 54.1113 41.2395C54.9318 40.701 56.0343 40.4316 57.4191 40.4316C57.9192 40.4316 58.4064 40.4766 58.8807 40.5663C59.3679 40.656 59.7654 40.8165 60.0732 41.0472C60.3936 41.2779 60.5541 41.6112 60.5541 42.0471C60.5541 42.3678 60.4386 42.6369 60.2079 42.855C59.9769 43.0731 59.6052 43.182 59.0922 43.182C58.8102 43.182 58.4961 43.1499 58.1499 43.0857C57.8037 43.0089 57.3999 42.9705 56.9382 42.9705C56.0409 42.9705 55.4445 43.3359 55.1496 44.0667C54.8676 44.7846 54.7266 45.9066 54.7266 47.4324ZM67.0272 54.2598C65.9118 54.2598 64.9629 54.042 64.1808 53.6058C63.3987 53.1573 62.8026 52.4262 62.3922 51.4134C61.9947 50.4006 61.7961 49.0287 61.7961 47.2977C61.7961 45.5667 61.9947 44.2014 62.3922 43.2012C62.8026 42.201 63.3987 41.4894 64.1808 41.0664C64.9629 40.6434 65.9118 40.4316 67.0272 40.4316C68.1555 40.4316 69.1044 40.6434 69.8736 41.0664C70.6557 41.4894 71.2455 42.201 71.643 43.2012C72.0534 44.2014 72.2583 45.5667 72.2583 47.2977C72.2583 49.0287 72.0534 50.4006 71.643 51.4134C71.2455 52.4262 70.6557 53.1573 69.8736 53.6058C69.1044 54.042 68.1555 54.2598 67.0272 54.2598ZM67.0272 51.7212C67.5402 51.7212 67.9761 51.5994 68.3349 51.3558C68.7069 51.1122 68.9889 50.6697 69.1812 50.0286C69.3864 49.3875 69.489 48.4773 69.489 47.2977C69.489 46.1052 69.3864 45.2013 69.1812 44.586C68.9889 43.9578 68.7069 43.5345 68.3349 43.3167C67.9761 43.0857 67.5402 42.9705 67.0272 42.9705C66.5271 42.9705 66.0912 43.0857 65.7195 43.3167C65.3475 43.5345 65.0592 43.9578 64.854 44.586C64.6617 45.2013 64.5654 46.1052 64.5654 47.2977C64.5654 48.4773 64.6617 49.3875 64.854 50.0286C65.0592 50.6697 65.3475 51.1122 65.7195 51.3558C66.0912 51.5994 66.5271 51.7212 67.0272 51.7212ZM77.2329 52.9713C77.2329 53.8302 76.7841 54.2598 75.8865 54.2598C75.4506 54.2598 75.1044 54.1509 74.8482 53.9328C74.5917 53.715 74.4633 53.3943 74.4633 52.9713V45.4128C74.4633 44.2077 74.6238 43.2462 74.9442 42.528C75.2649 41.7972 75.7905 41.265 76.5213 40.9317C77.2521 40.5984 78.2265 40.4316 79.4445 40.4316C81.06 40.4316 82.2783 40.8099 83.0988 41.5665C83.9322 42.3102 84.3489 43.5924 84.3489 45.4128V52.9713C84.3489 53.8302 83.9001 54.2598 83.0025 54.2598C82.5666 54.2598 82.2204 54.1509 81.9642 53.9328C81.7077 53.715 81.5793 53.3943 81.5793 52.9713V45.4128C81.5793 44.4642 81.4128 43.791 81.0795 43.3935C80.7588 42.9831 80.214 42.7782 79.4445 42.7782C78.8421 42.7782 78.3804 42.8679 78.06 43.0473C77.7393 43.2267 77.5215 43.509 77.406 43.8936C77.2905 44.2782 77.2329 44.7846 77.2329 45.4128V52.9713ZM90.1662 54.2598C89.8455 54.2598 89.5185 54.1893 89.1852 54.0483C88.8648 53.8944 88.7043 53.6508 88.7043 53.3175V44.3166C88.7043 43.9065 88.8069 43.6242 89.0121 43.4703C89.2173 43.3167 89.3841 43.2204 89.5122 43.182H85.8003C85.4925 43.182 85.2618 43.0473 85.1079 42.7782C84.9669 42.4959 84.8964 42.2076 84.8964 41.9127C84.8964 41.592 84.9732 41.3037 85.1271 41.0472C85.281 40.7778 85.5054 40.6434 85.8003 40.6434H94.3971C94.692 40.6434 94.9164 40.7778 95.0703 41.0472C95.2242 41.3037 95.301 41.592 95.301 41.9127C95.301 42.2076 95.2242 42.4959 95.0703 42.7782C94.9293 43.0473 94.7049 43.182 94.3971 43.182H91.4739V53.3175C91.4739 53.6379 91.3392 53.8752 91.0701 54.0291C90.8136 54.183 90.5124 54.2598 90.1662 54.2598ZM98.6628 52.9713C98.6628 53.8302 98.214 54.2598 97.3164 54.2598C96.8805 54.2598 96.5343 54.1509 96.2778 53.9328C96.0216 53.715 95.8932 53.3943 95.8932 52.9713V45.3552C95.8932 43.5858 96.2523 42.3228 96.9702 41.5665C97.6884 40.8099 98.8101 40.4316 100.336 40.4316C101.9 40.4316 103.054 40.8165 103.798 41.5857C104.542 42.3549 104.913 43.6116 104.913 45.3552V52.9713C104.913 53.8302 104.464 54.2598 103.567 54.2598C103.131 54.2598 102.785 54.1509 102.529 53.9328C102.272 53.715 102.144 53.3943 102.144 52.9713V48.3363C101.9 48.5541 101.631 48.7401 101.336 48.894C101.054 49.0479 100.72 49.1247 100.336 49.1247C99.7719 49.1247 99.3486 49.2273 99.0666 49.4325C98.7975 49.6377 98.6628 50.0031 98.6628 50.5287V52.9713ZM98.5473 47.3361C98.7525 47.1309 98.9961 46.9707 99.2781 46.8555C99.573 46.74 99.9258 46.6824 100.336 46.6824C100.823 46.6824 101.195 46.6437 101.452 46.5669C101.721 46.4898 101.907 46.3425 102.009 46.1244C102.112 45.9066 102.163 45.5859 102.163 45.1629C102.163 44.214 102.028 43.5666 101.759 43.2204C101.49 42.8613 101.009 42.6819 100.317 42.6819C99.6756 42.6819 99.2334 42.8679 98.9898 43.2396C98.7588 43.5987 98.6436 44.2653 98.6436 45.2397C98.6436 45.7398 98.637 46.1631 98.6244 46.5093C98.6115 46.8555 98.5857 47.1309 98.5473 47.3361ZM108.945 54.2598C107.996 54.2598 107.521 53.8302 107.521 52.9713V41.7204C107.521 41.2716 107.63 40.9446 107.848 40.7394C108.066 40.5342 108.412 40.4316 108.887 40.4316C109.823 40.4316 110.291 40.8612 110.291 41.7204V52.9713C110.291 53.4072 110.182 53.7342 109.964 53.952C109.759 54.1572 109.419 54.2598 108.945 54.2598ZM115.698 52.9713C115.698 53.8302 115.249 54.2598 114.351 54.2598C113.915 54.2598 113.569 54.1509 113.313 53.9328C113.056 53.715 112.928 53.3943 112.928 52.9713V45.4128C112.928 44.2077 113.089 43.2462 113.409 42.528C113.73 41.7972 114.255 41.265 114.986 40.9317C115.717 40.5984 116.691 40.4316 117.909 40.4316C119.525 40.4316 120.743 40.8099 121.564 41.5665C122.397 42.3102 122.814 43.5924 122.814 45.4128V52.9713C122.814 53.8302 122.365 54.2598 121.467 54.2598C121.031 54.2598 120.685 54.1509 120.429 53.9328C120.172 53.715 120.044 53.3943 120.044 52.9713V45.4128C120.044 44.4642 119.878 43.791 119.544 43.3935C119.224 42.9831 118.679 42.7782 117.909 42.7782C117.307 42.7782 116.845 42.8679 116.525 43.0473C116.204 43.2267 115.986 43.509 115.871 43.8936C115.755 44.2782 115.698 44.7846 115.698 45.4128V52.9713ZM126.286 54.1059C126.042 54.1059 125.837 54.0099 125.67 53.8176C125.503 53.6253 125.42 53.3817 125.42 53.0868V44.0859C125.42 42.8808 125.792 42.0087 126.536 41.4702C127.279 40.9188 128.478 40.6434 130.132 40.6434H132.536C132.959 40.6434 133.286 40.7586 133.517 40.9896C133.761 41.2074 133.882 41.5215 133.882 41.9319C133.882 42.3294 133.761 42.6369 133.517 42.855C133.286 43.0731 132.959 43.182 132.536 43.182H129.997C129.356 43.182 128.895 43.3101 128.613 43.5666C128.331 43.8231 128.19 44.2398 128.19 44.8167C128.19 45.0219 128.177 45.2784 128.151 45.5859C128.126 45.8808 128.087 46.2207 128.036 46.6053C128.254 46.4259 128.53 46.2849 128.863 46.1823C129.196 46.0668 129.523 46.0092 129.844 46.0092H131.748C132.107 46.0092 132.382 46.1181 132.575 46.3362C132.78 46.554 132.883 46.8555 132.883 47.2401C132.883 47.6247 132.78 47.9325 132.575 48.1632C132.37 48.3939 132.094 48.5094 131.748 48.5094H129.69C129.1 48.5094 128.703 48.6312 128.497 48.8748C128.292 49.1055 128.19 49.5798 128.19 50.298V51.5673H132.536C133.011 51.5673 133.351 51.6699 133.556 51.8751C133.774 52.0803 133.882 52.4136 133.882 52.875C133.882 53.3109 133.78 53.6253 133.575 53.8176C133.37 54.0099 133.024 54.1059 132.536 54.1059H126.286ZM137.171 54.2214C136.735 54.2214 136.389 54.1251 136.132 53.9328C135.876 53.7276 135.748 53.4393 135.748 53.0673V44.7591C135.748 43.2717 136.139 42.1818 136.921 41.4894C137.716 40.7844 138.953 40.4316 140.633 40.4316C142.005 40.4316 143.05 40.7778 143.768 41.4702C144.499 42.1497 144.864 43.137 144.864 44.4321C144.864 44.8809 144.851 45.3168 144.826 45.7398C144.8 46.1502 144.762 46.4385 144.71 46.6053C144.518 47.3106 144.165 47.8491 143.653 48.2208C144.345 48.7977 144.691 49.4646 144.691 50.2209V53.0673C144.691 53.8623 144.249 54.2598 143.364 54.2598C142.928 54.2598 142.582 54.1638 142.325 53.9712C142.069 53.7663 141.941 53.4648 141.941 53.0673V50.5287C141.941 49.8363 141.832 49.3491 141.614 49.0671C141.409 48.7851 140.986 48.6441 140.344 48.6441C139.652 48.6441 139.171 48.7977 138.902 49.1055C138.646 49.4004 138.517 49.9518 138.517 50.7594V53.0673C138.517 53.8368 138.069 54.2214 137.171 54.2214ZM138.364 47.067C138.684 46.7976 138.966 46.6245 139.21 46.5477C139.466 46.458 139.831 46.413 140.306 46.413C140.947 46.413 141.415 46.3809 141.71 46.3167C142.018 46.2528 142.216 46.1181 142.306 45.9129C142.396 45.7077 142.441 45.3873 142.441 44.9514C142.441 44.0796 142.306 43.4769 142.037 43.1436C141.781 42.7974 141.313 42.6243 140.633 42.6243C139.876 42.6243 139.338 42.7974 139.018 43.1436C138.71 43.4898 138.556 44.0922 138.556 44.9514C138.556 45.3744 138.537 45.7527 138.498 46.086C138.472 46.4067 138.428 46.7334 138.364 47.067Z" fill="#1D63ED"/>
    </g>
  </g>
  <defs>
    <clipPath id="clip0_4201_5021">
      <rect width="150" height="60" fill="white"/>
    </clipPath>
  </defs>
</svg>