<svg width="150" height="50" viewBox="0 0 150 50" fill="none" xmlns="http://www.w3.org/2000/svg">
<g clip-path="url(#clip0_4201_5060)">
<path d="M0 39.6896L0.293055 39.2792L14.1526 12.9811L14.1819 12.7027L8.07247 1.2266C7.56036 0.265306 6.11924 0.508253 5.95139 1.5844L0 39.6896Z" fill="#FFC24A"/>
<path d="M0.173828 39.3766L0.395379 38.9446L14.1084 12.922L8.01565 1.39926C7.50905 0.447896 6.22294 0.690429 6.0555 1.75539L0.173828 39.3766Z" fill="#FFA712"/>
<path d="M0.173828 39.3766L0.395379 38.9446L14.1084 12.922L8.01565 1.39926C7.50905 0.447896 6.22294 0.690429 6.0555 1.75539L0.173828 39.3766Z" fill="#FFA000"/>
<path d="M18.6367 21.3835L23.1857 16.7248L18.6354 8.03801C18.2034 7.21572 16.9973 7.21337 16.5699 8.03801L14.1387 12.6761V13.0709L18.6367 21.3835Z" fill="#F4BD62"/>
<path d="M18.5544 21.1892L22.9769 16.6599L18.5544 8.23859C18.1345 7.43796 17.1143 7.35542 16.6988 8.15576L14.2548 12.8629L14.1816 13.1036L18.5544 21.1892Z" fill="#FFA50E"/>
<path d="M14.1507 12.6479L0 39.6886L0.132792 39.555L0.615375 39.359L18.3502 21.6901L18.5747 21.0786L14.1507 12.6479Z" fill="#F6820C"/>
<path d="M19.2039 48.5999L35.2542 39.6484L30.6721 11.4193C30.5285 10.5361 29.4452 10.1869 28.8131 10.8202L0 39.6892L15.9584 48.5994C16.4544 48.8762 17.013 49.0216 17.5811 49.0217C18.1491 49.0219 18.7077 48.8766 19.2039 48.5999Z" fill="#FDE068"/>
<path d="M35.1109 39.5744L30.5622 11.5607C30.42 10.6841 29.5186 10.3215 28.8914 10.95L0.179688 39.6351L15.9627 48.4557C16.9635 49.0146 18.1824 49.0149 19.1837 48.4566L35.1109 39.5744Z" fill="#FCCA3F"/>
<path d="M19.2039 48.3362C18.1962 48.899 16.9667 48.8986 15.9582 48.3355L0.128375 39.5536L0 39.6892L15.9584 48.5994C16.9669 49.1626 18.1951 49.1626 19.204 48.6001L35.2544 39.6486L35.2151 39.4067L19.2039 48.3362Z" fill="#EEAB37"/>
<path d="M47.4074 35.544H44.6758V14.2849H57.0713V16.8972H47.4074V23.8754H56.1378V26.431H47.4074V35.544ZM61.8734 17.3425C61.4969 17.7189 61.0424 17.9087 60.5084 17.9087C60.2542 17.9132 60.0018 17.8652 59.7669 17.7677C59.532 17.6703 59.3198 17.5255 59.1433 17.3425C58.961 17.1655 58.8168 16.9532 58.7194 16.7184C58.622 16.4837 58.5737 16.2315 58.5772 15.9774C58.5727 15.7233 58.6207 15.4709 58.7182 15.236C58.8155 15.0012 58.9603 14.7889 59.1433 14.6124C59.3203 14.4302 59.5327 14.2859 59.7674 14.1885C60.0022 14.0912 60.2543 14.0428 60.5084 14.0462C60.7625 14.0418 61.0149 14.0898 61.2498 14.1873C61.4847 14.2847 61.6969 14.4294 61.8734 14.6124C62.0557 14.7894 62.1999 15.0018 62.2973 15.2365C62.3947 15.4713 62.443 15.7234 62.4397 15.9774C62.444 16.2317 62.396 16.484 62.2985 16.7189C62.2012 16.9538 62.0564 17.166 61.8734 17.3425ZM61.8734 35.544H59.1418V20.9953H61.8734V35.544ZM67.7697 35.544H65.0365V20.9953H67.6488V23.3704H67.7665C68.042 22.5792 68.6129 21.9258 69.4744 21.4115C70.336 20.8974 71.1578 20.6388 71.9842 20.6388C72.8105 20.6388 73.4793 20.7582 74.0348 20.9953L72.9942 23.5509C72.6375 23.3979 72.1524 23.3428 71.5403 23.3428C70.5503 23.3428 69.6734 23.733 68.9128 24.515C68.1523 25.297 67.7697 26.3208 67.7697 27.5879V35.544ZM81.218 36.003C79.0205 36.003 77.2347 35.2715 75.8589 33.8055C74.4832 32.3395 73.7929 30.4909 73.7929 28.2535C73.7929 26.1357 74.4602 24.3145 75.7823 22.7904C77.1045 21.2662 78.8429 20.5042 80.9043 20.5042C83.0467 20.5042 84.7882 21.208 86.0859 22.6129C87.3837 24.0177 88.0294 25.8984 88.0294 28.2552L87.9988 28.7602H76.5215C76.601 30.2247 77.0908 31.383 77.9905 32.2339C78.408 32.644 78.9024 32.9679 79.4452 33.1869C79.9879 33.4059 80.5685 33.5158 81.1538 33.5102C83.1125 33.5102 84.4393 32.6793 85.1325 31.0158L87.581 32.0258C87.1219 33.1537 86.3232 34.0994 85.235 34.8614C84.147 35.6235 82.8095 36.0045 81.2257 36.0045L81.218 36.003ZM85.1355 26.5152C85.0744 25.6842 84.6949 24.893 83.9924 24.1402C83.29 23.3872 82.2448 23.0123 80.8599 23.0123C79.8499 23.0123 78.9745 23.329 78.2324 23.961C77.4902 24.593 76.9805 25.4455 76.702 26.5167H85.1188L85.1355 26.5152ZM97.9335 36.003C96.824 36.003 95.8294 35.7659 94.9494 35.2899C94.0695 34.814 93.4099 34.2218 92.96 33.5087H92.8575V35.5287H90.2453V14.2849H92.9769V20.9953L92.8575 23.0154H92.9769C93.413 22.3023 94.071 21.7084 94.9663 21.234C95.8615 20.7597 96.8424 20.5209 97.9504 20.5209C99.8327 20.5209 101.47 21.2632 102.82 22.7475C104.17 24.2319 104.87 26.0729 104.87 28.2567C104.87 30.4404 104.188 32.2967 102.82 33.7658C101.452 35.2349 99.8312 35.9924 97.9504 35.9924L97.9335 36.003ZM97.4744 33.5087C98.7415 33.5087 99.8311 33.0282 100.74 32.0702C101.649 31.1122 102.105 29.839 102.105 28.2552C102.105 26.6713 101.649 25.3995 100.74 24.44C99.8311 23.4805 98.74 23.0015 97.4744 23.0015C96.8574 22.9895 96.2452 23.1103 95.679 23.3559C95.1129 23.6015 94.6062 23.966 94.1934 24.4248C93.2937 25.3889 92.8422 26.6514 92.8422 28.2552C92.8422 29.8589 93.2922 31.1352 94.1934 32.0855C95.0948 33.0358 96.1874 33.5118 97.4744 33.5118V33.5087ZM112.032 36.003C110.502 36.003 109.197 35.544 108.158 34.6672C107.118 33.7903 106.597 32.5982 106.597 31.1474C106.597 29.5635 107.209 28.3224 108.438 27.4212C109.666 26.5198 111.18 26.0698 112.983 26.0698C114.586 26.0698 115.902 26.3667 116.931 26.9605V26.5443C116.931 25.473 116.564 24.6192 115.832 23.9764C115.101 23.3337 114.199 23.0123 113.13 23.0123C112.337 23.0123 111.619 23.2005 110.976 23.5785C110.365 23.9177 109.896 24.4658 109.656 25.1225L107.161 24.0544C107.498 23.1822 108.161 22.3772 109.151 21.6365C110.141 20.8959 111.446 20.5225 113.068 20.5225C114.929 20.5225 116.473 21.0673 117.701 22.1553C118.928 23.2434 119.542 24.7783 119.542 26.7569V35.5455H116.945V33.5255H116.825C115.736 35.1874 114.143 36.0199 112.045 36.0199L112.032 36.003ZM112.491 33.5087C113.619 33.5087 114.645 33.0878 115.564 32.2462C116.484 31.4045 116.945 30.4098 116.945 29.262C116.173 28.6285 115.016 28.3133 113.471 28.3133C112.144 28.3133 111.145 28.601 110.471 29.1748C109.798 29.7487 109.461 30.422 109.461 31.1948C109.461 31.9079 109.767 32.4712 110.383 32.8874C110.998 33.3037 111.699 33.5118 112.491 33.5118V33.5087ZM127.488 36.003C125.867 36.003 124.524 35.6052 123.464 34.8155C122.43 34.0572 121.625 33.0304 121.133 31.8468L123.582 30.8368C124.353 32.6732 125.671 33.5683 127.529 33.5683C128.381 33.5683 129.078 33.3802 129.623 33.0022C130.168 32.6242 130.441 32.1299 130.441 31.5178C130.441 30.5689 129.778 29.9262 128.451 29.5895L125.513 28.8764C124.582 28.6393 123.701 28.1878 122.87 27.5252C122.039 26.8625 121.627 25.9994 121.627 24.8548C121.627 23.5693 122.197 22.5242 123.335 21.7223C124.474 20.9204 125.826 20.5194 127.391 20.5194C128.676 20.5194 129.839 20.8255 130.833 21.3948C131.828 21.964 132.566 22.8149 133.002 23.9044L130.627 24.8839C130.092 23.5984 128.983 22.9557 127.302 22.9557C126.491 22.9557 125.807 23.1087 125.251 23.4607C124.696 23.8127 124.42 24.2518 124.42 24.8257C124.42 25.6567 125.063 26.2213 126.348 26.5183L129.228 27.2008C130.593 27.5175 131.603 28.0623 132.258 28.8335C132.913 29.6049 133.238 30.4772 133.238 31.4458C133.238 32.7527 132.702 33.8408 131.634 34.7115C130.566 35.5823 129.188 36.0184 127.507 36.0184L127.488 36.003ZM142.037 36.003C139.839 36.003 138.052 35.2715 136.678 33.8055C135.303 32.3395 134.612 30.4909 134.612 28.2535C134.612 26.1357 135.279 24.3145 136.602 22.7904C137.923 21.2662 139.662 20.5042 141.723 20.5042C143.866 20.5042 145.607 21.208 146.904 22.6129C148.203 24.0177 148.848 25.8984 148.848 28.2552V28.7602H137.371C137.448 30.2247 137.941 31.383 138.841 32.2339C139.258 32.6439 139.752 32.9677 140.294 33.1867C140.837 33.4057 141.417 33.5155 142.002 33.5102C143.961 33.5102 145.287 32.6793 145.981 31.0158L148.429 32.0258C147.971 33.1537 147.171 34.0994 146.083 34.8614C144.996 35.6235 143.658 36.0045 142.074 36.0045L142.037 36.003ZM145.954 26.5152C145.893 25.6842 145.514 24.893 144.812 24.1402C144.109 23.3872 143.064 23.0123 141.679 23.0123C140.716 22.9953 139.781 23.3337 139.052 23.9627C138.309 24.5962 137.799 25.447 137.521 26.5183H145.938L145.954 26.5152Z" fill="#63666A"/>
<path d="M72.1621 45.6252V39.4605H74.3726C74.86 39.4605 75.2621 39.5456 75.5791 39.7159C75.9021 39.8802 76.1399 40.1034 76.2925 40.3852C76.451 40.6611 76.5304 40.9752 76.5304 41.3275C76.5304 41.6562 76.454 41.9616 76.3014 42.2434C76.1486 42.5252 75.9109 42.7512 75.588 42.9215C75.2651 43.0919 74.8511 43.177 74.3462 43.177H73.219V45.6252H72.1621ZM75.3766 45.6252L74.082 42.904H75.2269L76.5831 45.6252H75.3766ZM73.219 42.3931H74.3022C74.6955 42.3931 74.9832 42.2992 75.1652 42.1114C75.3531 41.9176 75.4471 41.6651 75.4471 41.354C75.4471 41.0486 75.3561 40.805 75.1741 40.623C74.992 40.4351 74.7014 40.3411 74.3022 40.3411H73.219V42.3931ZM79.2239 45.7309C78.7835 45.7309 78.396 45.637 78.0614 45.4491C77.7266 45.2554 77.4654 44.9852 77.2775 44.6389C77.0896 44.2925 76.9957 43.8932 76.9957 43.4411C76.9957 42.9715 77.0867 42.5605 77.2687 42.2082C77.4566 41.8559 77.7179 41.58 78.0525 41.3804C78.393 41.1807 78.7864 41.0809 79.2326 41.0809C79.6671 41.0809 80.0457 41.1777 80.3687 41.3715C80.6916 41.5652 80.9411 41.8266 81.1172 42.1554C81.2934 42.4782 81.3815 42.8422 81.3815 43.2474C81.3815 43.3061 81.3815 43.3707 81.3815 43.4411C81.3815 43.5116 81.3756 43.585 81.3639 43.6614H77.7531V42.9832H80.3159C80.3041 42.6602 80.1955 42.4079 79.99 42.2259C79.7845 42.038 79.5291 41.944 79.2239 41.944C79.0066 41.944 78.807 41.9939 78.625 42.0937C78.443 42.1935 78.2991 42.3432 78.1934 42.5429C78.0877 42.7366 78.0349 42.9832 78.0349 43.2826V43.538C78.0349 43.814 78.0847 44.0517 78.1846 44.2514C78.2902 44.451 78.4312 44.6036 78.6074 44.7094C78.7894 44.8091 78.9919 44.859 79.215 44.859C79.4616 44.859 79.6641 44.8062 79.8227 44.7005C79.9871 44.5949 80.1075 44.454 80.1837 44.2777H81.2582C81.176 44.5537 81.041 44.8032 80.8531 45.0264C80.6652 45.2436 80.4332 45.4169 80.1574 45.546C79.8814 45.6692 79.5702 45.7309 79.2239 45.7309ZM83.6606 45.7309C83.2966 45.7309 82.9942 45.6692 82.7536 45.546C82.5129 45.4227 82.3337 45.2582 82.2164 45.0527C82.0989 44.8474 82.0402 44.6242 82.0402 44.3835C82.0402 44.1016 82.1106 43.858 82.2516 43.6525C82.3984 43.447 82.6126 43.2885 82.8945 43.177C83.1762 43.0595 83.5227 43.0009 83.9336 43.0009H85.0521C85.0521 42.766 85.0199 42.5722 84.9552 42.4196C84.8907 42.261 84.7909 42.1436 84.6559 42.0672C84.5207 41.991 84.3476 41.9527 84.1362 41.9527C83.8955 41.9527 83.69 42.0086 83.5197 42.1201C83.3495 42.2259 83.2439 42.3902 83.2027 42.6134H82.1635C82.1987 42.2962 82.3044 42.0262 82.4805 41.8031C82.6567 41.5741 82.8886 41.398 83.1762 41.2746C83.4699 41.1455 83.7899 41.0809 84.1362 41.0809C84.5531 41.0809 84.9082 41.1544 85.2019 41.3011C85.4954 41.442 85.7185 41.6475 85.8711 41.9176C86.0297 42.1817 86.109 42.5017 86.109 42.8775V45.6252H85.2106L85.105 44.9119C85.0462 45.0294 84.97 45.138 84.876 45.2377C84.788 45.3375 84.6852 45.4256 84.5677 45.502C84.4504 45.5724 84.3154 45.6281 84.1626 45.6692C84.0159 45.7104 83.8485 45.7309 83.6606 45.7309ZM83.8985 44.8942C84.0687 44.8942 84.2185 44.8649 84.3476 44.8062C84.4826 44.7416 84.5971 44.6536 84.6911 44.542C84.7909 44.4246 84.8672 44.2954 84.92 44.1545C84.9729 44.0136 85.0081 43.8639 85.0257 43.7054V43.6877H84.0481C83.8426 43.6877 83.6724 43.7141 83.5374 43.767C83.4024 43.814 83.3055 43.8844 83.2467 43.9784C83.188 44.0724 83.1586 44.1809 83.1586 44.3042C83.1586 44.4275 83.188 44.5332 83.2467 44.6212C83.3055 44.7094 83.3906 44.7769 83.5021 44.8239C83.6137 44.8707 83.7457 44.8942 83.8985 44.8942ZM87.062 45.6252V39.2844H88.1189V45.6252H87.062ZM91.0507 45.6252C90.7512 45.6252 90.49 45.5782 90.2669 45.4844C90.0496 45.3904 89.8794 45.2349 89.7561 45.0176C89.6327 44.8004 89.5711 44.5067 89.5711 44.1369V42.0761H88.8137V41.1866H89.5711L89.6945 40.0152H90.628V41.1866H91.8345V42.0761H90.628V44.1369C90.628 44.36 90.6749 44.5156 90.7689 44.6036C90.8686 44.6859 91.0331 44.727 91.262 44.727H91.8081V45.6252H91.0507ZM92.6966 45.6252V41.1866H93.7535V45.6252H92.6966ZM93.2251 40.4821C93.0314 40.4821 92.8699 40.4234 92.7407 40.3059C92.6174 40.1826 92.5557 40.0329 92.5557 39.8567C92.5557 39.6747 92.6174 39.528 92.7407 39.4165C92.8699 39.299 93.0314 39.2402 93.2251 39.2402C93.4189 39.2402 93.5774 39.299 93.7006 39.4165C93.8299 39.528 93.8944 39.6747 93.8944 39.8567C93.8944 40.0329 93.8299 40.1826 93.7006 40.3059C93.5774 40.4234 93.4189 40.4821 93.2251 40.4821ZM94.7986 45.6252V41.1866H95.7321L95.8202 41.7942C95.9611 41.5711 96.146 41.398 96.375 41.2746C96.6099 41.1455 96.877 41.0809 97.1765 41.0809C97.3996 41.0809 97.5991 41.1102 97.7754 41.169C97.9574 41.2277 98.1159 41.3157 98.2509 41.4332C98.3917 41.5506 98.5062 41.6974 98.5944 41.8735C98.7587 41.627 98.973 41.4332 99.2372 41.2922C99.5015 41.1514 99.7891 41.0809 100.1 41.0809C100.47 41.0809 100.784 41.1572 101.043 41.3099C101.301 41.4567 101.498 41.6769 101.633 41.9704C101.768 42.2581 101.835 42.6134 101.835 43.036V45.6252H100.787V43.1417C100.787 42.766 100.711 42.4782 100.558 42.2786C100.406 42.079 100.18 41.9792 99.8801 41.9792C99.6746 41.9792 99.4926 42.0291 99.3341 42.129C99.1815 42.2287 99.0611 42.3755 98.973 42.5692C98.885 42.7571 98.841 42.9891 98.841 43.265V45.6252H97.7929V43.1417C97.7929 42.766 97.7166 42.4782 97.564 42.2786C97.4112 42.079 97.1824 41.9792 96.877 41.9792C96.6832 41.9792 96.5071 42.0291 96.3486 42.129C96.196 42.2287 96.0756 42.3755 95.9875 42.5692C95.8995 42.7571 95.8554 42.9891 95.8554 43.265V45.6252H94.7986ZM104.854 45.7309C104.414 45.7309 104.026 45.637 103.692 45.4491C103.357 45.2554 103.096 44.9852 102.908 44.6389C102.72 44.2925 102.626 43.8932 102.626 43.4411C102.626 42.9715 102.717 42.5605 102.899 42.2082C103.087 41.8559 103.348 41.58 103.683 41.3804C104.023 41.1807 104.417 41.0809 104.863 41.0809C105.297 41.0809 105.676 41.1777 105.999 41.3715C106.322 41.5652 106.571 41.8266 106.747 42.1554C106.924 42.4782 107.012 42.8422 107.012 43.2474C107.012 43.3061 107.012 43.3707 107.012 43.4411C107.012 43.5116 107.006 43.585 106.994 43.6614H103.383V42.9832H105.946C105.934 42.6602 105.826 42.4079 105.62 42.2259C105.415 42.038 105.159 41.944 104.854 41.944C104.637 41.944 104.437 41.9939 104.255 42.0937C104.073 42.1935 103.929 42.3432 103.824 42.5429C103.718 42.7366 103.665 42.9832 103.665 43.2826V43.538C103.665 43.814 103.715 44.0517 103.815 44.2514C103.92 44.451 104.061 44.6036 104.238 44.7094C104.42 44.8091 104.622 44.859 104.845 44.859C105.092 44.859 105.294 44.8062 105.453 44.7005C105.617 44.5949 105.738 44.454 105.814 44.2777H106.888C106.806 44.5537 106.671 44.8032 106.483 45.0264C106.295 45.2436 106.063 45.4169 105.788 45.546C105.512 45.6692 105.2 45.7309 104.854 45.7309ZM109.821 45.6252V39.4605H111.811C112.527 39.4605 113.117 39.5867 113.581 39.8391C114.051 40.0916 114.397 40.4497 114.62 40.9136C114.849 41.3715 114.964 41.9176 114.964 42.5516C114.964 43.174 114.849 43.7171 114.62 44.1809C114.397 44.6389 114.051 44.9941 113.581 45.2465C113.117 45.499 112.527 45.6252 111.811 45.6252H109.821ZM110.877 44.727H111.758C112.292 44.727 112.712 44.6419 113.017 44.4715C113.329 44.2954 113.549 44.0459 113.678 43.723C113.813 43.3942 113.88 43.0037 113.88 42.5516C113.88 42.0937 113.813 41.7032 113.678 41.3804C113.549 41.0516 113.329 40.7991 113.017 40.623C112.712 40.441 112.292 40.35 111.758 40.35H110.877V44.727ZM117.264 45.7309C116.9 45.7309 116.597 45.6692 116.357 45.546C116.116 45.4227 115.937 45.2582 115.819 45.0527C115.702 44.8474 115.643 44.6242 115.643 44.3835C115.643 44.1016 115.714 43.858 115.855 43.6525C116.001 43.447 116.216 43.2885 116.498 43.177C116.779 43.0595 117.126 43.0009 117.537 43.0009H118.655C118.655 42.766 118.623 42.5722 118.558 42.4196C118.494 42.261 118.394 42.1436 118.259 42.0672C118.124 41.991 117.951 41.9527 117.739 41.9527C117.499 41.9527 117.293 42.0086 117.123 42.1201C116.953 42.2259 116.847 42.3902 116.806 42.6134H115.767C115.802 42.2962 115.908 42.0262 116.084 41.8031C116.26 41.5741 116.492 41.398 116.779 41.2746C117.073 41.1455 117.393 41.0809 117.739 41.0809C118.156 41.0809 118.511 41.1544 118.805 41.3011C119.099 41.442 119.322 41.6475 119.474 41.9176C119.633 42.1817 119.712 42.5017 119.712 42.8775V45.6252H118.814L118.708 44.9119C118.649 45.0294 118.573 45.138 118.479 45.2377C118.391 45.3375 118.288 45.4256 118.171 45.502C118.053 45.5724 117.918 45.6281 117.766 45.6692C117.619 45.7104 117.452 45.7309 117.264 45.7309ZM117.502 44.8942C117.672 44.8942 117.822 44.8649 117.951 44.8062C118.086 44.7416 118.2 44.6536 118.294 44.542C118.394 44.4246 118.47 44.2954 118.523 44.1545C118.576 44.0136 118.611 43.8639 118.629 43.7054V43.6877H117.651C117.446 43.6877 117.276 43.7141 117.14 43.767C117.005 43.814 116.909 43.8844 116.85 43.9784C116.791 44.0724 116.762 44.1809 116.762 44.3042C116.762 44.4275 116.791 44.5332 116.85 44.6212C116.909 44.7094 116.994 44.7769 117.105 44.8239C117.217 44.8707 117.349 44.8942 117.502 44.8942ZM122.525 45.6252C122.226 45.6252 121.964 45.5782 121.741 45.4844C121.524 45.3904 121.354 45.2349 121.23 45.0176C121.107 44.8004 121.045 44.5067 121.045 44.1369V42.0761H120.288V41.1866H121.045L121.169 40.0152H122.102V41.1866H123.309V42.0761H122.102V44.1369C122.102 44.36 122.149 44.5156 122.243 44.6036C122.343 44.6859 122.507 44.727 122.736 44.727H123.282V45.6252H122.525ZM125.607 45.7309C125.243 45.7309 124.94 45.6692 124.699 45.546C124.459 45.4227 124.28 45.2582 124.162 45.0527C124.045 44.8474 123.986 44.6242 123.986 44.3835C123.986 44.1016 124.057 43.858 124.197 43.6525C124.344 43.447 124.559 43.2885 124.84 43.177C125.122 43.0595 125.468 43.0009 125.879 43.0009H126.998C126.998 42.766 126.965 42.5722 126.902 42.4196C126.837 42.261 126.737 42.1436 126.602 42.0672C126.467 41.991 126.293 41.9527 126.082 41.9527C125.842 41.9527 125.635 42.0086 125.465 42.1201C125.295 42.2259 125.189 42.3902 125.149 42.6134H124.109C124.145 42.2962 124.25 42.0262 124.426 41.8031C124.603 41.5741 124.834 41.398 125.122 41.2746C125.415 41.1455 125.735 41.0809 126.082 41.0809C126.499 41.0809 126.854 41.1544 127.148 41.3011C127.442 41.442 127.664 41.6475 127.817 41.9176C127.975 42.1817 128.055 42.5017 128.055 42.8775V45.6252H127.157L127.05 44.9119C126.992 45.0294 126.915 45.138 126.822 45.2377C126.734 45.3375 126.63 45.4256 126.514 45.502C126.397 45.5724 126.262 45.6281 126.108 45.6692C125.962 45.7104 125.794 45.7309 125.607 45.7309ZM125.844 44.8942C126.014 44.8942 126.164 44.8649 126.293 44.8062C126.428 44.7416 126.543 44.6536 126.637 44.542C126.737 44.4246 126.813 44.2954 126.865 44.1545C126.919 44.0136 126.954 43.8639 126.972 43.7054V43.6877H125.994C125.788 43.6877 125.618 43.7141 125.483 43.767C125.348 43.814 125.252 43.8844 125.193 43.9784C125.134 44.0724 125.104 44.1809 125.104 44.3042C125.104 44.4275 125.134 44.5332 125.193 44.6212C125.252 44.7094 125.337 44.7769 125.448 44.8239C125.559 44.8707 125.692 44.8942 125.844 44.8942ZM131.544 45.7309C131.309 45.7309 131.098 45.6986 130.91 45.634C130.722 45.5754 130.558 45.4931 130.417 45.3875C130.277 45.2759 130.159 45.1496 130.064 45.0087L129.95 45.6252H129.008V39.2844H130.064V41.8384C130.205 41.6211 130.397 41.442 130.637 41.3011C130.878 41.1544 131.177 41.0809 131.535 41.0809C131.952 41.0809 132.319 41.1836 132.637 41.3891C132.959 41.5887 133.212 41.8647 133.394 42.217C133.582 42.5634 133.675 42.9626 133.675 43.4147C133.675 43.8551 133.584 44.2514 133.403 44.6036C133.22 44.9559 132.968 45.2319 132.645 45.4315C132.328 45.6311 131.962 45.7309 131.544 45.7309ZM131.324 44.815C131.57 44.815 131.79 44.7562 131.984 44.6389C132.178 44.5156 132.328 44.3512 132.434 44.1457C132.545 43.9344 132.602 43.6877 132.602 43.4059C132.602 43.13 132.545 42.8864 132.434 42.675C132.328 42.4636 132.178 42.2992 131.984 42.1817C131.79 42.0644 131.57 42.0056 131.324 42.0056C131.072 42.0056 130.848 42.0644 130.654 42.1817C130.467 42.2992 130.317 42.4636 130.205 42.675C130.1 42.8864 130.047 43.13 130.047 43.4059C130.047 43.6877 130.1 43.9344 130.205 44.1457C130.317 44.3512 130.467 44.5156 130.654 44.6389C130.848 44.7562 131.072 44.815 131.324 44.815ZM136.004 45.7309C135.64 45.7309 135.338 45.6692 135.098 45.546C134.857 45.4227 134.678 45.2582 134.56 45.0527C134.443 44.8474 134.384 44.6242 134.384 44.3835C134.384 44.1016 134.454 43.858 134.595 43.6525C134.743 43.447 134.957 43.2885 135.239 43.177C135.52 43.0595 135.867 43.0009 136.278 43.0009H137.397C137.397 42.766 137.364 42.5722 137.299 42.4196C137.234 42.261 137.135 42.1436 137 42.0672C136.865 41.991 136.692 41.9527 136.48 41.9527C136.239 41.9527 136.034 42.0086 135.864 42.1201C135.694 42.2259 135.588 42.3902 135.547 42.6134H134.508C134.543 42.2962 134.648 42.0262 134.824 41.8031C135 41.5741 135.233 41.398 135.52 41.2746C135.814 41.1455 136.134 41.0809 136.48 41.0809C136.897 41.0809 137.253 41.1544 137.545 41.3011C137.839 41.442 138.063 41.6475 138.215 41.9176C138.374 42.1817 138.453 42.5017 138.453 42.8775V45.6252H137.554L137.449 44.9119C137.39 45.0294 137.314 45.138 137.22 45.2377C137.132 45.3375 137.029 45.4256 136.912 45.502C136.794 45.5724 136.659 45.6281 136.507 45.6692C136.36 45.7104 136.193 45.7309 136.004 45.7309ZM136.243 44.8942C136.413 44.8942 136.563 44.8649 136.692 44.8062C136.827 44.7416 136.942 44.6536 137.035 44.542C137.135 44.4246 137.212 44.2954 137.264 44.1545C137.317 44.0136 137.352 43.8639 137.37 43.7054V43.6877H136.392C136.187 43.6877 136.017 43.7141 135.882 43.767C135.747 43.814 135.649 43.8844 135.59 43.9784C135.532 44.0724 135.503 44.1809 135.503 44.3042C135.503 44.4275 135.532 44.5332 135.59 44.6212C135.649 44.7094 135.734 44.7769 135.847 44.8239C135.958 44.8707 136.09 44.8942 136.243 44.8942ZM141.177 45.7309C140.783 45.7309 140.439 45.6692 140.145 45.546C139.858 45.4169 139.629 45.2406 139.459 45.0176C139.294 44.7886 139.198 44.5274 139.168 44.2337H140.225C140.254 44.3571 140.308 44.4715 140.384 44.5772C140.46 44.677 140.563 44.7562 140.692 44.815C140.827 44.8737 140.985 44.9031 141.168 44.9031C141.344 44.9031 141.488 44.8796 141.599 44.8326C141.71 44.7797 141.793 44.7122 141.845 44.6301C141.898 44.5479 141.925 44.4599 141.925 44.3659C141.925 44.225 141.887 44.1164 141.81 44.04C141.734 43.9637 141.623 43.905 141.475 43.8639C141.334 43.8169 141.164 43.7729 140.965 43.7317C140.753 43.6906 140.548 43.6407 140.348 43.5821C140.154 43.5175 139.978 43.4382 139.82 43.3442C139.668 43.2504 139.544 43.13 139.45 42.9832C139.362 42.8364 139.318 42.6574 139.318 42.446C139.318 42.1876 139.385 41.9557 139.52 41.7502C139.662 41.5447 139.862 41.3832 140.119 41.2659C140.384 41.1426 140.698 41.0809 141.062 41.0809C141.578 41.0809 141.989 41.2012 142.294 41.442C142.605 41.6769 142.788 42.0086 142.84 42.4371H141.837C141.808 42.2727 141.725 42.1465 141.59 42.0585C141.455 41.9645 141.277 41.9176 141.053 41.9176C140.824 41.9176 140.648 41.9616 140.524 42.0496C140.407 42.1319 140.348 42.2434 140.348 42.3844C140.348 42.4724 140.384 42.5546 140.454 42.6309C140.53 42.7014 140.639 42.763 140.78 42.8159C140.92 42.8629 141.094 42.9099 141.299 42.9567C141.628 43.0214 141.919 43.0977 142.172 43.1857C142.424 43.2739 142.623 43.403 142.77 43.5732C142.917 43.7435 142.99 43.9842 142.99 44.2954C142.997 44.5772 142.923 44.8267 142.77 45.044C142.623 45.2612 142.415 45.4315 142.145 45.5547C141.875 45.6722 141.552 45.7309 141.177 45.7309ZM145.918 45.7309C145.478 45.7309 145.09 45.637 144.755 45.4491C144.42 45.2554 144.159 44.9852 143.972 44.6389C143.784 44.2925 143.69 43.8932 143.69 43.4411C143.69 42.9715 143.782 42.5605 143.963 42.2082C144.15 41.8559 144.412 41.58 144.747 41.3804C145.088 41.1807 145.48 41.0809 145.927 41.0809C146.362 41.0809 146.74 41.1777 147.063 41.3715C147.385 41.5652 147.635 41.8266 147.812 42.1554C147.988 42.4782 148.075 42.8422 148.075 43.2474C148.075 43.3061 148.075 43.3707 148.075 43.4411C148.075 43.5116 148.07 43.585 148.058 43.6614H144.448V42.9832H147.01C146.998 42.6602 146.89 42.4079 146.684 42.2259C146.479 42.038 146.223 41.944 145.918 41.944C145.7 41.944 145.502 41.9939 145.319 42.0937C145.138 42.1935 144.993 42.3432 144.888 42.5429C144.782 42.7366 144.729 42.9832 144.729 43.2826V43.538C144.729 43.814 144.779 44.0517 144.879 44.2514C144.984 44.451 145.125 44.6036 145.302 44.7094C145.484 44.8091 145.687 44.859 145.909 44.859C146.155 44.859 146.358 44.8062 146.517 44.7005C146.682 44.5949 146.802 44.454 146.878 44.2777H147.953C147.87 44.5537 147.735 44.8032 147.548 45.0264C147.359 45.2436 147.128 45.4169 146.852 45.546C146.575 45.6692 146.264 45.7309 145.918 45.7309Z" fill="#63666A"/>
</g>
<defs>
<clipPath id="clip0_4201_5060">
<rect width="150" height="48.75" fill="white" transform="translate(0 0.625)"/>
</clipPath>
</defs>
</svg>
