<svg xmlns="http://www.w3.org/2000/svg" width="120" height="50" viewBox="0 0 120 50" fill="none">
  <g clip-path="url(#clip0_4201_5007)">
    <path d="M71.5639 17.2241C68.9734 17.2241 67.0444 18.496 67.0444 21.5571C67.0444 23.8634 68.3158 25.4648 71.4241 25.4648C74.059 25.4648 75.8487 23.912 75.8487 21.4613C75.8487 18.6844 74.2473 17.2241 71.5639 17.2241ZM66.3849 38.8386C65.7716 39.5907 65.1607 40.3904 65.1607 41.3332C65.1607 43.2155 67.5609 43.782 70.8581 43.782C73.5887 43.782 77.3089 43.5904 77.3089 41.0513C77.3089 39.5421 75.5192 39.449 73.2578 39.3074L66.3849 38.8386ZM80.3219 17.3662C81.168 18.4492 82.064 19.9567 82.064 22.1222C82.064 27.3485 77.9675 30.4087 72.036 30.4087C70.5276 30.4087 69.1623 30.2208 68.3158 29.9856L66.7611 32.4803L71.3751 32.7626C79.5217 33.2819 84.3226 33.5179 84.3226 39.7776C84.3226 45.1936 79.5685 48.2524 71.3751 48.2524C62.853 48.2524 59.604 46.0864 59.604 42.3672C59.604 40.2483 60.5459 39.1204 62.194 37.564C60.6398 36.9072 60.1224 35.7307 60.1224 34.4584C60.1224 33.4217 60.6398 32.4807 61.4886 31.5852C62.3356 30.6919 63.277 29.7963 64.4072 28.7605C62.1005 27.6303 60.3575 25.182 60.3575 21.6969C60.3575 16.2832 63.9365 12.5649 71.139 12.5649C73.1643 12.5649 74.389 12.7509 75.472 13.0356H84.6545V17.0362L80.3219 17.3662ZM92.9381 8.80997C90.2537 8.80997 88.7 7.25488 88.7 4.57002C88.7 1.88888 90.2533 0.427734 92.9381 0.427734C95.6688 0.427734 97.2229 1.88888 97.2229 4.57002C97.2229 7.25488 95.6692 8.80997 92.9381 8.80997ZM86.8631 37.1058V33.3879L89.2651 33.0593C89.9246 32.9644 90.0181 32.8237 90.0181 32.116V18.2729C90.0181 17.7564 89.8774 17.425 89.4049 17.2852L86.8631 16.3897L87.3805 12.5769H97.1281V32.116C97.1281 32.8704 97.1734 32.9644 97.882 33.0597L100.283 33.3883V37.1058H86.8631ZM118.903 35.2804C116.878 36.2685 113.912 37.1631 111.227 37.1631C105.624 37.1631 103.506 34.9055 103.506 29.5821V17.2473C103.506 16.965 103.506 16.7766 103.128 16.7766H99.8324V12.5848C103.977 12.1127 105.624 10.0411 106.142 4.90881H110.615V11.5966C110.615 11.9253 110.615 12.0673 110.992 12.0673H117.631V16.7757H110.615V28.0283C110.615 30.8062 111.275 31.8883 113.817 31.8883C115.137 31.8883 116.501 31.5597 117.63 31.1358L118.903 35.2804Z" fill="#2F2707"/>
    <path d="M49.1367 22.924L27.6079 1.39659C27.313 1.10166 26.963 0.867703 26.5777 0.708084C26.1924 0.548464 25.7795 0.466309 25.3625 0.466309C24.9454 0.466309 24.5325 0.548464 24.1472 0.708084C23.762 0.867703 23.4119 1.10166 23.1171 1.39659L18.6466 5.86748L24.3176 11.538C24.9842 11.3113 25.701 11.2758 26.3867 11.4356C27.0725 11.5954 27.6997 11.944 28.1975 12.4419C28.698 12.943 29.0474 13.5748 29.2058 14.265C29.3643 14.9553 29.3253 15.6762 29.0935 16.3454L34.5581 21.8109C35.8804 21.3555 37.4064 21.6503 38.4621 22.7079C38.813 23.0586 39.0915 23.4751 39.2814 23.9335C39.4714 24.392 39.5692 24.8833 39.5692 25.3795C39.5692 25.8757 39.4714 26.3671 39.2814 26.8255C39.0915 27.2839 38.813 27.7004 38.4621 28.0512C37.8445 28.6693 37.0319 29.0543 36.1625 29.1406C35.293 29.227 34.4205 29.0094 33.6935 28.5248C32.9665 28.0403 32.4298 27.3188 32.1749 26.4831C31.92 25.6474 31.9625 24.7491 32.2954 23.9413L27.1987 18.8447L27.1983 32.2574C27.5677 32.44 27.9052 32.6814 28.1975 32.972C28.5485 33.3228 28.8269 33.7394 29.0168 34.1979C29.2068 34.6564 29.3045 35.1478 29.3045 35.6441C29.3045 36.1404 29.2068 36.6318 29.0168 37.0903C28.8269 37.5487 28.5485 37.9653 28.1975 38.3162C26.7211 39.7926 24.3283 39.7926 22.8542 38.3162C22.4138 37.8761 22.089 37.3341 21.9086 36.7382C21.7282 36.1423 21.6978 35.5111 21.8202 34.9007C21.9426 34.2902 22.2139 33.7195 22.6101 33.2392C23.0062 32.7589 23.5149 32.384 24.0909 32.1477V18.61C23.6275 18.4208 23.2069 18.1403 22.8542 17.7852C21.736 16.6684 21.4671 15.0277 22.0401 13.6545L16.4501 8.06359L1.6887 22.824C1.39373 23.119 1.15974 23.4692 1.0001 23.8545C0.840466 24.2399 0.758301 24.653 0.758301 25.0701C0.758301 25.4873 0.840466 25.9003 1.0001 26.2857C1.15974 26.6711 1.39373 27.0213 1.6887 27.3162L23.2175 48.8441C23.8131 49.4395 24.6208 49.774 25.4629 49.774C26.3051 49.774 27.1127 49.4395 27.7083 48.8441L49.1367 27.4167C49.7322 26.8208 50.0667 26.0128 50.0667 25.1703C50.0667 24.3279 49.7322 23.5199 49.1367 22.924Z" fill="#DE4C36"/>
  </g>
  <defs>
    <clipPath id="clip0_4201_5007">
      <rect width="118.483" height="50" fill="white" transform="translate(0.758301)"/>
    </clipPath>
  </defs>
</svg>