<svg width="176" height="70" viewBox="0 0 176 70" fill="none" xmlns="http://www.w3.org/2000/svg">
<g clip-path="url(#clip0_4201_5044)">
<mask id="mask0_4201_5044" style="mask-type:luminance" maskUnits="userSpaceOnUse" x="0" y="0" width="176" height="70">
<path d="M175.5 0H0.5V70H175.5V0Z" fill="white"/>
</mask>
<g mask="url(#mask0_4201_5044)">
<path d="M93.5221 9.01106H94.7622L98.2968 5.47655L98.4704 3.97593C96.4457 2.18877 93.9985 0.947293 91.3605 0.368774C88.7226 -0.209745 85.9807 -0.106209 83.3938 0.669602C80.807 1.44541 78.4605 2.86788 76.5765 4.80263C74.6921 6.73739 73.332 9.12058 72.625 11.7271C73.0187 11.5656 73.4548 11.5395 73.865 11.6527L80.9343 10.4869C80.9343 10.4869 81.2938 9.89159 81.48 9.9288C82.9945 8.26528 85.0878 7.24367 87.3309 7.07304C89.5744 6.90245 91.798 7.59577 93.5469 9.01106H93.5221Z" fill="#EA4335"/>
<path d="M103.332 11.727C102.519 8.73526 100.851 6.04569 98.5322 3.98828L93.5716 8.94904C94.6052 9.7938 95.434 10.8623 95.9947 12.0739C96.5554 13.2856 96.8336 14.6088 96.8084 15.9437V16.8242C97.3884 16.8239 97.9627 16.9378 98.4986 17.1596C99.0344 17.3813 99.5216 17.7065 99.9318 18.1165C100.342 18.5265 100.668 19.0133 100.889 19.5491C101.112 20.0849 101.226 20.6592 101.226 21.2392C101.226 21.8192 101.112 22.3935 100.889 22.9293C100.668 23.4652 100.342 23.952 99.9318 24.362C99.5216 24.772 99.0344 25.0972 98.4986 25.3189C97.9627 25.5406 97.3884 25.6546 96.8084 25.6543H87.9783L87.0977 26.5472V31.8428L87.9783 32.7233H96.8084C99.2742 32.7425 101.68 31.9675 103.672 30.513C105.663 29.0585 107.133 27.0017 107.865 24.6469C108.596 22.2921 108.551 19.7644 107.734 17.4376C106.918 15.1108 105.374 13.1085 103.332 11.727Z" fill="#4285F4"/>
<path d="M79.1359 32.6739H87.9661V25.6049H79.1359C78.5066 25.6047 77.885 25.4694 77.3128 25.208L76.0727 25.5925L72.5132 29.127L72.2031 30.3672C74.1992 31.8744 76.6348 32.6848 79.1359 32.6739Z" fill="#34A853"/>
<path d="M79.1362 9.74324C76.7436 9.75755 74.4154 10.5187 72.4764 11.9205C70.5374 13.3223 69.0846 15.2947 68.3212 17.5621C67.5575 19.8296 67.5215 22.2789 68.2173 24.568C68.9134 26.8571 70.3071 28.8716 72.2034 30.3303L77.3253 25.2083C76.6747 24.9142 76.1049 24.4667 75.6649 23.904C75.225 23.3412 74.9282 22.6802 74.8001 21.9776C74.6716 21.2749 74.7157 20.5517 74.9285 19.8699C75.1413 19.188 75.5162 18.568 76.0212 18.0629C76.5263 17.5579 77.1465 17.1829 77.8283 16.9702C78.5101 16.7574 79.2332 16.7133 79.936 16.8416C80.6388 16.9698 81.2996 17.2666 81.8624 17.7065C82.4252 18.1464 82.8728 18.7162 83.1668 19.367L88.2887 14.2451C87.2135 12.8397 85.8279 11.702 84.2403 10.921C82.6523 10.14 80.9055 9.73694 79.1362 9.74324Z" fill="#FBBC05"/>
<path d="M39.7907 65.5574C38.7715 65.5704 37.7603 65.3775 36.8174 64.9904C35.8745 64.6033 35.0194 64.03 34.3035 63.3045C33.565 62.6097 32.9789 61.7694 32.5825 60.8363C32.1861 59.9032 31.9879 58.8976 32.0006 57.884C31.9884 56.8701 32.1868 55.8649 32.5832 54.9321C32.9796 53.999 33.5654 53.1583 34.3035 52.4632C35.0159 51.7303 35.8693 51.1493 36.8125 50.7549C37.7554 50.3604 38.7683 50.1613 39.7907 50.1686C40.7644 50.1557 41.7314 50.3366 42.6348 50.7006C43.5381 51.0643 44.3603 51.6043 45.0533 52.2889L43.5735 53.7936C42.5599 52.8143 41.1998 52.276 39.7907 52.297C39.0595 52.2882 38.3347 52.4314 37.662 52.7177C36.9893 53.0036 36.3834 53.4268 35.8833 53.9598C35.363 54.4757 34.9528 55.0917 34.677 55.7704C34.4013 56.449 34.2657 57.1763 34.2785 57.9089C34.2724 58.633 34.4113 59.3509 34.6868 60.0204C34.9624 60.6903 35.3691 61.2979 35.8833 61.8079C36.9126 62.8341 38.3021 63.4175 39.7553 63.4347C41.2089 63.4518 42.6113 62.9009 43.6648 61.8996C44.3169 61.1852 44.7169 60.277 44.8037 59.3138H39.8155V57.1854H46.874C46.9433 57.6142 46.9713 58.0485 46.9569 58.4825C47.001 59.3806 46.8621 60.2784 46.5492 61.1215C46.2363 61.9647 45.7557 62.7357 45.1362 63.3878C44.4478 64.1046 43.6158 64.6684 42.6946 65.0422C41.7738 65.416 40.784 65.5917 39.7907 65.5574ZM56.2018 64.1441C55.2547 65.052 53.9933 65.5592 52.6812 65.5592C51.369 65.5592 50.1076 65.052 49.1602 64.1441C48.6887 63.687 48.3174 63.1368 48.0699 62.5285C47.8221 61.9202 47.7038 61.2671 47.722 60.6109C47.7042 59.9543 47.8228 59.3015 48.0706 58.6932C48.3181 58.0853 48.6891 57.5351 49.1602 57.0776C50.1083 56.1715 51.3694 55.6657 52.6812 55.6657C53.9926 55.6657 55.2537 56.1715 56.2018 57.0776C56.6729 57.5351 57.0439 58.0853 57.2917 58.6932C57.5392 59.3015 57.6578 59.9543 57.6403 60.6109C57.6575 61.2678 57.5374 61.9213 57.2886 62.5296C57.0394 63.1379 56.6666 63.6877 56.1938 64.1441H56.2018ZM50.7149 62.7557C50.9669 63.0248 51.2714 63.2394 51.6095 63.386C51.9476 63.5327 52.3123 63.6083 52.6812 63.6083C53.0497 63.6083 53.4144 63.5327 53.7525 63.386C54.091 63.2394 54.3955 63.0248 54.6471 62.7557C54.9219 62.4718 55.1371 62.1358 55.2799 61.7673C55.4227 61.3991 55.4903 61.0057 55.4787 60.6109C55.491 60.2147 55.4238 59.8199 55.281 59.4499C55.1382 59.0803 54.9226 58.7429 54.6471 58.4577C54.392 58.1913 54.0854 57.9792 53.7462 57.8347C53.4067 57.6898 53.0417 57.6152 52.6728 57.6152C52.3039 57.6152 51.9388 57.6898 51.5993 57.8347C51.2602 57.9792 50.9536 58.1913 50.6981 58.4577C50.423 58.7429 50.2074 59.0803 50.0646 59.4499C49.9218 59.8199 49.8546 60.2147 49.8668 60.6109C49.8563 61.0064 49.9253 61.3998 50.0695 61.7683C50.2137 62.1369 50.4303 62.4725 50.7065 62.7557H50.7149ZM67.0263 64.1441C66.0792 65.0524 64.8178 65.5592 63.5056 65.5592C62.1935 65.5592 60.9321 65.0524 59.9846 64.1441C59.5132 63.687 59.1418 63.1368 58.8944 62.5285C58.6466 61.9202 58.5283 61.2671 58.5465 60.6109C58.5286 59.9543 58.6476 59.3015 58.8951 58.6932C59.1425 58.0853 59.5135 57.5351 59.9846 57.0776C60.9321 56.1694 62.1935 55.6626 63.5056 55.6626C64.8178 55.6626 66.0792 56.1694 67.0263 57.0776C67.4974 57.5351 67.8684 58.0853 68.1162 58.6932C68.3636 59.3015 68.4823 59.9543 68.4648 60.6109C68.483 61.2671 68.3643 61.9202 68.1169 62.5285C67.8691 63.1368 67.4981 63.687 67.0263 64.1441ZM61.5393 62.7557C61.7913 63.0248 62.0958 63.2394 62.4339 63.386C62.7724 63.5327 63.1371 63.6083 63.5056 63.6083C63.8742 63.6083 64.2389 63.5327 64.577 63.386C64.9154 63.2394 65.2199 63.0248 65.4716 62.7557C65.7463 62.4718 65.9616 62.1358 66.1044 61.7673C66.2472 61.3991 66.3147 61.0057 66.3032 60.6109C66.3154 60.2147 66.2482 59.8199 66.1054 59.4499C65.9626 59.0803 65.747 58.7429 65.4716 58.4577C65.2164 58.1913 64.9098 57.9792 64.5707 57.8347C64.2312 57.6898 63.8661 57.6152 63.4972 57.6152C63.1283 57.6152 62.7633 57.6898 62.4238 57.8347C62.0846 57.9792 61.778 58.1913 61.5229 58.4577C61.2474 58.7429 61.0318 59.0803 60.889 59.4499C60.7462 59.8199 60.679 60.2147 60.6913 60.6109C60.6808 61.0064 60.7497 61.3998 60.8939 61.7683C61.0381 62.1369 61.2548 62.4725 61.5309 62.7557H61.5393ZM74.1432 69.9972C73.1464 70.0287 72.1692 69.7175 71.3747 69.1159C70.6687 68.5853 70.1129 67.8804 69.7615 67.0705L71.6571 66.2809C71.8636 66.7649 72.1863 67.1905 72.5965 67.5195C73.0361 67.8737 73.5874 68.0596 74.1512 68.0435C74.5089 68.0652 74.8673 68.0095 75.2016 67.8804C75.5358 67.7512 75.8382 67.5517 76.0885 67.2952C76.5893 66.6911 76.8368 65.9162 76.7783 65.1336V64.4185H76.7038C76.3867 64.7948 75.9866 65.0923 75.5351 65.2869C75.0833 65.4818 74.5926 65.5686 74.1015 65.541C73.4771 65.5427 72.8594 65.4153 72.2871 65.1661C71.7145 64.9173 71.2 64.5522 70.7758 64.0944C70.3156 63.6401 69.9523 63.0969 69.708 62.4984C69.4637 61.8996 69.3433 61.2573 69.3541 60.6109C69.3429 59.9606 69.463 59.3145 69.7073 58.7114C69.9516 58.1087 70.3149 57.5613 70.7758 57.1025C71.199 56.6426 71.7131 56.2758 72.2857 56.0252C72.8583 55.7749 73.4764 55.6461 74.1015 55.6475C74.6304 55.6465 75.1526 55.763 75.631 55.9884C76.0451 56.169 76.414 56.4389 76.7122 56.778H76.7867V55.9884H78.8486V64.8424C78.9028 65.5431 78.8136 66.2469 78.5864 66.9119C78.3589 67.5766 77.9984 68.188 77.5266 68.7085C77.0772 69.1383 76.5463 69.4739 75.9653 69.6951C75.3843 69.9163 74.7644 70.0192 74.1432 69.9972ZM74.2926 63.6121C74.6475 63.6198 75 63.5495 75.3248 63.4056C75.6496 63.2621 75.9387 63.0486 76.1714 62.7809C76.6845 62.1929 76.9551 61.432 76.9281 60.6525C76.9589 59.8594 76.6887 59.0845 76.1714 58.4825C75.939 58.2141 75.6499 58.0002 75.3251 57.8567C75.0003 57.7129 74.6479 57.6429 74.2926 57.6513C73.9279 57.6436 73.5657 57.7139 73.2304 57.8574C72.8951 58.0006 72.5941 58.2137 72.3473 58.4825C71.7975 59.0628 71.4986 59.8367 71.5157 60.6357C71.5073 61.0277 71.5766 61.4176 71.7191 61.783C71.8619 62.1481 72.0754 62.4816 72.3473 62.7641C72.5927 63.0353 72.8933 63.2513 73.2286 63.3976C73.5639 63.5439 73.9269 63.617 74.2926 63.6121ZM82.5148 50.7258V65.2582H80.3452V50.7258H82.5148ZM88.4676 65.5574C87.8177 65.5742 87.1716 65.4566 86.5692 65.212C85.9669 64.9673 85.4216 64.6009 84.9676 64.1357C84.5067 63.6741 84.1444 63.1235 83.9029 62.5177C83.6614 61.9118 83.5456 61.2629 83.5624 60.6109C83.5379 59.9571 83.6453 59.305 83.8781 58.6939C84.1108 58.0825 84.4643 57.5242 84.9176 57.0524C85.3446 56.6023 85.8612 56.2464 86.4338 56.0073C87.0064 55.7679 87.6227 55.6514 88.2433 55.664C88.8138 55.658 89.3794 55.7686 89.9058 55.9884C90.38 56.1799 90.8122 56.4623 91.178 56.8197C91.492 57.1228 91.7705 57.4602 92.0093 57.8256C92.2021 58.1343 92.3662 58.4598 92.4996 58.7986L92.7243 59.3638L86.0733 62.0991C86.2745 62.5611 86.6109 62.9517 87.0382 63.2187C87.4656 63.4858 87.964 63.617 88.4676 63.5953C88.9576 63.5967 89.4396 63.4711 89.8666 63.2306C90.2932 62.9902 90.6506 62.6433 90.9036 62.2237L92.5661 63.3461C92.1419 63.953 91.5991 64.4679 90.9701 64.8592C90.2222 65.3317 89.3521 65.5746 88.4676 65.5574ZM85.6907 60.4611L90.1137 58.6239C89.9775 58.2998 89.7339 58.0328 89.4238 57.8672C89.0766 57.6712 88.6836 57.5708 88.2846 57.5764C87.608 57.5939 86.9658 57.8777 86.4971 58.366C86.2168 58.6344 85.9991 58.9613 85.8598 59.3236C85.7205 59.6858 85.6627 60.074 85.6907 60.4611Z" fill="#5F6368"/>
<path d="M104.09 65.557C103.167 65.5731 102.251 65.4023 101.395 65.0551C100.54 64.7082 99.764 64.1916 99.1134 63.5371C98.4627 62.8826 97.951 62.1032 97.6087 61.246C97.2668 60.3889 97.1016 59.4712 97.1229 58.5486C97.1016 57.626 97.2668 56.7083 97.6087 55.8511C97.951 54.994 98.4627 54.2145 99.1134 53.56C99.764 52.9055 100.54 52.3889 101.395 52.0421C102.251 51.6949 103.167 51.5241 104.09 51.5402C105.024 51.5108 105.952 51.6931 106.806 52.0732C107.66 52.4533 108.417 53.0214 109.02 53.735L107.823 54.8988C107.38 54.3416 106.812 53.8971 106.164 53.601C105.517 53.3045 104.809 53.1656 104.098 53.1946C103.414 53.1792 102.733 53.3021 102.097 53.5565C101.462 53.811 100.884 54.1911 100.399 54.6744C99.8942 55.1816 99.5001 55.7874 99.2415 56.4542C98.9825 57.1209 98.8642 57.8339 98.8939 58.5486C98.8642 59.2633 98.9825 59.9762 99.2415 60.643C99.5001 61.3097 99.8942 61.9156 100.399 62.4227C100.884 62.9061 101.462 63.2862 102.097 63.5406C102.733 63.7947 103.414 63.9179 104.098 63.9025C104.893 63.9116 105.679 63.7412 106.399 63.4045C107.119 63.0678 107.753 62.5729 108.255 61.9572L109.452 63.1542C108.826 63.9039 108.039 64.5035 107.149 64.9084C106.191 65.3512 105.146 65.5727 104.09 65.557Z" fill="#5F6368"/>
<path d="M112.669 65.2578H110.947V51.8311H112.669V65.2578Z" fill="#5F6368"/>
<path d="M115.479 57.1775C116.381 56.2819 117.6 55.7793 118.871 55.7793C120.142 55.7793 121.361 56.2819 122.263 57.1775C122.704 57.643 123.048 58.1911 123.277 58.7903C123.505 59.3895 123.612 60.0283 123.593 60.6691C123.612 61.31 123.505 61.9487 123.277 62.5479C123.048 63.1471 122.704 63.6952 122.263 64.1611C121.361 65.0564 120.142 65.559 118.871 65.559C117.6 65.559 116.381 65.0564 115.479 64.1611C115.038 63.6952 114.693 63.1471 114.465 62.5479C114.237 61.9487 114.129 61.31 114.149 60.6691C114.129 60.0283 114.237 59.3895 114.465 58.7903C114.693 58.1911 115.038 57.643 115.479 57.1775ZM116.759 63.0803C117.03 63.3666 117.357 63.5948 117.719 63.7509C118.082 63.907 118.472 63.9875 118.867 63.9875C119.261 63.9875 119.651 63.907 120.014 63.7509C120.376 63.5948 120.703 63.3666 120.974 63.0803C121.275 62.7572 121.509 62.3778 121.661 61.9641C121.814 61.5501 121.883 61.1098 121.864 60.6691C121.883 60.2285 121.814 59.7882 121.661 59.3741C121.509 58.9604 121.275 58.581 120.974 58.258C120.703 57.9717 120.376 57.7435 120.014 57.5874C119.651 57.4313 119.261 57.3508 118.867 57.3508C118.472 57.3508 118.082 57.4313 117.719 57.5874C117.357 57.7435 117.03 57.9717 116.759 58.258C116.458 58.581 116.225 58.9604 116.072 59.3741C115.919 59.7882 115.85 60.2285 115.87 60.6691C115.853 61.1091 115.924 61.548 116.078 61.9606C116.232 62.3729 116.466 62.7506 116.767 63.0719L116.759 63.0803Z" fill="#5F6368"/>
<path d="M133.129 65.2585H131.466V63.9866H131.417C131.121 64.4696 130.702 64.8654 130.203 65.1339C129.686 65.4338 129.097 65.5917 128.499 65.591C128.013 65.6242 127.526 65.5472 127.074 65.3659C126.622 65.1846 126.216 64.9032 125.888 64.5434C125.258 63.7468 124.942 62.7472 124.999 61.7333V56.0801H126.72V61.4176C126.72 63.1301 127.476 63.9866 128.989 63.9866C129.326 63.9971 129.659 63.9271 129.963 63.7825C130.267 63.6376 130.531 63.4227 130.735 63.155C131.181 62.5897 131.419 61.888 131.409 61.168V56.0801H133.13L133.129 65.2585Z" fill="#5F6368"/>
<path d="M138.974 65.557C138.39 65.5591 137.813 65.4345 137.282 65.192C136.751 64.9494 136.279 64.5945 135.898 64.1521C135.036 63.2001 134.575 61.9524 134.609 60.6686C134.575 59.3848 135.036 58.137 135.898 57.185C136.279 56.7426 136.751 56.3877 137.282 56.1452C137.813 55.9026 138.39 55.778 138.974 55.7801C139.628 55.7696 140.274 55.924 140.853 56.2292C141.361 56.485 141.792 56.8725 142.1 57.3513H142.175L142.1 56.0794V51.8311H143.821V65.2578H142.158V63.9859H142.083C141.775 64.4647 141.345 64.8521 140.836 65.108C140.262 65.4104 139.623 65.5647 138.974 65.557ZM139.257 63.9859C139.646 63.9915 140.031 63.9141 140.388 63.7594C140.745 63.6047 141.065 63.3758 141.327 63.0878C141.912 62.4221 142.21 61.553 142.158 60.6686C142.21 59.7841 141.912 58.9151 141.327 58.2494C141.064 57.9599 140.743 57.7286 140.385 57.5704C140.027 57.4122 139.64 57.3303 139.248 57.3303C138.857 57.3303 138.47 57.4122 138.112 57.5704C137.754 57.7286 137.433 57.9599 137.17 58.2494C136.88 58.5766 136.657 58.9581 136.514 59.3718C136.371 59.7855 136.312 60.2234 136.339 60.6602C136.312 61.097 136.371 61.5348 136.514 61.9485C136.657 62.3622 136.88 62.7437 137.17 63.0713C137.432 63.3643 137.754 63.5977 138.114 63.7552C138.474 63.9131 138.864 63.9918 139.257 63.9859Z" fill="#5F6368"/>
</g>
</g>
<defs>
<clipPath id="clip0_4201_5044">
<rect width="175" height="70" fill="white" transform="translate(0.5)"/>
</clipPath>
</defs>
</svg>
