<svg xmlns="http://www.w3.org/2000/svg" width="168" height="50" viewBox="0 0 168 50" fill="none">
  <g clip-path="url(#clip0_4201_4937)">
    <path fill-rule="evenodd" clip-rule="evenodd" d="M36.4522 24.0621C36.4522 33.955 28.6113 41.9761 18.9393 41.9761C9.26718 41.9761 1.42627 33.955 1.42627 24.0621C1.42627 14.1693 9.26718 6.14816 18.9393 6.14816C28.6113 6.14816 36.4522 14.1676 36.4522 24.0621Z" fill="#D33833"/>
    <path d="M2.14063 28.498C2.14063 28.498 0.872776 9.81704 18.0854 9.28376L16.8841 7.28214L7.54404 10.4177L4.87521 13.4859L2.53998 17.9558L1.20557 23.1588L1.60573 26.6279" fill="#EF3D3A"/>
    <path d="M6.94661 11.8406C3.87356 14.9843 1.97259 19.3244 1.97259 24.1272C1.97259 28.9299 3.87275 33.2708 6.94661 36.4137C10.0205 39.5566 14.2575 41.4965 18.9409 41.4965C23.6244 41.4965 27.8695 39.5484 30.9353 36.4137C34.001 33.279 35.9093 28.9299 35.9093 24.128C35.9093 19.326 34.0075 14.9851 30.9353 11.8415C27.863 8.69779 23.6244 6.76028 18.9409 6.75866C14.2575 6.75704 10.0124 8.7059 6.94661 11.8406ZM6.15928 37.1734C2.90197 33.835 0.883301 29.2189 0.883301 24.128C0.883301 19.0371 2.90197 14.4202 6.15928 11.0809C9.41658 7.74162 13.9515 5.67019 18.932 5.67019C23.9125 5.67019 28.4401 7.73999 31.7039 11.0809C34.9677 14.4218 36.988 19.0354 36.988 24.128C36.988 29.2205 34.9693 33.8358 31.7039 37.1742C28.4385 40.5127 23.9117 42.585 18.932 42.585C13.9523 42.585 9.43281 40.5152 6.15928 37.1734Z" fill="#231F20"/>
    <path fill-rule="evenodd" clip-rule="evenodd" d="M26.3107 24.1605L23.6419 24.5606L20.038 24.9608L17.7027 25.0273L15.4349 24.9608L13.7003 24.4267L12.1581 22.7587L10.9568 19.3561L10.6889 18.6223L9.08747 18.089L8.15402 16.5549L7.48682 14.3536L8.22058 12.4186L9.95516 11.8179L11.3561 12.4851L12.0233 13.9527L12.8237 13.8196L13.0915 13.4868L12.8237 11.9527L12.7571 10.0176L13.1573 7.34877L13.141 5.82442L14.3586 3.87962L16.4933 2.34553L20.2295 0.744064L24.3659 1.34472L27.9682 3.94699L29.6362 6.61582L30.7035 8.55088L30.9714 13.3545L30.1711 17.4908L28.7035 21.1596L27.3026 23.0947" fill="#F0D6B7"/>
    <path fill-rule="evenodd" clip-rule="evenodd" d="M24.0434 35.7028L14.5028 36.1022V37.7036L15.3032 43.3083L14.903 43.7759L8.23093 41.5072L7.7634 40.7069L7.09619 33.1679L5.55398 28.6306L5.22119 27.5632L10.558 23.8944L12.2261 23.2272L13.6936 25.0291L14.9615 26.1631L16.429 26.6298L17.0962 26.8303L17.8965 30.2994L18.4972 31.0332L20.0313 30.4991L18.9639 32.5673L24.7675 35.3027L24.0337 35.7028" fill="#335061"/>
    <path fill-rule="evenodd" clip-rule="evenodd" d="M8.23139 12.419L9.96597 11.8184L11.3669 12.4856L12.0341 13.9531L12.8345 13.82L13.035 13.0197L12.6348 11.4775L13.035 7.80864L12.7022 5.80702L13.9035 4.40605L16.5057 2.33786L15.772 1.33705L12.1031 3.139L10.5609 4.3403L9.69405 6.20718L8.35964 8.00913L7.95947 10.1439L8.22733 12.4125" fill="#6D6B6D"/>
    <path fill-rule="evenodd" clip-rule="evenodd" d="M10.9661 6.14834C10.9661 6.14834 11.967 3.6808 15.9702 2.4795C19.9734 1.2782 16.1707 1.611 16.1707 1.611L11.8347 3.27821L10.1666 4.94623L9.43286 6.28064L10.9751 6.14752M8.96533 11.9511C8.96533 11.9511 7.56436 7.28064 12.902 6.61343L12.7015 5.81311L9.0327 6.68162L7.96533 10.1532L8.23319 12.4219L8.96696 11.9552" fill="#DCD9D8"/>
    <path fill-rule="evenodd" clip-rule="evenodd" d="M11.1001 18.1559L11.9735 17.3093C11.9735 17.3093 12.368 17.3548 12.4345 17.8223C12.5011 18.2898 12.7024 22.4927 15.5701 24.7622C15.8314 24.9692 13.4353 24.4375 13.4353 24.4375L11.3006 21.1096M23.3761 16.897C23.3761 16.897 23.5319 14.8677 24.0766 15.0301C24.6212 15.1924 24.6204 15.7306 24.6204 15.7306C24.6204 15.7306 23.2973 16.5861 23.3761 16.897Z" fill="#F7E4CD"/>
    <path d="M28.9141 9.48383C28.9141 9.48383 27.8143 9.71597 27.7128 10.6851C27.6114 11.6543 28.9141 10.8856 29.1138 10.8182M20.8411 9.55039C20.8411 9.55039 19.3735 9.75087 19.3735 10.6843C19.3735 11.6178 21.0416 11.5528 21.5083 11.1518" fill="#F7E4CD"/>
    <path fill-rule="evenodd" clip-rule="evenodd" d="M11.7592 13.8942C11.7592 13.8942 9.2235 12.352 8.95727 13.8277C8.69103 15.3033 8.08876 16.3626 9.35743 17.8975L8.49055 17.6296L7.69022 15.5614L7.42236 13.5598L8.96457 11.9583L10.6991 12.0915L11.7 12.8918L11.7592 13.8942ZM12.9767 9.68318C12.9767 9.68318 14.1107 3.81223 19.8485 2.67831C24.5725 1.74487 27.0539 2.87879 27.9881 3.94616C27.9881 3.94616 23.7852 -1.05709 19.7901 0.477007C15.7949 2.0111 12.8517 4.81386 12.9183 6.61499L12.9849 9.68318M28.4475 4.61256C28.4475 4.61256 26.5133 4.546 26.4459 6.28058C26.4459 6.28058 26.4459 6.54843 26.579 6.81386C26.579 6.81386 28.1212 5.07928 29.0466 6.01353M19.9735 6.99486C19.9735 6.99486 19.6488 4.33253 17.3704 5.88042C15.9029 6.88123 16.036 8.28301 16.303 8.54925C16.5701 8.81548 16.4978 9.36093 16.7089 8.98512C16.9199 8.60931 16.8453 7.41532 17.579 7.08172C18.3128 6.74811 19.5157 6.37555 19.9816 6.99568" fill="#F7E4CD"/>
    <path fill-rule="evenodd" clip-rule="evenodd" d="M13.7017 25.0281L7.43063 27.8308C7.43063 27.8308 10.0329 38.1636 8.6993 41.373L7.76586 41.0484L7.6993 37.1117L5.96472 29.6393L5.23096 27.5711L11.7594 23.1604L13.6944 25.0273M14.347 30.7472L15.2366 31.8325V35.8357H14.1701L14.037 32.7002C14.037 32.3755 14.1701 31.158 14.1701 31.158M14.3689 36.4364L11.3657 36.5695L12.2342 37.1701L14.3689 37.4948" fill="#49728B"/>
    <path fill-rule="evenodd" clip-rule="evenodd" d="M24.6431 35.7701L27.1106 35.7035L27.7112 41.8415L25.1763 42.1743L24.6431 35.7701Z" fill="#335061"/>
    <path fill-rule="evenodd" clip-rule="evenodd" d="M25.311 35.77L29.0472 35.5695L30.5894 31.4997C30.5894 31.2992 31.9239 25.8958 31.9239 25.8958L28.9206 22.7603L28.32 22.2262L26.7185 23.8276V30.0314L25.3175 35.77" fill="#335061"/>
    <path fill-rule="evenodd" clip-rule="evenodd" d="M26.9783 35.3025L24.6431 35.7693L24.9677 37.6378C25.8346 38.0379 27.303 36.9706 27.303 36.9706M27.0367 23.6264L31.7064 27.0956L31.8395 25.4941L28.3038 22.2254L27.0432 23.6345" fill="#49728B"/>
    <path fill-rule="evenodd" clip-rule="evenodd" d="M16.6843 48.9132L15.3028 43.3085L14.6161 39.1729L14.5024 36.1023L20.7541 35.7776H24.6437L24.2898 42.7744L24.8904 48.1786L24.8239 49.1794L19.7533 49.5796L16.6851 48.9124" fill="white"/>
    <path fill-rule="evenodd" clip-rule="evenodd" d="M23.7766 35.7027C23.7766 35.7027 23.4438 42.641 24.4438 47.5777C24.4438 47.5777 22.4422 48.8456 19.5063 49.1792L25.1102 48.9787L25.7775 48.5785L24.9771 37.637L24.7766 35.3018" fill="#DCD9D8"/>
    <path fill-rule="evenodd" clip-rule="evenodd" d="M27.8264 41.3071L30.4287 40.5734L35.3654 40.3055L36.0991 38.0376L34.7647 34.101L33.2225 33.9005L31.0878 34.5677L29.0391 35.5677L27.9514 35.368L27.104 35.6927" fill="white"/>
    <path fill-rule="evenodd" clip-rule="evenodd" d="M27.7798 39.9727C27.7798 39.9727 29.5144 39.1724 29.7814 39.239L29.0476 35.5701L29.9145 35.2373L30.5152 39.1067L34.585 39.3071C34.585 39.3071 35.3853 37.7649 35.1856 36.1716L35.9194 38.3063L35.986 39.5076L34.9186 41.1091L33.7173 41.377L31.7157 41.3104L31.0485 40.4435L28.7132 40.7763L27.9795 41.0442" fill="#DCD9D8"/>
    <path d="M25.1584 35.236L23.6908 31.5079L22.1567 29.3066C22.1567 29.3066 22.4895 28.3732 22.9571 28.3732H24.4912L25.9587 28.9073L25.8256 31.3748L25.1584 35.2441" fill="white"/>
    <path fill-rule="evenodd" clip-rule="evenodd" d="M25.4452 33.9679C25.4452 33.9679 23.5767 30.3656 23.5767 29.8315C23.5767 29.8315 23.9095 29.0312 24.377 29.2309C24.8446 29.4305 25.8446 29.9646 25.8446 29.9646V28.6968L23.5759 28.2292L22.0337 28.4297L24.636 34.5677L25.1692 34.6343" fill="#DCD9D8"/>
    <path d="M17.2864 25.1624L15.4382 24.9611L13.7036 24.427V25.0277L14.551 25.9628L17.2198 27.1641" fill="white"/>
    <path fill-rule="evenodd" clip-rule="evenodd" d="M14.3029 25.3624C14.3029 25.3624 16.371 26.2309 17.0383 26.0296L17.1048 26.8291L15.2379 26.4298L14.104 25.6294L14.3045 25.3616" fill="#DCD9D8"/>
    <path fill-rule="evenodd" clip-rule="evenodd" d="M27.8183 28.5918C26.686 28.5593 25.6633 28.4238 24.768 28.1714C24.8289 27.8045 24.7153 27.4441 24.8062 27.1795C25.0554 27.0009 25.4742 27.0025 25.8516 26.9603C25.5253 26.7996 25.0667 26.7363 24.6909 26.8288C24.6828 26.574 24.5675 26.4165 24.4985 26.2168C25.1349 25.9895 26.6373 24.5001 27.4831 24.9936C27.8857 25.229 28.057 26.5683 28.0878 27.2193C28.1138 27.7598 28.0391 28.3045 27.8183 28.5991" fill="#D33833"/>
    <path d="M27.8183 28.5918C26.686 28.5593 25.6633 28.4238 24.768 28.1714C24.8289 27.8045 24.7153 27.4441 24.8062 27.1795C25.0554 27.0009 25.4742 27.0025 25.8516 26.9603C25.5253 26.7996 25.0667 26.7363 24.6909 26.8288C24.6828 26.574 24.5675 26.4165 24.4985 26.2168C25.1349 25.9895 26.6373 24.5001 27.4831 24.9936C27.8857 25.229 28.057 26.5683 28.0878 27.2193C28.1138 27.7598 28.0391 28.3045 27.8183 28.5991V28.5918Z" stroke="#D33833" stroke-width="0.400162"/>
    <path fill-rule="evenodd" clip-rule="evenodd" d="M22.4057 26.7407L22.3959 26.9988C22.0428 27.231 21.4722 27.2285 21.0842 27.4233C21.575 27.4393 22.0565 27.5612 22.4958 27.7805L22.4714 28.4274C21.8237 28.8706 21.232 29.5313 20.469 29.9477C20.1086 30.1441 18.8423 30.6506 18.4584 30.5613C18.2417 30.511 18.2214 30.2415 18.1354 29.9875C17.9503 29.4436 17.525 28.5784 17.4876 27.7594C17.4406 26.7253 17.3358 24.9915 18.4503 25.2058C19.3488 25.3763 20.3951 25.7902 21.0907 26.1798C21.516 26.4128 21.762 26.6993 22.4073 26.7496" fill="#D33833"/>
    <path d="M22.4057 26.7407L22.3959 26.9988C22.0428 27.231 21.4722 27.2285 21.0842 27.4233C21.575 27.4393 22.0565 27.5612 22.4958 27.7805L22.4714 28.4274C21.8237 28.8706 21.232 29.5313 20.469 29.9477C20.1086 30.1441 18.8423 30.6506 18.4584 30.5613C18.2417 30.511 18.2214 30.2415 18.1354 29.9875C17.9503 29.4436 17.525 28.5784 17.4876 27.7594C17.4406 26.7253 17.3358 24.9915 18.4503 25.2058C19.3488 25.3763 20.3951 25.7902 21.0907 26.1798C21.516 26.4128 21.762 26.6993 22.4073 26.7496L22.4057 26.7407Z" stroke="#D33833" stroke-width="0.400162"/>
    <path fill-rule="evenodd" clip-rule="evenodd" d="M23.0504 27.9753C22.9513 27.412 22.8369 27.2513 22.8815 26.7602C24.3831 25.7586 24.6656 28.481 23.0504 27.9753Z" fill="#D33833"/>
    <path d="M23.0504 27.9753C22.9513 27.412 22.8369 27.2513 22.8815 26.7602C24.3831 25.7586 24.6656 28.481 23.0504 27.9753Z" stroke="#D33833" stroke-width="0.400162"/>
    <path fill-rule="evenodd" clip-rule="evenodd" d="M25.2328 28.4234C25.2328 28.4234 24.7653 27.7562 25.0997 27.5549C25.4341 27.3536 25.7669 27.5549 25.9682 27.2302C26.1695 26.9055 25.9682 26.6961 26.0348 26.2968C26.1013 25.8974 26.4349 25.8292 26.7685 25.7627C27.1022 25.6961 28.0364 25.5622 28.1695 25.8958L27.7694 24.6945L26.969 24.4266L24.4341 25.8942L24.301 26.6279V28.0987M18.2263 30.6328L17.9666 27.5119C17.8254 25.9591 18.34 26.2294 19.6858 26.2294C19.8911 26.2294 20.952 26.4745 21.0275 26.6296C21.3911 27.3731 20.4187 27.2075 21.4463 27.7684C22.3148 28.2416 23.8465 27.481 23.4958 26.4291C23.2994 26.1953 22.4731 26.3479 22.1776 26.2018L20.6143 25.3901C19.9512 25.046 18.4187 24.5443 17.7117 25.0249C15.9203 26.2424 17.8254 29.2862 18.4642 30.5581" fill="#EF3D3A"/>
    <path fill-rule="evenodd" clip-rule="evenodd" d="M19.9739 6.99517C18.1557 6.57147 17.2523 7.75654 16.7012 8.98381C16.2093 8.86449 16.4049 8.19485 16.5291 7.85394C16.8538 6.95865 18.1663 5.7679 19.2377 5.92861C19.6987 5.99842 20.3229 6.41969 19.9739 6.99355M28.8343 9.0666L28.9203 9.06985C29.331 9.92374 29.6866 10.828 30.2052 11.5812C29.8578 12.3897 27.5754 13.1056 27.6111 11.6624C28.1046 11.4465 28.9569 11.6185 29.3944 11.3426C29.1411 10.6486 28.7775 10.0569 28.8262 9.07472M20.9057 9.08933C21.2953 9.80361 21.4228 10.5552 21.9772 11.0942C22.2263 11.3377 22.7117 11.634 22.4642 12.3101C22.4073 12.47 21.9966 12.8255 21.7596 12.8945C20.8935 13.1502 18.8741 12.9473 19.5583 11.8669C20.275 11.8994 21.2385 12.332 21.7742 11.8117C21.3627 11.1624 20.6379 9.85312 20.8992 9.08689M28.5015 16.3515C27.1971 17.1892 25.7418 18.1007 23.6046 17.8897C23.1476 17.4838 22.9739 16.6088 23.4179 16.0252C23.6492 16.431 23.5039 17.1616 24.1484 17.2622C25.3611 17.47 26.7726 16.5203 27.6452 16.1884C28.1866 15.276 27.5989 14.9408 27.1111 14.3539C26.1127 13.151 24.775 11.6608 24.8237 9.85962C25.2272 9.56741 25.2621 10.306 25.3108 10.4408C25.8319 11.6599 27.1427 13.2192 28.0997 14.2557C28.3432 14.513 28.7215 14.759 28.7653 14.9294C28.8895 15.4164 28.4423 16.0155 28.4942 16.3442M11.3108 15.4692C10.9017 15.2354 10.8043 14.2078 10.3246 14.1705C9.63868 14.1299 9.75637 15.5041 9.76611 16.3085C9.29371 15.8799 9.21092 14.5601 9.55751 13.8734C9.16222 13.6786 8.98527 14.0877 8.76611 14.2306C9.04777 12.1827 11.7694 13.2809 11.3099 15.4522M29.3408 17.2054C28.7336 18.3612 27.8749 19.634 26.0924 19.6713C26.0559 19.2979 26.0275 18.7297 26.094 18.5049C27.456 18.375 28.297 17.6802 29.3408 17.2054ZM20.8018 17.9546C21.9382 18.552 24.0275 18.6161 25.5721 18.5715C25.6549 18.9099 25.6533 19.328 25.6565 19.7403C23.6711 19.8393 21.3213 19.3483 20.8018 17.9546ZM20.5867 19.069C21.3724 21.0414 24.0737 20.8142 26.3513 20.7606C26.2507 21.0171 26.0267 21.319 25.7637 21.4286C25.0332 21.7257 23.0202 21.9513 22.0072 21.4124C21.3643 21.0715 20.952 20.2987 20.5997 19.8458C20.4374 19.6267 19.5827 19.0698 20.5867 19.069Z" fill="#231F20"/>
    <path fill-rule="evenodd" clip-rule="evenodd" d="M28.4158 29.9542L25.5181 34.5483C25.9767 33.1993 26.1731 30.942 26.2421 29.2212C27.2015 28.7724 28.0237 29.3227 28.4174 29.9534" fill="#81B0C4"/>
    <path fill-rule="evenodd" clip-rule="evenodd" d="M33.3772 35.6318C32.3448 35.8388 31.6191 36.8493 30.6118 36.7779C31.1654 35.9987 32.1354 35.6683 33.3772 35.6318ZM33.8318 37.2552C32.9901 37.3364 32.0014 37.48 31.1483 37.4175C31.5526 36.8006 33.1094 37.0133 33.8318 37.2552ZM34.124 38.6399C33.1784 38.6602 32.0022 38.6416 31.1045 38.5588C31.6362 37.9873 33.512 38.3477 34.124 38.6399Z" fill="#231F20"/>
    <path fill-rule="evenodd" clip-rule="evenodd" d="M26.6351 42.4529C26.7706 43.6412 27.2414 44.8441 27.183 46.146C26.6602 46.3222 26.3599 46.4764 25.6586 46.4756L25.5044 42.6257C25.8494 42.6485 26.3567 42.3798 26.6343 42.4537" fill="#DCD9D8"/>
    <path fill-rule="evenodd" clip-rule="evenodd" d="M25.1113 24.9461C24.6364 25.2562 24.2322 25.6442 23.7761 25.9745C22.7647 26.0248 22.2127 25.9047 21.4692 25.3235C21.4814 25.2773 21.5561 25.2976 21.5504 25.2407C22.6332 25.7237 24.0098 25.0443 25.1032 24.9469" fill="#F0D6B7"/>
    <path fill-rule="evenodd" clip-rule="evenodd" d="M19.4263 32.3263C19.7242 31.0373 20.8897 30.3701 21.9482 29.6599C23.0407 31.0462 23.7055 32.8295 24.4368 34.5503C22.7079 34.0292 20.9417 33.1834 19.4263 32.3263Z" fill="#81B0C4"/>
    <path fill-rule="evenodd" clip-rule="evenodd" d="M25.5053 42.6255C25.4614 43.6807 25.6092 45.369 25.6595 46.4753C26.36 46.4761 26.6603 46.3211 27.1838 46.1458C27.2431 44.8446 26.7723 43.6409 26.6359 42.4526C26.36 42.3795 25.851 42.6474 25.5061 42.6247L25.5053 42.6255ZM14.5937 36.6304C15.0564 40.8779 15.7252 44.4485 16.9525 48.2099C19.6765 49.0378 22.9606 49.1093 25.3697 48.3625C24.9273 46.2391 25.1205 43.6547 24.8624 41.3901C24.6676 39.6872 24.7666 37.9729 24.4996 36.2359C21.5816 35.6287 17.4574 36.0938 14.5945 36.6295L14.5937 36.6304ZM25.1887 36.2635C25.1644 38.0882 25.2699 39.8877 25.4095 41.714C26.11 41.6084 26.5864 41.5386 27.2358 41.3958C27.0247 39.6377 27.0507 37.6588 26.6189 36.1036C26.1213 36.1084 25.683 36.0979 25.1871 36.2643L25.1887 36.2635ZM28.7423 35.9696C28.4176 35.8933 28.0231 35.9664 27.7049 35.9729C27.8543 37.4599 28.2163 39.1011 28.3437 40.662C28.8437 40.6782 29.1108 40.4429 29.5207 40.3617C29.5426 38.9916 29.4014 37.1036 28.7415 35.9688L28.7423 35.9696ZM34.1238 40.886C35.1652 40.6328 35.8202 39.3568 35.528 38.0468C35.3332 37.1661 34.9842 35.5078 34.6108 34.9445C34.3348 34.5281 33.5881 33.9818 32.9923 34.3641C32.0223 34.9851 30.3137 35.1653 29.6075 35.9177C29.9622 37.0987 30.0726 38.7205 30.2187 40.2172C31.4306 40.2927 32.9217 39.8844 33.9282 40.3179C33.2244 40.5451 32.3129 40.5476 31.7041 40.8795C32.2009 41.1198 33.364 41.0711 34.123 40.8877L34.1238 40.886ZM24.4363 34.5508C23.7041 32.83 23.0402 31.0468 21.9476 29.6604C20.8892 30.3706 19.7236 31.0378 19.4257 32.3268C20.9411 33.1839 22.7074 34.0297 24.4363 34.5508ZM26.2398 29.2221C26.1708 30.9429 25.9744 33.201 25.5158 34.5492C26.61 33.1555 27.4923 31.5338 28.4135 29.955C28.0207 29.3244 27.1984 28.774 26.2382 29.2229L26.2398 29.2221ZM24.1944 28.4956C23.7804 28.451 23.4282 28.9721 22.8892 28.7472C22.7658 28.8836 22.6457 29.0313 22.5272 29.1653C23.7179 30.6003 24.2585 32.6352 25.1782 34.3211C25.6717 32.7018 25.6148 30.9282 25.7236 29.1588C25.0458 29.2018 24.6684 28.5459 24.1944 28.4956ZM22.8795 26.7602C22.8356 27.2513 22.9493 27.412 23.0483 27.9753C24.6717 28.4802 24.3811 25.7594 22.8795 26.7602ZM21.0881 26.1726C20.3924 25.7911 19.3462 25.3771 18.4476 25.1985C17.3332 24.9851 17.4379 26.7188 17.485 27.7521C17.5223 28.5719 17.9476 29.4364 18.1327 29.9802C18.2195 30.2343 18.2382 30.5037 18.4558 30.5541C18.8397 30.6352 20.1051 30.1377 20.4663 29.9404C21.2293 29.5248 21.8218 28.8641 22.4687 28.4201L22.4931 27.7732C22.0538 27.5539 21.5723 27.4321 21.0816 27.4161C21.4695 27.2213 22.0394 27.2237 22.3932 26.9916L22.403 26.7334C21.7577 26.6847 21.5118 26.3966 21.0864 26.1636L21.0881 26.1726ZM14.4322 24.9648C13.8543 25.5508 16.0523 26.3503 16.752 26.3933C16.748 26.0224 16.9631 25.6726 16.92 25.4063C16.0889 25.2602 14.9963 25.3576 14.4322 24.9648ZM21.5475 25.2407C21.545 25.2976 21.4704 25.2773 21.4663 25.3235C22.2098 25.9047 22.7618 26.0248 23.7731 25.9745C24.2293 25.6433 24.6335 25.2562 25.1083 24.9461C24.015 25.0435 22.6384 25.7229 21.5556 25.2399L21.5475 25.2407ZM28.0783 27.2213C28.0475 26.5695 27.8754 25.2302 27.4736 24.9956C26.6295 24.5021 25.1262 25.9916 24.489 26.2188C24.558 26.4185 24.6725 26.576 24.6814 26.8308C25.058 26.7383 25.5158 26.8016 25.8421 26.9623C25.4647 27.0045 25.0467 27.0029 24.7967 27.1815C24.7049 27.4461 24.8194 27.8065 24.7585 28.1734C25.6538 28.425 26.6765 28.5606 27.8088 28.5938C28.028 28.3073 28.1043 27.7627 28.0783 27.214V27.2213ZM13.4598 25.533C13.2788 25.4031 12.0515 23.8073 11.8835 23.8731C9.67166 24.7472 7.59536 26.2619 5.74065 27.6937C7.50932 31.4899 8.22361 36.1401 8.35023 40.6222C10.3762 41.5695 12.157 42.9356 14.9054 43.0784C14.5872 40.8268 14.2967 38.8187 14.1165 36.6985C13.4265 36.4063 12.4346 36.7115 11.7869 36.6093C11.7812 35.83 12.7747 36.2683 12.8567 35.744C12.9192 35.3479 12.3105 35.3179 12.5077 34.6937C13.0134 34.8771 13.2788 35.283 13.8178 35.4356C14.3105 34.3576 13.8113 32.451 13.8827 31.5508C13.8965 31.382 13.9671 30.6141 14.3454 30.7489C14.6814 30.8593 14.3275 32.7911 14.3567 33.6433C14.3892 34.4291 14.2618 35.1888 14.5799 35.6807C17.3097 35.3066 20.0578 35.0815 22.8121 35.0062C22.179 34.7351 21.4282 34.4786 20.6043 34.0135C20.1579 33.77 18.7504 33.2375 18.6213 32.8138C18.416 32.1377 19.1611 31.7781 19.2885 31.1904C17.9476 31.9209 17.6855 30.4891 17.3681 29.4745C17.0808 28.5549 16.9168 27.8674 16.8462 27.3382C15.6911 26.7862 14.4558 26.2294 13.4614 25.5232L13.4598 25.533ZM26.9135 24.0654C28.7642 23.1685 29.1051 27.4177 28.3721 28.787C28.4842 29.1953 28.8697 29.3519 29.0272 29.7188C27.9947 31.5679 26.8478 33.2943 25.795 35.1222C26.5783 34.6352 27.6976 35.0354 28.6197 34.6701C28.9566 34.537 29.2009 33.7651 29.4558 33.1482C30.1579 31.4502 30.8949 29.3089 31.2228 27.6888C31.2958 27.3195 31.4988 26.5151 31.4533 26.1872C31.3721 25.5987 30.5743 25.1628 30.1684 24.7992C29.42 24.1271 28.9493 23.5354 28.1684 22.908C27.8437 23.3755 27.1733 23.6888 26.9144 24.0687L26.9135 24.0654ZM9.23822 7.65958C8.35672 8.62955 8.54017 10.4469 8.64812 11.7399C10.2415 10.7375 12.3559 11.8195 12.3364 13.524C13.097 13.5037 12.6205 12.5744 12.4825 11.9737C12.0329 10.0175 13.2398 7.89091 12.5369 6.10195C11.1733 6.20504 10.0507 6.76266 9.23741 7.65877L9.23822 7.65958ZM15.545 2.03053C13.5483 2.59627 10.9996 4.04594 10.1717 5.83897C10.8064 5.74643 11.2471 5.42663 11.8738 5.38686C12.1108 5.37062 12.4208 5.48588 12.6936 5.41932C13.2358 5.28458 13.6936 4.06948 14.1027 3.61737C14.5004 3.17582 14.9809 2.98669 15.3088 2.5841C15.5199 2.48264 15.8308 2.48913 15.8429 2.17338C15.7512 2.07598 15.6562 2.0013 15.5458 2.03215L15.545 2.03053ZM25.933 2.56218C23.8616 1.39335 20.3567 0.51429 18.1522 1.6125C16.3665 2.49887 13.972 3.9664 13.1522 5.82517C13.9176 7.61088 12.9249 9.26186 12.8624 11.0833C12.8299 12.0524 13.3186 12.8982 13.3559 13.9526C13.0937 14.3844 12.2926 14.438 11.7407 14.4071C11.554 13.4737 11.2277 12.425 10.2666 12.3211C8.90705 12.1726 7.91273 13.2976 7.85104 14.4737C7.76987 15.8568 8.91435 18.1482 10.5215 17.9883C11.1432 17.9266 11.2958 17.3041 11.9728 17.3106C12.3397 18.0427 11.4062 18.2732 11.3105 18.7959C11.2861 18.9315 11.3876 19.4599 11.4484 19.7083C11.7407 20.9161 12.3924 22.4786 13.0337 23.3974C13.8478 24.5638 15.4468 24.7391 17.1668 24.8536C17.4752 24.192 18.6059 24.2464 19.3437 24.4193C18.459 24.0703 17.6392 23.2205 16.9574 22.4696C16.1749 21.6076 15.3827 20.6839 15.3421 19.5557C16.8194 21.606 18.0418 23.3974 20.7293 24.2992C22.7634 24.981 25.1384 23.9867 26.7009 22.8893C27.3502 22.4331 27.7366 21.7091 28.1976 21.0468C29.9225 18.5662 30.7269 15.024 30.5499 11.593C30.4687 10.1774 30.4801 8.76673 30.0061 7.81462C29.5093 6.81868 27.8308 5.92825 26.8486 6.82841C26.6668 5.86007 27.666 5.26186 28.8397 5.61088C28.0036 4.53134 27.1246 3.23264 25.9338 2.56137L25.933 2.56218ZM29.7918 34.4989C31.4103 33.6953 34.4346 32.3333 35.4493 34.5021C35.8226 35.3016 36.2634 36.6531 36.4574 37.4778C36.7317 38.6417 36.1603 41.0898 34.9639 41.4794C33.907 41.8244 32.6733 41.8041 31.3924 41.5476C31.2423 41.4226 31.0678 41.2067 30.959 40.9794C30.0499 40.9445 29.1976 41.0281 28.4809 41.4015C28.5491 42.0735 28.0946 42.1807 27.6676 42.3203C27.351 43.5735 28.3007 45.2099 28.0734 46.3528C27.9111 47.1669 26.9103 47.2927 26.1741 47.4453C26.1497 47.8974 26.2066 48.2756 26.2569 48.658C26.0889 49.2781 25.334 49.632 24.6173 49.718C22.2634 50.0021 18.6903 50.1279 16.4273 49.3138C15.7958 47.7635 15.2991 45.8804 14.7715 44.1109C12.571 44.3463 10.7853 43.158 9.10267 42.3795C8.51987 42.1093 7.71468 41.9607 7.49552 41.4964C7.28448 41.0476 7.37052 40.1864 7.31857 39.3731C7.18546 37.2951 7.07101 35.2927 6.52312 33.1661C6.27718 32.2115 5.8478 31.3698 5.54909 30.4502C5.27312 29.5979 4.78854 28.5451 4.66273 27.6953C4.47604 26.4356 5.66111 26.3657 6.42004 25.8284C7.59211 24.9843 8.51257 24.5175 9.78205 23.7562C10.1579 23.5305 11.2918 22.9607 11.4217 22.6969C11.6782 22.1758 10.9817 21.4404 10.795 21.0313C10.5004 20.3852 10.347 19.8357 10.3048 19.1985C9.23984 19.0305 8.43221 18.3966 7.94439 17.6807C7.13757 16.4981 6.57831 14.3097 7.27637 12.645C7.33075 12.5135 7.60429 12.2554 7.64406 12.0549C7.72361 11.6588 7.49471 11.1312 7.4801 10.7091C7.39893 8.54513 7.84536 6.6815 9.30234 6.0289C9.89325 3.67338 12.0101 2.8901 14.0036 1.71883C14.7488 1.28053 15.5702 1.0013 16.4192 0.689617C19.4631 -0.430515 24.1335 -0.219479 26.6595 1.69124C27.7309 2.5013 29.4436 4.21234 30.0556 5.45098C31.6733 8.72046 31.5572 14.1847 30.4265 18.162C30.2747 18.6961 30.0532 19.481 29.7447 20.1222C29.5296 20.5703 28.8624 21.4664 28.9436 21.8617C29.0272 22.2708 30.4655 23.3633 30.7739 23.6604C31.3291 24.1961 32.3843 24.9071 32.4785 25.5841C32.5702 26.3032 32.1619 27.2886 31.9541 27.9826C31.2618 30.3 30.5856 32.4412 29.8007 34.507" fill="#231F20"/>
    <path fill-rule="evenodd" clip-rule="evenodd" d="M18.9943 18.4595C19.0819 18.3426 19.5649 18.1648 20.2402 18.4903C20.2402 18.4903 19.4399 18.6234 19.5064 19.9595L19.1736 19.8929C19.1736 19.8929 18.8287 18.6835 18.9951 18.4603" fill="#F7E4CD"/>
    <path fill-rule="evenodd" clip-rule="evenodd" d="M24.8436 29.9318C24.8436 30.0044 24.8221 30.0753 24.7818 30.1356C24.7415 30.196 24.6842 30.243 24.6171 30.2708C24.5501 30.2985 24.4763 30.3058 24.4052 30.2917C24.334 30.2775 24.2686 30.2426 24.2173 30.1912C24.166 30.1399 24.1311 30.0746 24.1169 30.0034C24.1028 29.9322 24.11 29.8585 24.1378 29.7914C24.1656 29.7244 24.2126 29.6671 24.2729 29.6268C24.3333 29.5865 24.4042 29.5649 24.4767 29.5649C24.6797 29.5649 24.8436 29.7297 24.8436 29.9318ZM25.2105 31.6331C25.2105 31.7057 25.189 31.7766 25.1487 31.8369C25.1084 31.8973 25.0511 31.9443 24.984 31.9721C24.917 31.9998 24.8432 32.0071 24.7721 31.993C24.7009 31.9788 24.6355 31.9439 24.5842 31.8925C24.5329 31.8412 24.498 31.7759 24.4838 31.7047C24.4696 31.6335 24.4769 31.5598 24.5047 31.4927C24.5324 31.4257 24.5795 31.3684 24.6398 31.3281C24.7001 31.2878 24.7711 31.2662 24.8436 31.2662C25.0466 31.2662 25.2105 31.431 25.2105 31.6331Z" fill="#1D1919"/>
    <path d="M45.1478 40.6182V37.3114H46.9773C47.0336 38.1934 47.24 38.8409 47.5966 39.2538C47.9624 39.6666 48.5019 39.8731 49.2152 39.8731C50.1253 39.8731 50.7584 39.5214 51.1145 38.8179C51.4803 38.1236 51.6632 36.8149 51.6632 34.8918V16.2716H48.6104V14.5687H59.7988V16.2732H57.1088V35.003C57.1088 37.2827 56.5317 38.948 55.3775 39.9989C54.233 41.0498 52.4083 41.5752 49.9035 41.5752C49.1242 41.5752 48.341 41.4954 47.5536 41.3357C46.7657 41.1761 45.9643 40.9369 45.1478 40.6182ZM72.4351 27.1442C72.4351 25.1745 72.2522 23.7954 71.8864 23.007C71.5206 22.2094 70.8967 21.8106 70.0147 21.8106C69.1608 21.8106 68.5466 22.2002 68.1721 22.9794C67.8063 23.7586 67.6234 25.0627 67.6234 26.8918V27.145H72.4367L72.4351 27.1442ZM77.9092 28.8187H67.6218V28.9323C67.6218 30.8652 67.9127 32.2632 68.4944 33.1263C69.0761 33.9802 70.0144 34.4072 71.3093 34.4072C72.3883 34.4072 73.2609 34.1209 73.927 33.5484C74.5926 32.9759 75.0195 32.1453 75.2079 31.0565H77.5439C77.1402 32.7546 76.338 34.0024 75.1372 34.8C73.9359 35.5977 72.2566 35.9965 70.0991 35.9965C67.5098 35.9965 65.5212 35.3163 64.1332 33.9559C62.7533 32.5868 62.0634 30.6353 62.0634 28.1012C62.0634 25.6244 62.7717 23.6918 64.1884 22.3033C65.605 20.9148 67.5753 20.2205 70.0991 20.2205C72.5758 20.2205 74.4757 20.9524 75.7988 22.4161C77.1218 23.8701 77.8253 26.0076 77.9092 28.8284V28.8187ZM80.2176 35.5801V33.8771H82.3426V22.3236H80.2176V20.6206H87.3247V22.731C87.92 21.8398 88.6045 21.1972 89.3783 20.8033C90.1478 20.4093 91.1218 20.2124 92.3004 20.2124C93.9795 20.2124 95.2457 20.7097 96.0991 21.7043C96.9622 22.6891 97.3937 24.1434 97.3937 26.0671V33.878H99.5325V35.5801H90.604V33.8771H92.4197V25.9258C92.4197 24.6596 92.2555 23.7824 91.927 23.2944C91.6023 22.7965 91.0442 22.5476 90.2525 22.5476C89.2487 22.5476 88.5122 22.9183 88.0431 23.6596C87.5739 24.3912 87.3393 25.5592 87.3393 27.1637V33.8763H89.1689V35.5809L80.2176 35.5801ZM110.15 35.5801H101.157V33.8771H103.282V15.3706H101.157V13.6823H108.264V27.7416L114.301 22.3236H112.514V20.6206H119.332V22.3236H116.559L112.704 25.7854L119.008 33.878H120.627V35.5801H112.042V33.8771H113.801L109.649 28.5435L108.257 29.7822V33.878H110.142V35.5801H110.15ZM122.802 16.3836C122.802 15.6239 123.064 14.9859 123.589 14.4697C124.114 13.9448 124.757 13.6823 125.517 13.6823C126.258 13.6823 126.887 13.9448 127.403 14.4697C127.928 14.9859 128.19 15.6239 128.19 16.3836C128.19 17.125 127.928 17.7581 127.403 18.283C126.886 18.7992 126.258 19.0573 125.517 19.0573C124.757 19.0573 124.115 18.7992 123.589 18.283C123.064 17.7668 122.802 17.1336 122.802 16.3836ZM128.24 33.8755H130.379V35.5801H121.126V33.8771H123.251V22.3236H121.126V20.6206H128.233V33.878L128.24 33.8755ZM132.117 35.5801V33.8771H134.242V22.3236H132.117V20.6206H139.224V22.731C139.819 21.8398 140.504 21.1972 141.278 20.8033C142.047 20.4093 143.021 20.2124 144.2 20.2124C145.879 20.2124 147.145 20.7097 147.998 21.7043C148.862 22.6891 149.293 24.1434 149.293 26.0671V33.878H151.432V35.5801H142.503V33.8771H144.319V25.9258C144.319 24.6596 144.155 23.7824 143.826 23.2944C143.502 22.7965 142.944 22.5476 142.152 22.5476C141.148 22.5476 140.412 22.9183 139.942 23.6596C139.473 24.3912 139.239 25.5592 139.239 27.1637V33.8763H141.068V35.5809H132.14L132.117 35.5801ZM153.424 35.1434V30.9632H155.015C155.146 32.0795 155.564 32.9332 156.267 33.5241C156.971 34.1058 157.928 34.3966 159.138 34.3966C160.151 34.3966 160.925 34.2235 161.459 33.8771C162.004 33.52 162.276 33.0135 162.276 32.3577C162.276 31.7624 162.103 31.2981 161.757 30.9648C161.419 30.6363 160.757 30.3501 159.772 30.106L157.718 29.5866C156.171 29.2078 155.05 28.6585 154.355 27.9388C153.66 27.2164 153.313 26.2424 153.313 25.0168C153.313 23.3934 153.876 22.1877 155.002 21.3999C156.127 20.6023 157.863 20.2034 160.209 20.2034C161.091 20.2034 162.029 20.2784 163.024 20.4283C164.027 20.569 165.135 20.7941 166.345 21.1036V24.8844H164.754C164.67 23.8563 164.304 23.0871 163.657 22.5768C163.018 22.0606 162.099 21.8025 160.899 21.8025C159.886 21.8025 159.116 21.9667 158.591 22.2952C158.075 22.6198 157.817 23.089 157.817 23.7026C157.817 24.2091 157.967 24.6079 158.267 24.8991C158.567 25.1896 159.107 25.4337 159.886 25.6312L161.926 26.1507C163.887 26.6485 165.24 27.2627 165.985 27.9932C166.735 28.7248 167.11 29.7427 167.11 31.0468C167.11 32.7351 166.505 33.9829 165.295 34.7903C164.093 35.5879 162.222 35.9867 159.679 35.9867C158.751 35.9867 157.766 35.9164 156.725 35.7757C155.684 35.635 154.582 35.424 153.418 35.1426L153.424 35.1434Z" fill="#061C3D"/>
  </g>
  <defs>
    <clipPath id="clip0_4201_4937">
      <rect width="166.234" height="50" fill="white" transform="translate(0.883301)"/>
    </clipPath>
  </defs>
</svg>