<svg width="80" height="60" viewBox="0 0 80 60" fill="none" xmlns="http://www.w3.org/2000/svg">
<path d="M1.85791 57.913V51.8418H2.59309V54.8535H2.66423L5.3915 51.8418H6.35198L3.80257 54.5811L6.35198 57.913H5.46265L3.35198 55.0909L2.59309 55.9444V57.913H1.85791ZM9.79295 56.0514V53.3597H10.4926V57.913H9.79295V57.1424H9.74553C9.63878 57.3735 9.47276 57.5702 9.24748 57.7319C9.02219 57.8921 8.73758 57.9724 8.39375 57.9724C8.10914 57.9724 7.8562 57.9098 7.63483 57.7857C7.41351 57.6589 7.23956 57.4695 7.11309 57.2164C6.98662 56.9613 6.92339 56.6404 6.92339 56.2528V53.3597H7.62299V56.2053C7.62299 56.5377 7.71586 56.8022 7.90165 56.9999C8.08937 57.1977 8.32854 57.2963 8.61904 57.2963C8.79294 57.2963 8.9698 57.2519 9.14965 57.1627C9.33147 57.074 9.48367 56.9378 9.60617 56.7537C9.73071 56.57 9.79295 56.3357 9.79295 56.0514ZM11.8688 57.913V51.8418H12.5684V54.0829H12.6277C12.6791 54.0041 12.7502 53.9029 12.8411 53.7808C12.934 53.6561 13.0664 53.5455 13.2384 53.4484C13.4123 53.3498 13.6475 53.3003 13.9439 53.3003C14.3273 53.3003 14.6652 53.3963 14.9577 53.5877C15.2502 53.7797 15.4784 54.051 15.6425 54.4032C15.8065 54.7549 15.8885 55.1697 15.8885 55.6481C15.8885 56.1302 15.8065 56.5481 15.6425 56.9018C15.4784 57.254 15.2512 57.5264 14.9607 57.7204C14.6702 57.9119 14.3352 58.0079 13.9558 58.0079C13.6633 58.0079 13.4291 57.9594 13.2532 57.8624C13.0773 57.7637 12.9419 57.6521 12.8471 57.5274C12.7522 57.4011 12.6791 57.2963 12.6277 57.2133H12.5447V57.913H11.8688ZM12.5565 55.6361C12.5565 55.9799 12.6069 56.2836 12.7077 56.5465C12.8085 56.8074 12.9557 57.0119 13.1494 57.1601C13.3431 57.3062 13.5803 57.3792 13.8608 57.3792C14.1534 57.3792 14.3975 57.3025 14.5931 57.1481C14.7907 56.9921 14.9389 56.7824 15.0377 56.5199C15.1385 56.2549 15.1889 55.9606 15.1889 55.6361C15.1889 55.3163 15.1395 55.0277 15.0407 54.7705C14.9439 54.5117 14.7966 54.3072 14.599 54.157C14.4034 54.0046 14.1573 53.929 13.8608 53.929C13.5763 53.929 13.3372 54.001 13.1435 54.145C12.9498 54.2874 12.8035 54.4872 12.7047 54.7439C12.6059 54.999 12.5565 55.2964 12.5565 55.6361ZM18.8678 58.0079C18.429 58.0079 18.0506 57.9109 17.7324 57.7173C17.4162 57.5217 17.1721 57.2488 17.0002 56.8992C16.8302 56.5476 16.7453 56.138 16.7453 55.6721C16.7453 55.2057 16.8302 54.7945 17.0002 54.4387C17.1721 54.0808 17.4113 53.8022 17.7176 53.6029C18.0259 53.401 18.3856 53.3003 18.7967 53.3003C19.0338 53.3003 19.268 53.3399 19.4992 53.4187C19.7304 53.498 19.9409 53.6264 20.1306 53.8043C20.3203 53.9801 20.4715 54.2133 20.5842 54.5039C20.6968 54.7945 20.7532 55.1519 20.7532 55.5771V55.8735H17.2433V55.2688H20.0417C20.0417 55.0116 19.9903 54.7825 19.8876 54.5811C19.7868 54.3792 19.6425 54.2201 19.4547 54.1037C19.269 53.9869 19.0496 53.929 18.7967 53.929C18.518 53.929 18.2769 53.9978 18.0733 54.1361C17.8717 54.2728 17.7166 54.4507 17.6079 54.6698C17.4992 54.8895 17.4449 55.1243 17.4449 55.3752V55.7785C17.4449 56.1224 17.5042 56.414 17.6227 56.653C17.7433 56.8904 17.9103 57.0709 18.1237 57.1956C18.3372 57.3182 18.5852 57.3792 18.8678 57.3792C19.0516 57.3792 19.2176 57.3537 19.3658 57.3025C19.516 57.2488 19.6455 57.17 19.7542 57.0651C19.8628 56.9582 19.9468 56.8262 20.0062 56.6681L20.682 56.8575C20.6108 57.087 20.4913 57.2884 20.3233 57.4622C20.1553 57.6344 19.9478 57.7684 19.7008 57.8655C19.4537 57.9604 19.1761 58.0079 18.8678 58.0079ZM21.8174 57.913V53.3597H22.4933V54.0474H22.5407C22.6237 53.822 22.7739 53.6394 22.9913 53.499C23.2087 53.3587 23.4538 53.2883 23.7265 53.2883C23.7779 53.2883 23.8421 53.2893 23.9192 53.2914C23.9963 53.2935 24.0545 53.2966 24.0941 53.3003V54.0119C24.0703 54.0057 24.016 53.9968 23.931 53.9853C23.848 53.9712 23.7601 53.9644 23.6672 53.9644C23.4459 53.9644 23.2482 54.0109 23.0743 54.1037C22.9024 54.1945 22.766 54.3213 22.6652 54.483C22.5664 54.6432 22.517 54.8258 22.517 55.0314V57.913H21.8174ZM25.623 55.1738V57.913H24.9234V53.3597H25.5993V54.0709H25.6586C25.7653 53.8397 25.9273 53.654 26.1447 53.5137C26.3621 53.3712 26.6427 53.3003 26.9866 53.3003C27.2949 53.3003 27.5647 53.3634 27.7959 53.4902C28.0271 53.6144 28.207 53.8043 28.3354 54.0594C28.4639 54.3119 28.5281 54.6323 28.5281 55.0199V57.913H27.8285V55.0669C27.8285 54.7095 27.7356 54.4309 27.5499 54.231C27.3641 54.0297 27.1092 53.929 26.7851 53.929C26.5617 53.929 26.3621 53.977 26.1862 54.074C26.0123 54.171 25.8749 54.3119 25.7742 54.4982C25.6734 54.6839 25.623 54.9088 25.623 55.1738ZM31.7156 58.0079C31.2769 58.0079 30.8984 57.9109 30.5802 57.7173C30.264 57.5217 30.0199 57.2488 29.848 56.8992C29.678 56.5476 29.5931 56.138 29.5931 55.6721C29.5931 55.2057 29.678 54.7945 29.848 54.4387C30.0199 54.0808 30.2591 53.8022 30.5654 53.6029C30.8737 53.401 31.2334 53.3003 31.6445 53.3003C31.8816 53.3003 32.1158 53.3399 32.3471 53.4187C32.5782 53.498 32.7888 53.6264 32.9785 53.8043C33.1682 53.9801 33.3194 54.2133 33.432 54.5039C33.5447 54.7945 33.601 55.1519 33.601 55.5771V55.8735H30.0911V55.2688H32.8895C32.8895 55.0116 32.8382 54.7825 32.7354 54.5811C32.6346 54.3792 32.4903 54.2201 32.3026 54.1037C32.1168 53.9869 31.8974 53.929 31.6445 53.929C31.3658 53.929 31.1247 53.9978 30.9211 54.1361C30.7195 54.2728 30.5644 54.4507 30.4558 54.6698C30.347 54.8895 30.2927 55.1243 30.2927 55.3752V55.7785C30.2927 56.1224 30.352 56.414 30.4706 56.653C30.5911 56.8904 30.7581 57.0709 30.9715 57.1956C31.185 57.3182 31.433 57.3792 31.7156 57.3792C31.8994 57.3792 32.0654 57.3537 32.2136 57.3025C32.3639 57.2488 32.4933 57.17 32.602 57.0651C32.7107 56.9582 32.7947 56.8262 32.854 56.6681L33.5298 56.8575C33.4587 57.087 33.3391 57.2884 33.1711 57.4622C33.0031 57.6344 32.7957 57.7684 32.5486 57.8655C32.3016 57.9604 32.0239 58.0079 31.7156 58.0079ZM36.6455 53.3597V53.9524H34.2858V53.3597H36.6455ZM34.9735 52.2688H35.6731V56.6086C35.6731 56.8064 35.7018 56.9545 35.7591 57.0531C35.8184 57.1502 35.8935 57.2154 35.9844 57.2488C36.0773 57.2806 36.1751 57.2963 36.2779 57.2963C36.355 57.2963 36.4182 57.2926 36.4676 57.2843C36.517 57.2749 36.5565 57.2665 36.5862 57.2608L36.7285 57.8895C36.681 57.9072 36.6148 57.925 36.5298 57.9427C36.4449 57.9625 36.3372 57.9724 36.2067 57.9724C36.0091 57.9724 35.8154 57.9297 35.6257 57.8446C35.4379 57.7596 35.2818 57.6302 35.1573 57.4564C35.0348 57.2827 34.9735 57.063 34.9735 56.7985V52.2688ZM39.558 58.0079C39.1193 58.0079 38.7408 57.9109 38.4227 57.7173C38.1064 57.5217 37.8624 57.2488 37.6904 56.8992C37.5205 56.5476 37.4355 56.138 37.4355 55.6721C37.4355 55.2057 37.5205 54.7945 37.6904 54.4387C37.8624 54.0808 38.1015 53.8022 38.4078 53.6029C38.7161 53.401 39.0758 53.3003 39.4869 53.3003C39.724 53.3003 39.9582 53.3399 40.1894 53.4187C40.4207 53.498 40.6311 53.6264 40.8208 53.8043C41.0106 53.9801 41.1618 54.2133 41.2744 54.5039C41.3871 54.7945 41.4434 55.1519 41.4434 55.5771V55.8735H37.9335V55.2688H40.7319C40.7319 55.0116 40.6805 54.7825 40.5778 54.5811C40.477 54.3792 40.3327 54.2201 40.145 54.1037C39.9592 53.9869 39.7398 53.929 39.4869 53.929C39.2082 53.929 38.9671 53.9978 38.7636 54.1361C38.562 54.2728 38.4068 54.4507 38.2981 54.6698C38.1894 54.8895 38.1351 55.1243 38.1351 55.3752V55.7785C38.1351 56.1224 38.1944 56.414 38.3129 56.653C38.4335 56.8904 38.6005 57.0709 38.814 57.1956C39.0274 57.3182 39.2754 57.3792 39.558 57.3792C39.7418 57.3792 39.9078 57.3537 40.056 57.3025C40.2062 57.2488 40.3357 57.17 40.4444 57.0651C40.5531 56.9582 40.6371 56.8262 40.6963 56.6681L41.3723 56.8575C41.3011 57.087 41.1815 57.2884 41.0136 57.4622C40.8456 57.6344 40.6381 57.7684 40.391 57.8655C40.144 57.9604 39.8663 58.0079 39.558 58.0079ZM45.7329 54.3792L45.1045 54.5571C45.0649 54.4523 45.0066 54.3505 44.9295 54.2519C44.8545 54.1512 44.7517 54.0683 44.6212 54.003C44.4908 53.9378 44.3238 53.905 44.1203 53.905C43.8416 53.905 43.6094 53.9691 43.4236 54.098C43.2398 54.2243 43.1479 54.3855 43.1479 54.5811C43.1479 54.7549 43.2112 54.8921 43.3377 54.9928C43.4641 55.094 43.6618 55.178 43.9306 55.2448L44.6064 55.4112C45.0135 55.5098 45.3169 55.6611 45.5165 55.8646C45.7161 56.066 45.8159 56.3258 45.8159 56.6441C45.8159 56.905 45.7408 57.1382 45.5906 57.3437C45.4424 57.5493 45.2349 57.7116 44.9681 57.83C44.7013 57.9484 44.391 58.0079 44.0373 58.0079C43.5728 58.0079 43.1884 57.9072 42.8841 57.7053C42.5798 57.5039 42.387 57.2097 42.306 56.822L42.9701 56.6561C43.0333 56.9013 43.1529 57.085 43.3288 57.2076C43.5066 57.3302 43.7388 57.3912 44.0254 57.3912C44.3515 57.3912 44.6104 57.3218 44.8021 57.1836C44.9957 57.0432 45.0926 56.8752 45.0926 56.6796C45.0926 56.5215 45.0373 56.3895 44.9266 56.2825C44.8159 56.174 44.646 56.0926 44.4167 56.0394L43.6578 55.8615C43.2408 55.7629 42.9345 55.6095 42.7388 55.4024C42.5452 55.1926 42.4483 54.9307 42.4483 54.6166C42.4483 54.3594 42.5205 54.1324 42.6647 53.9347C42.811 53.737 43.0096 53.582 43.2606 53.4693C43.5135 53.3566 43.8001 53.3003 44.1203 53.3003C44.5708 53.3003 44.9246 53.3989 45.1815 53.5966C45.4404 53.7944 45.6242 54.0552 45.7329 54.3792ZM47.9125 57.0829L47.8651 57.4032C47.8315 57.6286 47.7801 57.8697 47.7109 58.1264C47.6437 58.3836 47.5736 58.6257 47.5005 58.8526C47.4273 59.0801 47.367 59.2606 47.3196 59.3952H46.786C46.8117 59.2684 46.8453 59.1015 46.8868 58.8944C46.9283 58.6867 46.9698 58.4545 47.0113 58.1973C47.0548 57.9427 47.0904 57.6818 47.118 57.4147L47.1536 57.0829H47.9125ZM53.525 57.913H51.6514V51.8418H53.6079C54.197 51.8418 54.701 51.9634 55.1199 52.2062C55.5389 52.4477 55.8598 52.7942 56.0831 53.247C56.3064 53.6973 56.418 54.2373 56.418 54.8655C56.418 55.4978 56.3053 56.0425 56.0805 56.499C55.8551 56.9535 55.5269 57.303 55.0959 57.5483C54.665 57.7914 54.1417 57.913 53.525 57.913ZM52.3866 57.2608H53.4775C53.9794 57.2608 54.3952 57.1637 54.7255 56.9702C55.0558 56.7766 55.3015 56.5011 55.4638 56.1432C55.6255 55.7853 55.7069 55.3596 55.7069 54.8655C55.7069 54.3756 55.6265 53.9535 55.4664 53.5997C55.3067 53.2439 55.0672 52.971 54.749 52.7817C54.4312 52.5897 54.0347 52.4942 53.5605 52.4942H52.3866V57.2608ZM59.4065 58.0079C58.9954 58.0079 58.6344 57.9098 58.3245 57.7142C58.0161 57.5185 57.7751 57.2451 57.6008 56.893C57.4291 56.5413 57.3431 56.1302 57.3431 55.6601C57.3431 55.1858 57.4291 54.7716 57.6008 54.4178C57.7751 54.0641 58.0161 53.7897 58.3245 53.594C58.6344 53.3984 58.9954 53.3003 59.4065 53.3003C59.8172 53.3003 60.1772 53.3984 60.4855 53.594C60.7954 53.7897 61.037 54.0641 61.2086 54.4178C61.3824 54.7716 61.4695 55.1858 61.4695 55.6601C61.4695 56.1302 61.3824 56.5413 61.2086 56.893C61.037 57.2451 60.7954 57.5185 60.4855 57.7142C60.1772 57.9098 59.8172 58.0079 59.4065 58.0079ZM59.4065 57.3792C59.7185 57.3792 59.9758 57.2994 60.1771 57.1392C60.3785 56.979 60.5278 56.7688 60.6248 56.5079C60.7213 56.247 60.7698 55.9643 60.7698 55.6601C60.7698 55.3554 60.7213 55.0721 60.6248 54.8091C60.5278 54.5462 60.3785 54.3338 60.1771 54.1721C59.9758 54.0098 59.7185 53.929 59.4065 53.929C59.094 53.929 58.8373 54.0098 58.6354 54.1721C58.434 54.3338 58.2848 54.5462 58.1878 54.8091C58.0912 55.0721 58.0427 55.3554 58.0427 55.6601C58.0427 55.9643 58.0912 56.247 58.1878 56.5079C58.2848 56.7688 58.434 56.979 58.6354 57.1392C58.8373 57.2994 59.094 57.3792 59.4065 57.3792ZM64.3871 58.0079C63.9603 58.0079 63.593 57.9072 63.2846 57.7053C62.9763 57.5039 62.7389 57.2264 62.573 56.8726C62.4071 56.5189 62.3241 56.1145 62.3241 55.6601C62.3241 55.1973 62.4091 54.7893 62.5792 54.4356C62.7509 54.0797 62.9898 53.8022 63.2966 53.6029C63.6045 53.401 63.9645 53.3003 64.3756 53.3003C64.6954 53.3003 64.9839 53.3597 65.2411 53.4782C65.4978 53.5966 65.7086 53.7625 65.8725 53.9764C66.0363 54.1898 66.1385 54.4387 66.1777 54.723H65.478C65.4248 54.5159 65.3064 54.3317 65.1227 54.1721C64.9406 54.0098 64.6954 53.929 64.3871 53.929C64.1147 53.929 63.8752 53.9999 63.6697 54.1424C63.4662 54.2827 63.3071 54.481 63.1928 54.7382C63.0801 54.9928 63.0238 55.2923 63.0238 55.6361C63.0238 55.9883 63.0791 56.2945 63.1897 56.5554C63.3024 56.8163 63.4605 57.0187 63.6639 57.1627C63.8695 57.3072 64.1105 57.3792 64.3871 57.3792C64.5691 57.3792 64.734 57.3479 64.8822 57.2843C65.0304 57.2211 65.1561 57.1304 65.2589 57.0119C65.3617 56.893 65.4347 56.751 65.478 56.5851H66.1777C66.1385 56.8538 66.0405 57.0959 65.8845 57.3114C65.73 57.5248 65.5255 57.6944 65.2709 57.8211C65.0178 57.9453 64.7231 58.0079 64.3871 58.0079ZM67.853 56.2528L67.841 55.3872H67.9834L69.9754 53.3597H70.841L68.7185 55.5057H68.6591L67.853 56.2528ZM67.2008 57.913V51.8418H67.8999V57.913H67.2008ZM70.0938 57.913L68.3152 55.6601L68.813 55.1738L70.9834 57.913H70.0938ZM73.4627 58.0079C73.0239 58.0079 72.6457 57.9109 72.3274 57.7173C72.0112 57.5217 71.7671 57.2488 71.5954 56.8992C71.4253 56.5476 71.3403 56.138 71.3403 55.6721C71.3403 55.2057 71.4253 54.7945 71.5954 54.4387C71.7671 54.0808 72.0065 53.8022 72.3128 53.6029C72.6212 53.401 72.9806 53.3003 73.3918 53.3003C73.6292 53.3003 73.8629 53.3399 74.0945 53.4187C74.3257 53.498 74.5359 53.6264 74.7259 53.8043C74.9152 53.9801 75.0665 54.2133 75.1792 54.5039C75.2919 54.7945 75.3483 55.1519 75.3483 55.5771V55.8735H71.8385V55.2688H74.6366C74.6366 55.0116 74.5855 54.7825 74.4827 54.5811C74.382 54.3792 74.2375 54.2201 74.0497 54.1037C73.8639 53.9869 73.6448 53.929 73.3918 53.929C73.1132 53.929 72.8721 53.9978 72.6686 54.1361C72.4667 54.2728 72.3118 54.4507 72.2032 54.6698C72.0942 54.8895 72.0399 55.1243 72.0399 55.3752V55.7785C72.0399 56.1224 72.0994 56.414 72.2178 56.653C72.3384 56.8904 72.5053 57.0709 72.7187 57.1956C72.9321 57.3182 73.1805 57.3792 73.4627 57.3792C73.6469 57.3792 73.8128 57.3537 73.961 57.3025C74.1112 57.2488 74.2406 57.17 74.3492 57.0651C74.4582 56.9582 74.5422 56.8262 74.6012 56.6681L75.2773 56.8575C75.2058 57.087 75.0864 57.2884 74.9184 57.4622C74.7504 57.6344 74.5427 57.7684 74.2959 57.8655C74.0486 57.9604 73.7711 58.0079 73.4627 58.0079ZM76.4126 57.913V53.3597H77.0883V54.0474H77.1358C77.2187 53.822 77.369 53.6394 77.5865 53.499C77.8036 53.3587 78.0488 53.2883 78.3217 53.2883C78.3728 53.2883 78.437 53.2893 78.5142 53.2914C78.5914 53.2935 78.6498 53.2966 78.689 53.3003V54.0119C78.6655 54.0057 78.6112 53.9968 78.5262 53.9853C78.4432 53.9712 78.3551 53.9644 78.2622 53.9644C78.041 53.9644 77.8432 54.0109 77.6695 54.1037C77.4973 54.1945 77.3612 54.3213 77.2605 54.483C77.1613 54.6432 77.1123 54.8258 77.1123 55.0314V57.913H76.4126Z" fill="#326DE6"/>
<path d="M39.9475 1.3841C40.3615 1.3841 40.7753 1.47236 41.1596 1.64906L56.1181 8.74591C56.8866 9.12871 57.4777 9.83546 57.6551 10.6601L61.3506 26.6499C61.5572 27.5039 61.3506 28.3874 60.7887 29.0645L50.4419 41.8744C49.91 42.5515 49.082 42.9344 48.225 42.9344H31.6405C30.7833 42.9344 29.9555 42.5515 29.4234 41.8744L19.0769 29.0645C18.5447 28.3874 18.3375 27.5039 18.5152 26.6499L22.2105 10.6601C22.4173 9.80604 22.979 9.09929 23.7476 8.74591L38.7062 1.61982C39.0905 1.47254 39.5338 1.3841 39.9475 1.3841ZM39.9475 0C39.3266 0 38.706 0.147271 38.1146 0.412218L23.1564 7.53866C21.9739 8.09817 21.1461 9.12871 20.8506 10.395L17.1552 26.3849C16.8597 27.6513 17.1552 28.9468 17.983 29.9775L28.3298 42.7872C29.128 43.7885 30.3398 44.3478 31.6111 44.3478H48.1953C49.4663 44.3478 50.6785 43.7885 51.4766 42.7872L61.8233 29.9775C62.6513 28.9763 62.9466 27.6513 62.6513 26.3849L58.9558 10.395C58.66 9.12871 57.8325 8.09817 56.6503 7.53866L41.7507 0.412039C41.189 0.147271 40.5684 0 39.9475 0Z" fill="white"/>
<path fill-rule="evenodd" clip-rule="evenodd" d="M29.2883 41.8927C29.9464 42.7239 30.9191 43.1822 31.9492 43.1822L48.0863 43.1534C49.1163 43.1534 50.089 42.6663 50.7472 41.8641L60.7611 29.3999C61.419 28.5689 61.6481 27.5087 61.419 26.4772L57.843 10.9184C57.614 9.88688 56.9274 9.05585 55.983 8.5975L41.5057 1.692C41.0478 1.46265 40.533 1.34814 40.018 1.34814C39.5029 1.34814 38.9879 1.46282 38.53 1.69182L24.0528 8.62615C23.1084 9.08449 22.4217 9.91547 22.1929 10.9471L18.6164 26.5058C18.3591 27.5375 18.6164 28.5975 19.2746 29.4285L29.2883 41.8927ZM54.4663 25.417H54.495C55.01 25.5601 55.3246 26.0189 55.3246 26.3627C55.2103 26.7353 54.8383 27.0218 54.4095 27.0218C54.3234 27.0218 54.266 27.0218 54.1804 26.993C54.1517 26.9644 54.123 26.9644 54.0943 26.9644C54.0656 26.9644 54.0369 26.9573 54.0088 26.9502C53.9801 26.9429 53.9514 26.9358 53.9227 26.9358C53.7223 26.8785 53.5794 26.8211 53.4077 26.7351C53.3649 26.7207 53.3216 26.6992 53.2789 26.6777C53.2361 26.6563 53.1933 26.635 53.1505 26.6206H53.1218C52.578 26.4199 52.0917 26.2482 51.6339 26.1908H51.5767C51.448 26.1908 51.3673 26.2393 51.2869 26.2875C51.2601 26.3035 51.2331 26.3197 51.2046 26.3339C51.1904 26.3339 51.1833 26.341 51.1763 26.3483C51.1692 26.3554 51.1618 26.3627 51.1474 26.3627L50.8041 26.3053C50.5181 27.1937 50.1176 28.0818 49.6026 28.8844C48.6296 30.4315 47.3422 31.6922 45.8257 32.5805L45.9688 32.9244C45.9688 32.9388 45.9617 32.9459 45.9546 32.9532C45.9473 32.9603 45.9402 32.9674 45.9402 32.9818C45.9343 33.0115 45.9269 33.0403 45.9199 33.0686C45.8926 33.1765 45.8664 33.2812 45.9116 33.4401C46.0467 33.8461 46.3094 34.252 46.6036 34.7063C46.6207 34.733 46.6381 34.7598 46.6557 34.7868V34.8156C46.6843 34.8585 46.7129 34.8944 46.7415 34.9301C46.77 34.966 46.7986 35.0016 46.8272 35.0446C46.9417 35.1879 47.056 35.3313 47.142 35.5032C47.1705 35.532 47.1991 35.5892 47.2277 35.6465C47.2277 35.6607 47.235 35.668 47.2421 35.6751C47.2492 35.6822 47.2565 35.6895 47.2565 35.7037C47.3708 35.9329 47.3708 36.1908 47.3136 36.4201C47.2562 36.6491 47.0846 36.8212 46.8843 36.9358C46.77 36.9932 46.6555 37.022 46.541 37.022C46.1976 37.022 45.8542 36.8212 45.6828 36.4772C45.6828 36.4772 45.654 36.4487 45.654 36.4201C45.6396 36.3913 45.6254 36.3698 45.611 36.3481C45.5966 36.3266 45.5825 36.3054 45.5681 36.2768C45.5109 36.1622 45.4791 36.0475 45.4473 35.9329C45.4316 35.8755 45.4156 35.8182 45.3966 35.761L45.3106 35.5032V35.4746C45.2949 35.4316 45.2793 35.3891 45.2638 35.3471C45.083 34.854 44.9207 34.4114 44.7099 34.042C44.5954 33.8699 44.4811 33.8125 44.338 33.7839C44.3215 33.7675 44.3147 33.7606 44.3062 33.7576C44.3 33.7553 44.2929 33.7553 44.2806 33.7553L44.1091 33.4401C43.6225 33.6136 43.1255 33.7572 42.6215 33.8699C41.8202 34.0706 40.9618 34.1563 40.132 34.1563C38.7589 34.1563 37.3854 33.8987 36.1265 33.4115L35.9261 33.7839C35.8975 33.8125 35.8975 33.8125 35.8689 33.8125C35.8449 33.8246 35.8197 33.8353 35.7939 33.8463C35.6959 33.8881 35.5875 33.9346 35.497 34.0706C35.2693 34.4251 35.1312 34.8247 34.9637 35.3089C34.9417 35.3722 34.9193 35.4369 34.8962 35.5032L34.8103 35.761C34.7913 35.8182 34.7755 35.8721 34.7595 35.9261C34.7277 36.0345 34.696 36.1428 34.6386 36.2768C34.61 36.3056 34.5815 36.3627 34.5529 36.4201C34.5529 36.4201 34.5243 36.4487 34.5243 36.4772C34.3526 36.7924 34.0093 37.022 33.6659 37.022C33.5514 37.022 33.4369 36.9932 33.3225 36.9358C32.8935 36.7353 32.7218 36.1908 32.9507 35.7037C32.9507 35.7037 32.9792 35.6751 32.9792 35.6465C33.0078 35.5892 33.0364 35.5318 33.065 35.5032C33.0944 35.4588 33.1221 35.4163 33.1489 35.3751C33.2257 35.2572 33.2949 35.1509 33.3799 35.0446C33.4083 35.0019 33.4369 34.9662 33.4655 34.9306C33.494 34.8944 33.5228 34.8585 33.5514 34.8156V34.7868C33.8662 34.2996 34.1238 33.8699 34.2953 33.4401C34.3524 33.2396 34.2953 33.0963 34.2381 32.9815C34.2381 32.9674 34.231 32.9603 34.224 32.9532C34.2166 32.9459 34.2095 32.9388 34.2095 32.9244L34.3812 32.552C33.9519 32.2939 33.5514 32.0361 33.1509 31.721C31.4056 30.3456 30.0895 28.4544 29.4028 26.3341L29.0021 26.3915C28.9879 26.3915 28.9806 26.3842 28.9735 26.3771C28.9664 26.37 28.9593 26.3627 28.9449 26.3627C28.9392 26.3589 28.9333 26.3549 28.9273 26.3508C28.8434 26.2942 28.733 26.2194 28.573 26.2194H28.5159C28.058 26.2768 27.5715 26.4487 27.0279 26.6494H26.9993C26.9561 26.6638 26.9132 26.6853 26.8699 26.7068C26.8272 26.7283 26.7847 26.7497 26.742 26.7639C26.5702 26.8499 26.4272 26.9073 26.2267 26.9644C26.1981 26.9644 26.1696 26.9717 26.141 26.9788C26.1124 26.9859 26.0838 26.993 26.0552 26.993C26.0552 27.0218 26.0266 27.0218 25.9981 27.0218C25.9121 27.0506 25.855 27.0506 25.769 27.0506C25.3114 27.0506 24.9394 26.7925 24.8535 26.3913C24.7675 25.933 25.0824 25.4458 25.5974 25.3313C25.6262 25.3027 25.6548 25.3027 25.6833 25.3027C25.7119 25.3027 25.7407 25.2954 25.7693 25.2881C25.7979 25.281 25.8264 25.2739 25.855 25.2739C25.8804 25.2703 25.9053 25.2666 25.93 25.2629C26.0989 25.2385 26.2486 25.2166 26.3986 25.2166C26.4843 25.188 26.5988 25.188 26.6846 25.188H26.7134C27.3141 25.1306 27.8292 25.0732 28.2582 24.9299C28.4299 24.8441 28.5159 24.7294 28.573 24.6146C28.573 24.6005 28.5801 24.5934 28.5872 24.5863C28.5945 24.5792 28.6016 24.5719 28.6016 24.5575L28.9735 24.443C28.6016 21.8068 29.1452 19.1421 30.5757 16.8784C30.5959 16.8181 30.6302 16.7719 30.6686 16.72C30.6848 16.6979 30.7017 16.6748 30.7189 16.6492L30.4329 16.3912V16.334C30.4329 16.1907 30.4329 16.0474 30.2898 15.9043C29.9606 15.6021 29.5526 15.3525 29.0659 15.0549C29.0448 15.042 29.0236 15.029 29.0023 15.016C28.9164 14.9585 28.8306 14.9013 28.7447 14.8727C28.573 14.7866 28.4299 14.7006 28.2582 14.5861C28.2296 14.5718 28.2081 14.5503 28.1867 14.5288C28.1652 14.5074 28.1437 14.4859 28.1151 14.4716C28.101 14.4716 28.0936 14.4644 28.0865 14.4572C28.0795 14.45 28.0724 14.4428 28.058 14.4428C27.6575 14.0989 27.5715 13.5259 27.8577 13.1534C28.0008 12.9529 28.2582 12.8382 28.5159 12.8382C28.7459 12.8399 28.968 12.9209 29.1454 13.0676C29.1454 13.0852 29.1564 13.092 29.1715 13.1014C29.1806 13.1071 29.1916 13.1139 29.2026 13.1248C29.2359 13.1584 29.2693 13.182 29.2972 13.2016C29.3168 13.2156 29.3335 13.2275 29.3454 13.2395C29.4885 13.3826 29.6031 13.4973 29.7176 13.6406C29.7763 13.6797 29.8216 13.7323 29.8625 13.7799C29.8817 13.802 29.8998 13.823 29.9178 13.8411C30.3184 14.2709 30.6903 14.6435 31.0622 14.9013C31.1481 14.9585 31.2339 14.9872 31.3198 14.9872C31.3484 14.9872 31.377 14.98 31.4056 14.9729C31.4344 14.9657 31.4629 14.9585 31.4915 14.9585H31.5486L31.8349 15.1592C33.3511 13.5547 35.2968 12.4371 37.4997 11.9499C38.0148 11.8353 38.5298 11.778 39.0448 11.7208L39.0736 11.3483L39.1308 11.291C39.1413 11.2804 39.1525 11.2697 39.1637 11.2589C39.2434 11.182 39.3344 11.0943 39.3596 10.9186C39.4051 10.5539 39.3601 10.1531 39.3109 9.71606C39.2983 9.60352 39.2853 9.48858 39.2737 9.37124V9.3426C39.2606 9.29001 39.2535 9.24347 39.2469 9.20022C39.2391 9.14914 39.232 9.1026 39.2165 9.05601C39.1593 8.88409 39.1308 8.71213 39.1308 8.51162V8.28242C39.1308 8.02442 39.2167 7.79528 39.3882 7.62336C39.5598 7.4514 39.7887 7.33693 40.0177 7.33693C40.504 7.33693 40.9047 7.76663 40.9047 8.28242V8.54021C40.8759 8.74077 40.8473 8.91289 40.8187 9.08465C40.7901 9.17068 40.7616 9.28515 40.7616 9.37124V9.39989C40.7577 9.43928 40.7538 9.47841 40.7497 9.51733C40.6969 10.0436 40.6491 10.5202 40.6756 10.9472C40.7008 11.1232 40.792 11.2108 40.872 11.2878C40.8832 11.2986 40.8942 11.3091 40.9047 11.3197L40.9618 11.3769L40.9904 11.7494C43.1701 11.9522 45.2455 12.7777 46.9702 14.1277C47.3708 14.4716 47.7713 14.8154 48.1432 15.2165L48.4868 14.9872H48.5439C48.6011 15.016 48.6584 15.016 48.7156 15.016C48.8016 15.016 48.8873 14.9872 48.973 14.93C49.3449 14.6722 49.7168 14.3283 50.1176 13.8984C50.1763 13.8592 50.2216 13.8067 50.2625 13.759C50.2817 13.7369 50.2998 13.716 50.3178 13.6978C50.4315 13.5554 50.5453 13.4414 50.6873 13.2993L50.6898 13.2968C50.7184 13.2824 50.7398 13.2609 50.7613 13.2394C50.7828 13.2179 50.8043 13.1964 50.8329 13.1821L50.89 13.1248C51.0903 12.9815 51.2908 12.8956 51.5193 12.8956C51.777 12.8956 52.0344 13.0102 52.1775 13.2107C52.4637 13.5833 52.3777 14.1564 51.9772 14.5003C51.9772 14.5179 51.9663 14.5247 51.9514 14.534C51.942 14.5398 51.9311 14.5466 51.9201 14.5576C51.8865 14.5911 51.8531 14.6148 51.8252 14.6344C51.8056 14.6484 51.7889 14.6603 51.777 14.6722C51.6053 14.7868 51.4622 14.8727 51.2905 14.9585C51.2476 14.9873 51.2046 15.0088 51.1616 15.0304C51.1186 15.0518 51.0759 15.0733 51.0331 15.1019C51.0107 15.1155 50.9888 15.1291 50.9668 15.1425C50.4811 15.4395 50.0739 15.6886 49.7454 15.9901C49.6311 16.1335 49.6026 16.2768 49.6026 16.42V16.4773L49.3164 16.7351C50.0641 17.8836 50.6061 19.1538 50.9186 20.4887C51.2268 21.8125 51.2946 23.1811 51.1189 24.5289L51.4908 24.6434C51.4908 24.6578 51.4979 24.6649 51.5052 24.6722C51.5122 24.6793 51.5193 24.6864 51.5193 24.7008C51.5765 24.8153 51.6341 24.9301 51.8341 25.0161C52.292 25.1594 52.7785 25.2166 53.379 25.2739H53.4077C53.5225 25.3027 53.6081 25.3027 53.6942 25.3027C53.8439 25.3027 53.9936 25.3245 54.1627 25.3491C54.1872 25.3525 54.2123 25.3562 54.2378 25.3599C54.266 25.3599 54.2952 25.367 54.3234 25.3743C54.3521 25.3814 54.3808 25.3884 54.4095 25.3884C54.4095 25.417 54.4376 25.417 54.4663 25.417ZM39.9889 24.6149L41.2478 24.013L41.534 22.6666L40.6756 21.5776H39.2737L38.4155 22.6666L38.73 24.013L39.9889 24.6149ZM48.9159 23.927C49.0052 22.958 48.9376 21.9807 48.7156 21.0333C48.4865 20.0305 48.1146 19.1134 47.6284 18.311L44.1663 21.4344C44.0805 21.5203 44.0232 21.6349 43.9946 21.7496C43.9089 22.1507 44.1377 22.552 44.5382 22.6666L48.9159 23.927ZM42.5069 19.2567L46.255 16.592C44.8688 15.2024 43.0535 14.3236 41.1049 14.0989L41.3623 18.7696L41.3625 18.7707C41.3913 18.8848 41.4199 18.9991 41.5054 19.0848C41.7628 19.3999 42.1922 19.4573 42.5069 19.2567ZM38.4152 14.1562C38.2651 14.1849 38.1149 14.2135 37.9576 14.2421C36.3268 14.6146 34.8677 15.4171 33.6945 16.592L37.4997 19.3138C37.5857 19.3711 37.7288 19.3997 37.8431 19.3997C38.2724 19.3997 38.5872 19.0559 38.6157 18.6548L38.8731 14.0703C38.7159 14.0989 38.5655 14.1276 38.4152 14.1562ZM35.7258 21.3481L32.3211 18.3109C31.291 20.0015 30.862 21.9786 31.0336 23.927L35.4684 22.6377C35.6115 22.6089 35.7258 22.5228 35.8118 22.4083C36.0692 22.0931 36.0406 21.6061 35.7258 21.3481ZM36.098 25.3023L31.5484 26.0761C32.2351 27.967 33.5228 29.543 35.125 30.5746L36.8704 26.3627C36.9276 26.2194 36.9276 26.0758 36.899 25.9042C36.8132 25.5315 36.4699 25.2737 36.098 25.3023ZM39.9889 32.0073C40.6756 32.0073 41.3337 31.9213 41.9919 31.778C42.1185 31.74 42.2452 31.7076 42.3693 31.6758C42.5257 31.6358 42.6781 31.5967 42.8214 31.5489L40.6185 27.5659C40.5252 27.4399 40.4086 27.3329 40.2751 27.2508C39.9603 27.0789 39.5884 27.1934 39.3596 27.4515L37.0995 31.5489C38.0148 31.8356 38.9876 32.0073 39.9889 32.0073ZM44.8244 30.5746C45.9114 29.8582 46.8557 28.9413 47.571 27.7954C47.9429 27.2508 48.2292 26.6777 48.4008 26.0475L43.823 25.2737C43.6799 25.2737 43.5367 25.3023 43.4224 25.3594C43.0791 25.5315 42.936 25.9042 43.0219 26.2477L44.8244 30.5746Z" fill="#326DE6"/>
</svg>
