<svg width="140" height="70" viewBox="0 0 140 70" fill="none" xmlns="http://www.w3.org/2000/svg">
<path d="M55.0808 30.2167H50.7852V27.6523H62.2885V30.2167H57.9928V43.05H55.082L55.0808 30.2167ZM64.9392 40.9547C66.1058 40.9488 67.2655 40.7703 68.3808 40.4238L68.8242 42.5472C67.5 43.0325 66.101 43.282 64.6907 43.2845C61.1533 43.2845 59.9307 41.6512 59.9307 38.9445V35.9975C59.9307 33.6175 60.9807 31.5642 64.595 31.5642C68.2093 31.5642 69.0283 33.6642 69.0283 36.0885V38.4918H62.7633V39.067C62.7633 40.4157 63.23 40.9337 64.952 40.9337L64.9392 40.9547ZM62.7283 36.218H66.31V35.665C66.31 34.615 65.9857 33.8683 64.6008 33.8683C63.216 33.8683 62.7295 34.6057 62.7295 35.665L62.7283 36.218Z" fill="#061C3D"/>
<path d="M76.5386 34.1342C75.5154 34.6055 74.5296 35.155 73.5916 35.7792V43.03H70.7402V31.7775H73.1202L73.3046 33.0223C74.2182 32.4043 75.209 31.9089 76.2516 31.5488L76.5386 34.1342Z" fill="#061C3D"/>
<path d="M83.4214 34.1342C82.3982 34.6055 81.4124 35.155 80.4744 35.7792V43.03H77.623V31.7775H80.003L80.1874 33.0223C81.101 32.4043 82.0918 31.9089 83.1344 31.5488L83.4214 34.1342Z" fill="#061C3D"/>
<path d="M92.8392 43.0207H90.5327L90.3262 42.2834C89.3299 42.9302 88.1681 43.2757 86.9802 43.2785C84.9245 43.2785 84.0332 41.8715 84.0332 39.9325C84.0332 37.6482 85.0284 36.7825 87.2999 36.7825H90.0042V35.6159C90.0042 34.371 89.6577 33.9289 87.8599 33.9289C86.8118 33.9401 85.7675 34.0562 84.7425 34.2754L84.396 32.131C85.6513 31.7839 86.9472 31.6054 88.2495 31.6002C91.7869 31.6002 92.8252 32.845 92.8252 35.6684L92.8392 43.0207ZM90.024 38.7694H87.9474C87.014 38.7694 86.7807 39.0202 86.7807 39.8742C86.7807 40.7282 87.0315 41.0094 87.9159 41.0094C88.6604 40.9994 89.3904 40.8015 90.038 40.4342L90.024 38.7694ZM101.504 29.2027C100.973 29.0889 100.433 29.0272 99.8905 29.0184C98.7857 29.0184 98.6235 29.5049 98.6235 30.36V31.767H101.482L101.319 33.9779H98.6142V42.9822H95.799V34.0199H93.9942V31.809H95.7909V30.2107C95.7909 27.875 96.8735 26.7247 99.3725 26.7247C100.192 26.721 101.007 26.8302 101.797 27.049L101.504 29.2027ZM107.001 43.2447C103.148 43.2447 102.108 41.1214 102.108 38.8114V35.9915C102.108 33.685 103.158 31.5582 107.001 31.5582C110.844 31.5582 111.901 33.6815 111.901 35.9915V38.8359C111.894 41.1272 110.855 43.2692 107.001 43.2692V43.2447ZM107.001 33.9382C105.528 33.9382 104.925 34.609 104.925 35.8749V38.9035C104.925 40.1705 105.5 40.8402 107.001 40.8402C108.503 40.8402 109.078 40.1694 109.078 38.9035V35.8865C109.078 34.6114 108.495 33.9417 107.001 33.9417V33.9382ZM119.135 34.1225C118.111 34.5937 117.126 35.1436 116.188 35.7675V43.0184H113.341V31.7659H115.721L115.905 33.0107C116.819 32.3927 117.81 31.8973 118.852 31.5372L119.135 34.1225ZM126.881 43.0207V35.1725C126.881 34.5752 126.631 34.2742 125.983 34.2742C124.947 34.3909 123.944 34.7129 123.036 35.225V43.0417H120.236V31.7892H122.38L122.66 32.74C124.063 32.0375 125.597 31.6361 127.164 31.5617C127.598 31.5214 128.034 31.6149 128.413 31.8297C128.793 32.0445 129.097 32.3703 129.286 32.7634C130.691 32.0447 132.234 31.6352 133.81 31.5617C135.682 31.5617 136.354 32.88 136.354 34.8867V43.037H133.538V35.1889C133.538 34.5915 133.288 34.2905 132.64 34.2905C131.602 34.3977 130.598 34.7217 129.693 35.2414V43.058L126.881 43.0207Z" fill="#061C3D"/>
<path fill-rule="evenodd" clip-rule="evenodd" d="M32.2714 44.2566V44.154L18.7031 36.3182V51.9833L32.2714 59.8191V44.2566ZM32.2714 26.764V42.4355L18.7031 34.5997V18.9282L32.2714 26.764Z" fill="#5C4EE5"/>
<path fill-rule="evenodd" clip-rule="evenodd" d="M33.7598 42.4355L47.3345 34.5997V18.9282L33.7598 26.764V42.4355Z" fill="#4040B2"/>
<path fill-rule="evenodd" clip-rule="evenodd" d="M3.64648 25.8532L17.2148 33.6889V18.0174L3.64648 10.1816V25.8532Z" fill="#5C4EE5"/>
</svg>
